{"glyphs":{"0":{"ha":950,"x_min":0,"x_max":0,"o":"m 476 -11 b 883 488 829 -11 883 279 b 472 982 883 688 832 982 b 63 488 108 982 63 685 b 476 -11 63 286 111 -11 z m 476 154 b 268 483 300 154 268 311 b 472 815 268 660 300 815 b 682 483 639 815 682 667 b 476 154 682 303 639 154 z "},"1":{"ha":603,"x_min":0,"x_max":0,"o":"m 322 913 b 206 818 322 819 243 818 l 42 818 l 42 679 l 322 679 l 322 0 l 521 0 l 521 968 l 322 968 z "},"2":{"ha":963,"x_min":0,"x_max":0,"o":"m 333 165 b 851 679 650 263 851 467 b 476 979 851 860 710 979 b 71 625 249 979 71 825 l 264 613 b 472 810 272 735 354 810 b 653 654 589 810 653 756 b 67 169 653 435 286 256 l 67 0 l 903 0 l 903 165 z "},"3":{"ha":992,"x_min":0,"x_max":0,"o":"m 492 -11 b 933 296 724 -11 933 90 b 703 528 933 406 860 499 b 871 717 796 558 871 622 b 496 979 871 881 697 979 b 108 692 289 979 108 874 l 304 682 b 492 825 306 764 382 825 b 672 704 593 825 672 782 b 438 575 672 611 567 575 l 438 436 b 735 293 629 436 735 408 b 499 143 735 204 638 143 b 246 317 356 143 246 213 l 51 308 b 492 -11 51 93 258 -11 z "},"4":{"ha":975,"x_min":0,"x_max":0,"o":"m 803 968 l 604 968 l 47 365 l 47 197 l 606 197 l 606 0 l 803 0 l 803 197 l 922 197 l 922 354 l 803 354 z m 606 750 l 606 354 l 238 354 z "},"5":{"ha":978,"x_min":0,"x_max":0,"o":"m 526 660 b 315 613 457 660 385 644 l 363 810 l 863 810 l 863 968 l 201 968 l 88 458 l 274 417 b 486 517 339 486 406 517 b 708 338 618 517 708 444 b 481 142 708 225 611 142 b 243 310 357 142 263 208 l 51 281 b 482 -12 82 115 235 -12 b 917 338 758 -12 917 154 b 526 660 917 526 760 660 z "},"6":{"ha":967,"x_min":0,"x_max":0,"o":"m 511 651 b 446 646 493 651 469 650 l 699 968 l 472 968 l 140 535 b 50 324 74 450 50 399 b 485 -12 50 125 228 -12 b 915 325 736 -12 915 128 b 511 651 915 515 746 651 z m 485 142 b 250 325 344 142 250 217 b 485 508 250 433 347 508 b 715 325 621 508 715 433 b 485 142 715 217 621 142 z "},"7":{"ha":910,"x_min":0,"x_max":0,"o":"m 40 810 l 644 810 l 139 0 l 369 0 l 868 819 l 868 968 l 40 968 z "},"8":{"ha":996,"x_min":0,"x_max":0,"o":"m 500 -12 b 935 285 771 -12 935 110 b 758 526 935 396 867 489 b 878 710 835 557 878 624 b 500 981 878 868 731 981 b 118 711 274 981 118 874 b 238 526 118 622 164 557 b 60 285 125 488 60 396 b 500 -12 60 101 238 -12 z m 500 572 b 317 701 390 572 317 621 b 500 826 317 779 393 826 b 681 697 608 826 681 776 b 500 572 681 622 607 572 z m 499 144 b 256 308 358 144 256 207 b 499 464 256 403 354 464 b 738 308 642 464 738 403 b 499 144 738 206 638 144 z "},"9":{"ha":967,"x_min":0,"x_max":0,"o":"m 481 981 b 50 643 229 981 50 840 b 454 317 50 453 219 317 b 519 322 472 317 496 318 l 267 0 l 493 0 l 825 433 b 915 644 892 518 915 569 b 481 981 915 843 738 981 z m 481 460 b 250 643 344 460 250 535 b 481 826 250 751 344 826 b 715 643 621 826 715 751 b 481 460 715 535 618 460 z "}," ":{"ha":426,"x_min":0,"x_max":0,"o":""},"A":{"ha":1071,"x_min":0,"x_max":0,"o":"m 1064 0 l 650 968 l 419 968 l 6 0 l 242 0 l 318 193 l 750 193 l 825 0 z m 535 747 l 689 353 l 381 353 z "},"Á":{"ha":1071,"x_min":0,"x_max":0,"o":"m 621 1251 l 465 1054 l 597 1054 l 815 1251 z m 1064 0 l 650 968 l 419 968 l 6 0 l 242 0 l 318 193 l 750 193 l 825 0 z m 535 747 l 689 353 l 381 353 z "},"Ă":{"ha":1071,"x_min":0,"x_max":0,"o":"m 533 1043 b 779 1251 697 1043 779 1108 l 632 1251 b 533 1147 632 1168 589 1147 b 433 1251 479 1147 433 1168 l 286 1251 b 533 1043 286 1117 361 1043 z m 1064 0 l 650 968 l 419 968 l 6 0 l 242 0 l 318 193 l 750 193 l 825 0 z m 535 747 l 689 353 l 381 353 z "},"Ắ":{"ha":1071,"x_min":0,"x_max":0,"o":"m 621 1535 l 465 1338 l 597 1338 l 815 1535 z m 533 1043 b 779 1251 697 1043 779 1108 l 632 1251 b 533 1147 632 1168 589 1147 b 433 1251 479 1147 433 1168 l 286 1251 b 533 1043 286 1117 361 1043 z m 1064 0 l 650 968 l 419 968 l 6 0 l 242 0 l 318 193 l 750 193 l 825 0 z m 535 747 l 689 353 l 381 353 z "},"Ặ":{"ha":1071,"x_min":0,"x_max":0,"o":"m 533 1043 b 779 1251 697 1043 779 1108 l 632 1251 b 533 1147 632 1168 589 1147 b 433 1251 479 1147 433 1168 l 286 1251 b 533 1043 286 1117 361 1043 z m 650 968 l 419 968 l 6 0 l 242 0 l 318 193 l 750 193 l 825 0 l 1064 0 z m 535 747 l 689 353 l 381 353 z m 653 -262 l 653 -83 l 411 -83 l 411 -262 z "},"Ằ":{"ha":1071,"x_min":0,"x_max":0,"o":"m 456 1535 l 263 1535 l 465 1338 l 600 1338 z m 286 1251 b 533 1043 286 1117 361 1043 b 779 1251 697 1043 779 1108 l 632 1251 b 533 1147 632 1168 589 1147 b 433 1251 479 1147 433 1168 z m 1064 0 l 650 968 l 419 968 l 6 0 l 242 0 l 318 193 l 750 193 l 825 0 z m 535 747 l 689 353 l 381 353 z "},"Ẳ":{"ha":1071,"x_min":0,"x_max":0,"o":"m 564 1404 b 479 1354 564 1363 521 1361 l 500 1279 b 692 1418 579 1292 692 1310 b 457 1564 692 1513 597 1564 l 435 1564 l 435 1453 l 457 1453 b 564 1404 513 1453 564 1447 z m 533 1043 b 779 1251 697 1043 779 1108 l 632 1251 b 533 1147 632 1168 589 1147 b 433 1251 479 1147 433 1168 l 286 1251 b 533 1043 286 1117 361 1043 z m 1064 0 l 650 968 l 419 968 l 6 0 l 242 0 l 318 193 l 750 193 l 825 0 z m 535 747 l 689 353 l 381 353 z "},"Ẵ":{"ha":1071,"x_min":0,"x_max":0,"o":"m 442 1426 b 618 1336 489 1426 513 1336 b 767 1535 710 1336 767 1406 l 657 1535 b 621 1446 657 1476 642 1446 b 450 1538 576 1446 544 1538 b 299 1349 357 1538 299 1465 l 403 1349 b 442 1426 403 1396 418 1426 z m 533 1043 b 779 1251 697 1043 779 1108 l 632 1251 b 533 1147 632 1168 589 1147 b 433 1251 479 1147 433 1168 l 286 1251 b 533 1043 286 1117 361 1043 z m 1064 0 l 650 968 l 419 968 l 6 0 l 242 0 l 318 193 l 750 193 l 825 0 z m 535 747 l 689 353 l 381 353 z "},"Ǎ":{"ha":1071,"x_min":0,"x_max":0,"o":"m 613 1251 l 532 1167 l 454 1251 l 314 1251 l 532 1019 l 751 1251 z m 1064 0 l 650 968 l 419 968 l 6 0 l 242 0 l 318 193 l 750 193 l 825 0 z m 535 747 l 689 353 l 381 353 z "},"Â":{"ha":1071,"x_min":0,"x_max":0,"o":"m 613 1033 l 751 1033 l 533 1279 l 314 1033 l 453 1033 l 533 1125 z m 1064 0 l 650 968 l 419 968 l 6 0 l 242 0 l 318 193 l 750 193 l 825 0 z m 535 747 l 689 353 l 381 353 z "},"Ấ":{"ha":1071,"x_min":0,"x_max":0,"o":"m 621 1511 l 465 1314 l 597 1314 l 815 1511 z m 613 1033 l 751 1033 l 533 1279 l 314 1033 l 453 1033 l 533 1125 z m 1064 0 l 650 968 l 419 968 l 6 0 l 242 0 l 318 193 l 750 193 l 825 0 z m 535 747 l 689 353 l 381 353 z "},"Ậ":{"ha":1071,"x_min":0,"x_max":0,"o":"m 613 1033 l 751 1033 l 533 1279 l 314 1033 l 453 1033 l 533 1125 z m 650 968 l 419 968 l 6 0 l 242 0 l 318 193 l 750 193 l 825 0 l 1064 0 z m 535 747 l 689 353 l 381 353 z m 653 -262 l 653 -83 l 411 -83 l 411 -262 z "},"Ầ":{"ha":1071,"x_min":0,"x_max":0,"o":"m 456 1511 l 263 1511 l 465 1314 l 600 1314 z m 453 1033 l 533 1125 l 613 1033 l 751 1033 l 533 1279 l 314 1033 z m 1064 0 l 650 968 l 419 968 l 6 0 l 242 0 l 318 193 l 750 193 l 825 0 z m 535 747 l 689 353 l 381 353 z "},"Ẩ":{"ha":1071,"x_min":0,"x_max":0,"o":"m 533 1125 l 613 1033 l 751 1033 l 547 1264 b 692 1394 618 1278 692 1307 b 457 1540 692 1489 597 1540 l 435 1540 l 435 1429 l 457 1429 b 564 1381 513 1429 564 1424 b 479 1331 564 1339 521 1338 l 500 1256 b 514 1258 504 1257 510 1257 l 314 1033 l 453 1033 z m 1064 0 l 650 968 l 419 968 l 6 0 l 242 0 l 318 193 l 750 193 l 825 0 z m 535 747 l 689 353 l 381 353 z "},"Ẫ":{"ha":1071,"x_min":0,"x_max":0,"o":"m 442 1403 b 618 1313 489 1403 513 1313 b 767 1511 710 1313 767 1382 l 657 1511 b 621 1422 657 1453 642 1422 b 450 1514 576 1422 544 1514 b 299 1325 357 1514 299 1442 l 403 1325 b 442 1403 403 1372 418 1403 z m 453 1033 l 533 1125 l 613 1033 l 751 1033 l 533 1279 l 314 1033 z m 1064 0 l 650 968 l 419 968 l 6 0 l 242 0 l 318 193 l 750 193 l 825 0 z m 535 747 l 689 353 l 381 353 z "},"Ä":{"ha":1071,"x_min":0,"x_max":0,"o":"m 289 1251 l 289 1072 l 488 1072 l 488 1251 z m 576 1251 l 576 1072 l 775 1072 l 775 1251 z m 1064 0 l 650 968 l 419 968 l 6 0 l 242 0 l 318 193 l 750 193 l 825 0 z m 535 747 l 689 353 l 381 353 z "},"Ạ":{"ha":1071,"x_min":0,"x_max":0,"o":"m 650 968 l 419 968 l 6 0 l 242 0 l 318 193 l 750 193 l 825 0 l 1064 0 z m 535 747 l 689 353 l 381 353 z m 653 -262 l 653 -83 l 411 -83 l 411 -262 z "},"À":{"ha":1071,"x_min":0,"x_max":0,"o":"m 456 1251 l 263 1251 l 465 1054 l 600 1054 z m 1064 0 l 650 968 l 419 968 l 6 0 l 242 0 l 318 193 l 750 193 l 825 0 z m 535 747 l 689 353 l 381 353 z "},"Ả":{"ha":1071,"x_min":0,"x_max":0,"o":"m 564 1121 b 479 1071 564 1079 521 1078 l 500 996 b 692 1135 579 1008 692 1026 b 457 1281 692 1229 597 1281 l 435 1281 l 435 1169 l 457 1169 b 564 1121 513 1169 564 1164 z m 1064 0 l 650 968 l 419 968 l 6 0 l 242 0 l 318 193 l 750 193 l 825 0 z m 535 747 l 689 353 l 381 353 z "},"Ā":{"ha":1071,"x_min":0,"x_max":0,"o":"m 340 1165 l 340 1060 l 724 1060 l 724 1165 z m 1064 0 l 650 968 l 419 968 l 6 0 l 242 0 l 318 193 l 750 193 l 825 0 z m 535 747 l 689 353 l 381 353 z "},"Ą":{"ha":1071,"x_min":0,"x_max":0,"o":"m 1035 -161 b 968 -200 1019 -185 999 -200 b 919 -147 942 -200 919 -187 b 1064 0 919 -72 1028 -14 l 650 968 l 419 968 l 6 0 l 242 0 l 318 193 l 750 193 l 825 0 l 919 0 b 811 -167 878 -24 811 -76 b 974 -311 811 -253 881 -311 b 1128 -224 1050 -311 1096 -271 z m 535 747 l 689 353 l 381 353 z "},"Å":{"ha":1071,"x_min":0,"x_max":0,"o":"m 1064 0 l 660 946 b 706 1064 688 976 706 1018 b 532 1238 706 1161 625 1238 b 358 1064 436 1238 358 1158 b 408 943 358 1018 378 975 l 6 0 l 242 0 l 318 193 l 750 193 l 825 0 z m 532 1129 b 599 1065 574 1129 599 1103 b 532 997 599 1026 572 997 b 468 1065 494 997 468 1026 b 532 1129 468 1101 492 1129 z m 535 747 l 689 353 l 381 353 z "},"Ã":{"ha":1071,"x_min":0,"x_max":0,"o":"m 442 1143 b 618 1053 489 1143 513 1053 b 767 1251 710 1053 767 1122 l 657 1251 b 621 1163 657 1193 642 1163 b 450 1254 576 1163 544 1254 b 299 1065 357 1254 299 1182 l 403 1065 b 442 1143 403 1113 418 1143 z m 1064 0 l 650 968 l 419 968 l 6 0 l 242 0 l 318 193 l 750 193 l 825 0 z m 535 747 l 689 353 l 381 353 z "},"Æ":{"ha":1493,"x_min":0,"x_max":0,"o":"m 240 0 l 311 183 l 650 183 l 650 0 l 1433 0 l 1433 158 l 868 158 l 868 407 l 1388 407 l 1388 568 l 868 568 l 868 810 l 1433 810 l 1433 968 l 442 968 l 6 0 z m 569 825 l 650 825 l 650 339 l 381 339 z "},"B":{"ha":1074,"x_min":0,"x_max":0,"o":"m 701 0 b 1028 283 904 0 1028 107 b 869 522 1028 403 974 486 b 975 725 939 563 975 638 b 654 968 975 876 853 968 l 82 968 l 82 0 z m 301 810 l 632 810 b 754 693 711 810 754 768 b 638 576 754 618 713 576 l 301 576 z m 301 421 l 671 421 b 807 294 760 421 807 378 b 663 158 807 207 757 158 l 301 158 z "},"C":{"ha":1174,"x_min":0,"x_max":0,"o":"m 614 -21 b 1142 268 874 -21 1054 78 l 935 333 b 614 151 876 207 768 151 b 258 486 385 151 258 279 b 615 817 258 693 383 817 b 935 640 775 817 879 761 l 1140 708 b 615 989 1051 892 875 989 b 42 483 257 989 42 794 b 614 -21 42 176 256 -21 z "},"Ć":{"ha":1174,"x_min":0,"x_max":0,"o":"m 690 1054 l 908 1251 l 714 1251 l 558 1054 z m 614 -21 b 1142 268 874 -21 1054 78 l 935 333 b 614 151 876 207 768 151 b 258 486 385 151 258 279 b 615 817 258 693 383 817 b 935 640 775 817 879 761 l 1140 708 b 615 989 1051 892 875 989 b 42 483 257 989 42 794 b 614 -21 42 176 256 -21 z "},"Č":{"ha":1174,"x_min":0,"x_max":0,"o":"m 844 1251 l 706 1251 l 625 1167 l 547 1251 l 407 1251 l 625 1019 z m 614 -21 b 1142 268 874 -21 1054 78 l 935 333 b 614 151 876 207 768 151 b 258 486 385 151 258 279 b 615 817 258 693 383 817 b 935 640 775 817 879 761 l 1140 708 b 615 989 1051 892 875 989 b 42 483 257 989 42 794 b 614 -21 42 176 256 -21 z "},"Ç":{"ha":1174,"x_min":0,"x_max":0,"o":"m 935 333 b 614 151 876 207 768 151 b 258 486 385 151 258 279 b 615 817 258 693 383 817 b 935 640 775 817 879 761 l 1140 708 b 615 989 1051 892 875 989 b 42 483 257 989 42 794 b 558 -19 42 193 233 0 l 486 -133 b 589 -143 525 -133 558 -135 b 644 -206 621 -153 644 -171 b 589 -257 644 -239 621 -257 b 528 -232 568 -257 546 -247 l 471 -319 b 583 -360 513 -351 558 -360 b 749 -197 683 -360 749 -289 b 697 -92 749 -154 733 -117 b 625 -64 678 -79 654 -69 l 661 -19 b 1142 268 896 -8 1060 90 z "},"Ċ":{"ha":1174,"x_min":0,"x_max":0,"o":"m 747 1072 l 747 1251 l 503 1251 l 503 1072 z m 614 -21 b 1142 268 874 -21 1054 78 l 935 333 b 614 151 876 207 768 151 b 258 486 385 151 258 279 b 615 817 258 693 383 817 b 935 640 775 817 879 761 l 1140 708 b 615 989 1051 892 875 989 b 42 483 257 989 42 794 b 614 -21 42 176 256 -21 z "},"D":{"ha":1136,"x_min":0,"x_max":0,"o":"m 568 0 b 1092 476 906 0 1092 168 b 571 968 1092 790 900 968 l 81 968 l 81 0 z m 300 789 l 544 789 b 871 482 708 789 871 722 b 526 179 871 203 636 179 l 300 179 z "},"Ð":{"ha":1136,"x_min":0,"x_max":0,"o":"m 81 968 l 81 546 l -33 546 l -33 425 l 81 425 l 81 0 l 568 0 b 1092 476 906 0 1092 168 b 571 968 1092 790 900 968 z m 300 179 l 300 425 l 503 425 l 503 546 l 300 546 l 300 789 l 544 789 b 871 482 708 789 871 722 b 526 179 871 203 636 179 z "},"Ď":{"ha":1136,"x_min":0,"x_max":0,"o":"m 768 1251 l 629 1251 l 549 1167 l 471 1251 l 331 1251 l 549 1019 z m 568 0 b 1092 476 906 0 1092 168 b 571 968 1092 790 900 968 l 81 968 l 81 0 z m 300 789 l 544 789 b 871 482 708 789 871 722 b 526 179 871 203 636 179 l 300 179 z "},"Đ":{"ha":1136,"x_min":0,"x_max":0,"o":"m 81 968 l 81 546 l -33 546 l -33 425 l 81 425 l 81 0 l 568 0 b 1092 476 906 0 1092 168 b 571 968 1092 790 900 968 z m 300 179 l 300 425 l 503 425 l 503 546 l 300 546 l 300 789 l 544 789 b 871 482 708 789 871 722 b 526 179 871 203 636 179 z "},"E":{"ha":933,"x_min":0,"x_max":0,"o":"m 874 0 l 874 158 l 297 158 l 297 407 l 828 407 l 828 568 l 297 568 l 297 810 l 874 810 l 874 968 l 81 968 l 81 0 z "},"É":{"ha":933,"x_min":0,"x_max":0,"o":"m 543 1054 l 761 1251 l 567 1251 l 411 1054 z m 874 0 l 874 158 l 297 158 l 297 407 l 828 407 l 828 568 l 297 568 l 297 810 l 874 810 l 874 968 l 81 968 l 81 0 z "},"Ě":{"ha":933,"x_min":0,"x_max":0,"o":"m 696 1251 l 557 1251 l 476 1167 l 399 1251 l 258 1251 l 476 1019 z m 874 0 l 874 158 l 297 158 l 297 407 l 828 407 l 828 568 l 297 568 l 297 810 l 874 810 l 874 968 l 81 968 l 81 0 z "},"Ê":{"ha":933,"x_min":0,"x_max":0,"o":"m 397 1033 l 478 1125 l 557 1033 l 696 1033 l 478 1279 l 258 1033 z m 874 0 l 874 158 l 297 158 l 297 407 l 828 407 l 828 568 l 297 568 l 297 810 l 874 810 l 874 968 l 81 968 l 81 0 z "},"Ế":{"ha":933,"x_min":0,"x_max":0,"o":"m 543 1314 l 761 1511 l 567 1511 l 411 1314 z m 397 1033 l 478 1125 l 557 1033 l 696 1033 l 478 1279 l 258 1033 z m 874 0 l 874 158 l 297 158 l 297 407 l 828 407 l 828 568 l 297 568 l 297 810 l 874 810 l 874 968 l 81 968 l 81 0 z "},"Ệ":{"ha":933,"x_min":0,"x_max":0,"o":"m 397 1033 l 478 1125 l 557 1033 l 696 1033 l 478 1279 l 258 1033 z m 874 0 l 874 158 l 297 158 l 297 407 l 828 407 l 828 568 l 297 568 l 297 810 l 874 810 l 874 968 l 81 968 l 81 0 z m 597 -262 l 597 -83 l 356 -83 l 356 -262 z "},"Ề":{"ha":933,"x_min":0,"x_max":0,"o":"m 544 1314 l 400 1511 l 207 1511 l 410 1314 z m 397 1033 l 478 1125 l 557 1033 l 696 1033 l 478 1279 l 258 1033 z m 874 0 l 874 158 l 297 158 l 297 407 l 828 407 l 828 568 l 297 568 l 297 810 l 874 810 l 874 968 l 81 968 l 81 0 z "},"Ể":{"ha":933,"x_min":0,"x_max":0,"o":"m 478 1125 l 557 1033 l 696 1033 l 492 1264 b 636 1394 563 1278 636 1307 b 401 1540 636 1489 542 1540 l 379 1540 l 379 1429 l 401 1429 b 508 1381 457 1429 508 1424 b 424 1331 508 1339 465 1338 l 444 1256 b 458 1258 449 1257 454 1257 l 258 1033 l 397 1033 z m 874 968 l 81 968 l 81 0 l 874 0 l 874 158 l 297 158 l 297 407 l 828 407 l 828 568 l 297 568 l 297 810 l 874 810 z "},"Ễ":{"ha":933,"x_min":0,"x_max":0,"o":"m 563 1313 b 711 1511 654 1313 711 1382 l 601 1511 b 565 1422 601 1453 586 1422 b 394 1514 521 1422 489 1514 b 243 1325 301 1514 243 1442 l 347 1325 b 386 1403 347 1372 363 1403 b 563 1313 433 1403 457 1313 z m 397 1033 l 478 1125 l 557 1033 l 696 1033 l 478 1279 l 258 1033 z m 874 0 l 874 158 l 297 158 l 297 407 l 828 407 l 828 568 l 297 568 l 297 810 l 874 810 l 874 968 l 81 968 l 81 0 z "},"Ë":{"ha":933,"x_min":0,"x_max":0,"o":"m 433 1072 l 433 1251 l 235 1251 l 235 1072 z m 721 1072 l 721 1251 l 522 1251 l 522 1072 z m 874 0 l 874 158 l 297 158 l 297 407 l 828 407 l 828 568 l 297 568 l 297 810 l 874 810 l 874 968 l 81 968 l 81 0 z "},"Ė":{"ha":933,"x_min":0,"x_max":0,"o":"m 600 1072 l 600 1251 l 356 1251 l 356 1072 z m 874 0 l 874 158 l 297 158 l 297 407 l 828 407 l 828 568 l 297 568 l 297 810 l 874 810 l 874 968 l 81 968 l 81 0 z "},"Ẹ":{"ha":933,"x_min":0,"x_max":0,"o":"m 874 0 l 874 158 l 297 158 l 297 407 l 828 407 l 828 568 l 297 568 l 297 810 l 874 810 l 874 968 l 81 968 l 81 0 z m 597 -262 l 597 -83 l 356 -83 l 356 -262 z "},"È":{"ha":933,"x_min":0,"x_max":0,"o":"m 544 1054 l 400 1251 l 207 1251 l 410 1054 z m 874 0 l 874 158 l 297 158 l 297 407 l 828 407 l 828 568 l 297 568 l 297 810 l 874 810 l 874 968 l 81 968 l 81 0 z "},"Ẻ":{"ha":933,"x_min":0,"x_max":0,"o":"m 444 996 b 636 1135 524 1008 636 1026 b 401 1281 636 1229 542 1281 l 379 1281 l 379 1169 l 401 1169 b 508 1121 457 1169 508 1164 b 424 1071 508 1079 465 1078 z m 874 0 l 874 158 l 297 158 l 297 407 l 828 407 l 828 568 l 297 568 l 297 810 l 874 810 l 874 968 l 81 968 l 81 0 z "},"Ē":{"ha":933,"x_min":0,"x_max":0,"o":"m 668 1060 l 668 1165 l 285 1165 l 285 1060 z m 874 0 l 874 158 l 297 158 l 297 407 l 828 407 l 828 568 l 297 568 l 297 810 l 874 810 l 874 968 l 81 968 l 81 0 z "},"Ę":{"ha":933,"x_min":0,"x_max":0,"o":"m 844 -161 b 778 -200 829 -185 808 -200 b 729 -147 751 -200 729 -187 b 874 0 729 -72 838 -14 l 874 158 l 297 158 l 297 407 l 828 407 l 828 568 l 297 568 l 297 810 l 874 810 l 874 968 l 81 968 l 81 0 l 729 0 b 621 -167 688 -24 621 -76 b 783 -311 621 -253 690 -311 b 938 -224 860 -311 906 -271 z "},"Ẽ":{"ha":933,"x_min":0,"x_max":0,"o":"m 563 1053 b 711 1251 654 1053 711 1122 l 601 1251 b 565 1163 601 1193 586 1163 b 394 1254 521 1163 489 1254 b 243 1065 301 1254 243 1182 l 347 1065 b 386 1143 347 1113 363 1143 b 563 1053 433 1143 457 1053 z m 874 0 l 874 158 l 297 158 l 297 407 l 828 407 l 828 568 l 297 568 l 297 810 l 874 810 l 874 968 l 81 968 l 81 0 z "},"F":{"ha":951,"x_min":0,"x_max":0,"o":"m 297 0 l 297 378 l 844 378 l 844 538 l 297 538 l 297 810 l 921 810 l 921 968 l 81 968 l 81 0 z "},"G":{"ha":1204,"x_min":0,"x_max":0,"o":"m 919 368 b 622 143 918 244 847 143 b 257 482 372 143 257 281 b 617 825 257 694 371 825 b 933 644 785 825 878 765 l 1139 708 b 619 989 1049 894 863 989 b 40 476 264 989 40 792 b 608 -21 40 185 247 -21 b 967 107 761 -21 890 15 l 979 0 l 1139 0 l 1139 524 l 669 524 l 669 368 z "},"Ğ":{"ha":1204,"x_min":0,"x_max":0,"o":"m 614 1043 b 860 1251 778 1043 860 1108 l 713 1251 b 614 1147 713 1168 669 1147 b 514 1251 560 1147 514 1168 l 367 1251 b 614 1043 367 1117 442 1043 z m 919 368 b 622 143 918 244 847 143 b 257 482 372 143 257 281 b 617 825 257 694 371 825 b 933 644 785 825 878 765 l 1139 708 b 619 989 1049 894 863 989 b 40 476 264 989 40 792 b 608 -21 40 185 247 -21 b 967 107 761 -21 890 15 l 979 0 l 1139 0 l 1139 524 l 669 524 l 669 368 z "},"Ģ":{"ha":1204,"x_min":0,"x_max":0,"o":"m 919 368 b 622 143 918 244 847 143 b 257 482 372 143 257 281 b 617 825 257 694 371 825 b 933 644 785 825 878 765 l 1139 708 b 619 989 1049 894 863 989 b 40 476 264 989 40 792 b 608 -21 40 185 247 -21 b 967 107 761 -21 890 15 l 979 0 l 1139 0 l 1139 524 l 669 524 l 669 368 z m 533 -315 l 704 -72 l 515 -72 l 428 -315 z "},"Ġ":{"ha":1204,"x_min":0,"x_max":0,"o":"m 490 1251 l 490 1072 l 735 1072 l 735 1251 z m 919 368 b 622 143 918 244 847 143 b 257 482 372 143 257 281 b 617 825 257 694 371 825 b 933 644 785 825 878 765 l 1139 708 b 619 989 1049 894 863 989 b 40 476 264 989 40 792 b 608 -21 40 185 247 -21 b 967 107 761 -21 890 15 l 979 0 l 1139 0 l 1139 524 l 669 524 l 669 368 z "},"H":{"ha":1096,"x_min":0,"x_max":0,"o":"m 297 0 l 297 392 l 799 392 l 799 0 l 1015 0 l 1015 968 l 799 968 l 799 583 l 297 583 l 297 968 l 81 968 l 81 0 z "},"Ħ":{"ha":1096,"x_min":0,"x_max":0,"o":"m 1015 819 l 1015 968 l 799 968 l 799 819 l 297 819 l 297 968 l 81 968 l 81 819 l 11 819 l 11 713 l 81 713 l 81 0 l 297 0 l 297 392 l 799 392 l 799 0 l 1015 0 l 1015 713 l 1086 713 l 1086 819 z m 297 583 l 297 713 l 799 713 l 799 583 z "},"I":{"ha":382,"x_min":0,"x_max":0,"o":"m 300 0 l 300 968 l 81 968 l 81 0 z "},"Í":{"ha":382,"x_min":0,"x_max":0,"o":"m 256 1054 l 474 1251 l 279 1251 l 124 1054 z m 300 0 l 300 968 l 81 968 l 81 0 z "},"Ǐ":{"ha":382,"x_min":0,"x_max":0,"o":"m 410 1251 l 271 1251 l 190 1167 l 113 1251 l -28 1251 l 190 1019 z m 300 0 l 300 968 l 81 968 l 81 0 z "},"Î":{"ha":382,"x_min":0,"x_max":0,"o":"m 111 1033 l 192 1125 l 271 1033 l 410 1033 l 192 1279 l -28 1033 z m 300 0 l 300 968 l 81 968 l 81 0 z "},"Ï":{"ha":382,"x_min":0,"x_max":0,"o":"m 146 1072 l 146 1251 l -53 1251 l -53 1072 z m 433 1072 l 433 1251 l 235 1251 l 235 1072 z m 300 0 l 300 968 l 81 968 l 81 0 z "},"İ":{"ha":382,"x_min":0,"x_max":0,"o":"m 314 1072 l 314 1251 l 69 1251 l 69 1072 z m 300 0 l 300 968 l 81 968 l 81 0 z "},"Ị":{"ha":382,"x_min":0,"x_max":0,"o":"m 300 0 l 300 968 l 81 968 l 81 0 z m 311 -262 l 311 -83 l 69 -83 l 69 -262 z "},"Ì":{"ha":382,"x_min":0,"x_max":0,"o":"m 258 1054 l 114 1251 l -79 1251 l 124 1054 z m 300 0 l 300 968 l 81 968 l 81 0 z "},"Ỉ":{"ha":382,"x_min":0,"x_max":0,"o":"m 158 996 b 350 1135 238 1008 350 1026 b 115 1281 350 1229 256 1281 l 93 1281 l 93 1169 l 115 1169 b 222 1121 171 1169 222 1164 b 138 1071 222 1079 179 1078 z m 300 0 l 300 968 l 81 968 l 81 0 z "},"Ī":{"ha":382,"x_min":0,"x_max":0,"o":"m 382 1060 l 382 1165 l -1 1165 l -1 1060 z m 300 0 l 300 968 l 81 968 l 81 0 z "},"Į":{"ha":382,"x_min":0,"x_max":0,"o":"m 271 -161 b 204 -200 256 -185 235 -200 b 156 -147 178 -200 156 -187 b 300 0 156 -72 264 -14 l 300 968 l 81 968 l 81 0 l 156 0 b 47 -167 114 -24 47 -76 b 210 -311 47 -253 117 -311 b 364 -224 286 -311 332 -271 z "},"Ĩ":{"ha":382,"x_min":0,"x_max":0,"o":"m 276 1053 b 425 1251 368 1053 425 1122 l 315 1251 b 279 1163 315 1193 300 1163 b 108 1254 235 1163 203 1254 b -43 1065 15 1254 -43 1182 l 61 1065 b 100 1143 61 1113 76 1143 b 276 1053 147 1143 171 1053 z m 300 0 l 300 968 l 81 968 l 81 0 z "},"J":{"ha":935,"x_min":0,"x_max":0,"o":"m 440 -21 b 863 336 708 -21 863 114 l 863 968 l 254 968 l 254 789 l 644 789 l 644 367 b 440 160 644 246 590 160 b 232 342 307 160 240 222 l 17 301 b 440 -21 35 100 186 -21 z "},"K":{"ha":1115,"x_min":0,"x_max":0,"o":"m 633 588 l 1096 968 l 793 968 l 297 540 l 297 968 l 81 968 l 81 0 l 297 0 l 297 311 l 479 460 l 842 0 l 1107 0 z "},"Ķ":{"ha":1115,"x_min":0,"x_max":0,"o":"m 1096 968 l 793 968 l 297 540 l 297 968 l 81 968 l 81 0 l 297 0 l 297 311 l 479 460 l 842 0 l 1107 0 l 633 588 z m 449 -315 l 619 -72 l 431 -72 l 343 -315 z "},"L":{"ha":811,"x_min":0,"x_max":0,"o":"m 794 0 l 794 179 l 297 179 l 297 968 l 81 968 l 81 0 z "},"Ĺ":{"ha":811,"x_min":0,"x_max":0,"o":"m 244 1054 l 463 1251 l 268 1251 l 113 1054 z m 794 0 l 794 179 l 297 179 l 297 968 l 81 968 l 81 0 z "},"Ľ":{"ha":811,"x_min":0,"x_max":0,"o":"m 794 0 l 794 179 l 297 179 l 297 968 l 81 968 l 81 0 z m 649 651 l 811 968 l 621 968 l 543 651 z "},"Ļ":{"ha":811,"x_min":0,"x_max":0,"o":"m 794 0 l 794 179 l 297 179 l 297 968 l 81 968 l 81 0 z m 361 -315 l 532 -72 l 343 -72 l 256 -315 z "},"Ł":{"ha":811,"x_min":0,"x_max":0,"o":"m 297 354 l 572 525 l 572 708 l 297 539 l 297 968 l 81 968 l 81 404 l 6 358 l 6 172 l 81 219 l 81 0 l 794 0 l 794 179 l 297 179 z "},"M":{"ha":1375,"x_min":0,"x_max":0,"o":"m 686 318 l 371 968 l 82 968 l 82 0 l 299 0 l 299 686 l 593 86 l 783 86 l 1078 692 l 1078 0 l 1294 0 l 1294 968 l 1003 968 z "},"N":{"ha":1096,"x_min":0,"x_max":0,"o":"m 797 319 l 283 968 l 81 968 l 81 0 l 297 0 l 297 651 l 811 0 l 1015 0 l 1015 968 l 797 968 z "},"Ń":{"ha":1096,"x_min":0,"x_max":0,"o":"m 631 1251 l 475 1054 l 607 1054 l 825 1251 z m 797 319 l 283 968 l 81 968 l 81 0 l 297 0 l 297 651 l 811 0 l 1015 0 l 1015 968 l 797 968 z "},"Ň":{"ha":1096,"x_min":0,"x_max":0,"o":"m 621 1251 l 540 1167 l 463 1251 l 322 1251 l 540 1019 l 760 1251 z m 797 319 l 283 968 l 81 968 l 81 0 l 297 0 l 297 651 l 811 0 l 1015 0 l 1015 968 l 797 968 z "},"Ņ":{"ha":1096,"x_min":0,"x_max":0,"o":"m 797 319 l 283 968 l 81 968 l 81 0 l 297 0 l 297 651 l 811 0 l 1015 0 l 1015 968 l 797 968 z m 464 -315 l 635 -72 l 446 -72 l 358 -315 z "},"Ŋ":{"ha":1071,"x_min":0,"x_max":0,"o":"m 806 282 l 274 968 l 81 968 l 81 0 l 265 0 l 265 689 l 794 -1 b 813 -53 810 -21 813 -40 b 661 -143 813 -100 764 -143 b 589 -139 643 -143 615 -142 l 590 -242 b 710 -251 636 -249 679 -251 b 989 -1 914 -251 989 -131 l 989 968 l 806 968 z "},"Ñ":{"ha":1096,"x_min":0,"x_max":0,"o":"m 450 1143 b 626 1053 497 1143 521 1053 b 775 1251 718 1053 775 1122 l 665 1251 b 629 1163 665 1193 650 1163 b 458 1254 585 1163 553 1254 b 307 1065 365 1254 307 1182 l 411 1065 b 450 1143 411 1113 426 1143 z m 797 319 l 283 968 l 81 968 l 81 0 l 297 0 l 297 651 l 811 0 l 1015 0 l 1015 968 l 797 968 z "},"O":{"ha":1217,"x_min":0,"x_max":0,"o":"m 607 -21 b 1174 483 960 -21 1174 176 b 607 989 1174 792 964 989 b 42 483 254 989 42 789 b 607 -21 42 178 254 -21 z m 607 158 b 258 483 383 158 258 283 b 607 810 258 683 382 810 b 954 483 832 810 954 683 b 607 158 954 285 832 158 z "},"Ó":{"ha":1217,"x_min":0,"x_max":0,"o":"m 674 1054 l 892 1251 l 697 1251 l 542 1054 z m 607 -21 b 1174 483 960 -21 1174 176 b 607 989 1174 792 964 989 b 42 483 254 989 42 789 b 607 -21 42 178 254 -21 z m 607 158 b 258 483 383 158 258 283 b 607 810 258 683 382 810 b 954 483 832 810 954 683 b 607 158 954 285 832 158 z "},"Ǒ":{"ha":1217,"x_min":0,"x_max":0,"o":"m 828 1251 l 689 1251 l 608 1167 l 531 1251 l 390 1251 l 608 1019 z m 607 -21 b 1174 483 960 -21 1174 176 b 607 989 1174 792 964 989 b 42 483 254 989 42 789 b 607 -21 42 178 254 -21 z m 607 158 b 258 483 383 158 258 283 b 607 810 258 683 382 810 b 954 483 832 810 954 683 b 607 158 954 285 832 158 z "},"Ô":{"ha":1217,"x_min":0,"x_max":0,"o":"m 528 1033 l 608 1125 l 688 1033 l 826 1033 l 608 1279 l 389 1033 z m 607 -21 b 1174 483 960 -21 1174 176 b 607 989 1174 792 964 989 b 42 483 254 989 42 789 b 607 -21 42 178 254 -21 z m 607 158 b 258 483 383 158 258 283 b 607 810 258 683 382 810 b 954 483 832 810 954 683 b 607 158 954 285 832 158 z "},"Ố":{"ha":1217,"x_min":0,"x_max":0,"o":"m 674 1314 l 892 1511 l 697 1511 l 542 1314 z m 528 1033 l 608 1125 l 688 1033 l 826 1033 l 608 1279 l 389 1033 z m 607 -21 b 1174 483 960 -21 1174 176 b 607 989 1174 792 964 989 b 42 483 254 989 42 789 b 607 -21 42 178 254 -21 z m 607 158 b 258 483 383 158 258 283 b 607 810 258 683 382 810 b 954 483 832 810 954 683 b 607 158 954 285 832 158 z "},"Ộ":{"ha":1217,"x_min":0,"x_max":0,"o":"m 528 1033 l 608 1125 l 688 1033 l 826 1033 l 608 1279 l 389 1033 z m 607 -21 b 1174 483 960 -21 1174 176 b 607 989 1174 792 964 989 b 42 483 254 989 42 789 b 607 -21 42 178 254 -21 z m 607 158 b 258 483 383 158 258 283 b 607 810 258 683 382 810 b 954 483 832 810 954 683 b 607 158 954 285 832 158 z m 729 -262 l 729 -83 l 488 -83 l 488 -262 z "},"Ồ":{"ha":1217,"x_min":0,"x_max":0,"o":"m 675 1314 l 531 1511 l 338 1511 l 540 1314 z m 528 1033 l 608 1125 l 688 1033 l 826 1033 l 608 1279 l 389 1033 z m 607 -21 b 1174 483 960 -21 1174 176 b 607 989 1174 792 964 989 b 42 483 254 989 42 789 b 607 -21 42 178 254 -21 z m 607 158 b 258 483 383 158 258 283 b 607 810 258 683 382 810 b 954 483 832 810 954 683 b 607 158 954 285 832 158 z "},"Ổ":{"ha":1217,"x_min":0,"x_max":0,"o":"m 608 1125 l 688 1033 l 826 1033 l 622 1264 b 767 1394 693 1278 767 1307 b 532 1540 767 1489 672 1540 l 510 1540 l 510 1429 l 532 1429 b 639 1381 588 1429 639 1424 b 554 1331 639 1339 596 1338 l 575 1256 b 589 1258 579 1257 585 1257 l 389 1033 l 528 1033 z m 607 989 b 42 483 254 989 42 789 b 607 -21 42 178 254 -21 b 1174 483 960 -21 1174 176 b 607 989 1174 792 964 989 z m 607 158 b 258 483 383 158 258 283 b 607 810 258 683 382 810 b 954 483 832 810 954 683 b 607 158 954 285 832 158 z "},"Ỗ":{"ha":1217,"x_min":0,"x_max":0,"o":"m 693 1313 b 842 1511 785 1313 842 1382 l 732 1511 b 696 1422 732 1453 717 1422 b 525 1514 651 1422 619 1514 b 374 1325 432 1514 374 1442 l 478 1325 b 517 1403 478 1372 493 1403 b 693 1313 564 1403 588 1313 z m 528 1033 l 608 1125 l 688 1033 l 826 1033 l 608 1279 l 389 1033 z m 607 -21 b 1174 483 960 -21 1174 176 b 607 989 1174 792 964 989 b 42 483 254 989 42 789 b 607 -21 42 178 254 -21 z m 607 158 b 258 483 383 158 258 283 b 607 810 258 683 382 810 b 954 483 832 810 954 683 b 607 158 954 285 832 158 z "},"Ö":{"ha":1217,"x_min":0,"x_max":0,"o":"m 564 1072 l 564 1251 l 365 1251 l 365 1072 z m 851 1072 l 851 1251 l 653 1251 l 653 1072 z m 607 -21 b 1174 483 960 -21 1174 176 b 607 989 1174 792 964 989 b 42 483 254 989 42 789 b 607 -21 42 178 254 -21 z m 607 158 b 258 483 383 158 258 283 b 607 810 258 683 382 810 b 954 483 832 810 954 683 b 607 158 954 285 832 158 z "},"Ọ":{"ha":1217,"x_min":0,"x_max":0,"o":"m 607 -21 b 1174 483 960 -21 1174 176 b 607 989 1174 792 964 989 b 42 483 254 989 42 789 b 607 -21 42 178 254 -21 z m 607 158 b 258 483 383 158 258 283 b 607 810 258 683 382 810 b 954 483 832 810 954 683 b 607 158 954 285 832 158 z m 729 -262 l 729 -83 l 488 -83 l 488 -262 z "},"Ò":{"ha":1217,"x_min":0,"x_max":0,"o":"m 675 1054 l 531 1251 l 338 1251 l 540 1054 z m 607 -21 b 1174 483 960 -21 1174 176 b 607 989 1174 792 964 989 b 42 483 254 989 42 789 b 607 -21 42 178 254 -21 z m 607 158 b 258 483 383 158 258 283 b 607 810 258 683 382 810 b 954 483 832 810 954 683 b 607 158 954 285 832 158 z "},"Ỏ":{"ha":1217,"x_min":0,"x_max":0,"o":"m 575 996 b 767 1135 654 1008 767 1026 b 532 1281 767 1229 672 1281 l 510 1281 l 510 1169 l 532 1169 b 639 1121 588 1169 639 1164 b 554 1071 639 1079 596 1078 z m 607 -21 b 1174 483 960 -21 1174 176 b 607 989 1174 792 964 989 b 42 483 254 989 42 789 b 607 -21 42 178 254 -21 z m 607 158 b 258 483 383 158 258 283 b 607 810 258 683 382 810 b 954 483 832 810 954 683 b 607 158 954 285 832 158 z "},"Ơ":{"ha":1217,"x_min":0,"x_max":0,"o":"m 1217 1040 l 1092 1040 l 1092 999 b 996 875 1092 919 1068 876 b 607 989 900 949 769 989 b 42 483 254 989 42 789 b 607 -21 42 178 254 -21 b 1174 483 960 -21 1174 176 b 1093 772 1174 596 1146 694 b 1217 989 1181 808 1217 893 z m 607 158 b 258 483 383 158 258 283 b 607 810 258 683 382 810 b 954 483 832 810 954 683 b 607 158 954 285 832 158 z "},"Ớ":{"ha":1217,"x_min":0,"x_max":0,"o":"m 697 1251 l 542 1054 l 674 1054 l 892 1251 z m 1217 1040 l 1092 1040 l 1092 999 b 996 875 1092 919 1068 876 b 607 989 900 949 769 989 b 42 483 254 989 42 789 b 607 -21 42 178 254 -21 b 1174 483 960 -21 1174 176 b 1093 772 1174 596 1146 694 b 1217 989 1181 808 1217 893 z m 607 158 b 258 483 383 158 258 283 b 607 810 258 683 382 810 b 954 483 832 810 954 683 b 607 158 954 285 832 158 z "},"Ợ":{"ha":1217,"x_min":0,"x_max":0,"o":"m 1217 1040 l 1092 1040 l 1092 999 b 996 875 1092 919 1068 876 b 607 989 900 949 769 989 b 42 483 254 989 42 789 b 607 -21 42 178 254 -21 b 1174 483 960 -21 1174 176 b 1093 772 1174 596 1146 694 b 1217 989 1181 808 1217 893 z m 607 158 b 258 483 383 158 258 283 b 607 810 258 683 382 810 b 954 483 832 810 954 683 b 607 158 954 285 832 158 z m 729 -262 l 729 -83 l 488 -83 l 488 -262 z "},"Ờ":{"ha":1217,"x_min":0,"x_max":0,"o":"m 531 1251 l 338 1251 l 540 1054 l 675 1054 z m 1217 1040 l 1092 1040 l 1092 999 b 996 875 1092 919 1068 876 b 607 989 900 949 769 989 b 42 483 254 989 42 789 b 607 -21 42 178 254 -21 b 1174 483 960 -21 1174 176 b 1093 772 1174 596 1146 694 b 1217 989 1181 808 1217 893 z m 607 158 b 258 483 383 158 258 283 b 607 810 258 683 382 810 b 954 483 832 810 954 683 b 607 158 954 285 832 158 z "},"Ở":{"ha":1217,"x_min":0,"x_max":0,"o":"m 639 1121 b 554 1071 639 1079 596 1078 l 575 996 b 767 1135 654 1008 767 1026 b 532 1281 767 1229 672 1281 l 510 1281 l 510 1169 l 532 1169 b 639 1121 588 1169 639 1164 z m 1217 1040 l 1092 1040 l 1092 999 b 996 875 1092 919 1068 876 b 607 989 900 949 769 989 b 42 483 254 989 42 789 b 607 -21 42 178 254 -21 b 1174 483 960 -21 1174 176 b 1093 772 1174 596 1146 694 b 1217 989 1181 808 1217 893 z m 607 158 b 258 483 383 158 258 283 b 607 810 258 683 382 810 b 954 483 832 810 954 683 b 607 158 954 285 832 158 z "},"Ỡ":{"ha":1217,"x_min":0,"x_max":0,"o":"m 517 1143 b 693 1053 564 1143 588 1053 b 842 1251 785 1053 842 1122 l 732 1251 b 696 1163 732 1193 717 1163 b 525 1254 651 1163 619 1254 b 374 1065 432 1254 374 1182 l 478 1065 b 517 1143 478 1113 493 1143 z m 1217 1040 l 1092 1040 l 1092 999 b 996 875 1092 919 1068 876 b 607 989 900 949 769 989 b 42 483 254 989 42 789 b 607 -21 42 178 254 -21 b 1174 483 960 -21 1174 176 b 1093 772 1174 596 1146 694 b 1217 989 1181 808 1217 893 z m 607 158 b 258 483 383 158 258 283 b 607 810 258 683 382 810 b 954 483 832 810 954 683 b 607 158 954 285 832 158 z "},"Ő":{"ha":1217,"x_min":0,"x_max":0,"o":"m 538 1021 l 724 1251 l 561 1251 l 406 1021 z m 810 1021 l 1026 1251 l 833 1251 l 679 1021 z m 607 -21 b 1174 483 960 -21 1174 176 b 607 989 1174 792 964 989 b 42 483 254 989 42 789 b 607 -21 42 178 254 -21 z m 607 158 b 258 483 383 158 258 283 b 607 810 258 683 382 810 b 954 483 832 810 954 683 b 607 158 954 285 832 158 z "},"Ō":{"ha":1217,"x_min":0,"x_max":0,"o":"m 800 1060 l 800 1165 l 417 1165 l 417 1060 z m 607 -21 b 1174 483 960 -21 1174 176 b 607 989 1174 792 964 989 b 42 483 254 989 42 789 b 607 -21 42 178 254 -21 z m 607 158 b 258 483 383 158 258 283 b 607 810 258 683 382 810 b 954 483 832 810 954 683 b 607 158 954 285 832 158 z "},"Ø":{"ha":1217,"x_min":0,"x_max":0,"o":"m 1039 968 l 917 968 l 892 936 b 607 989 813 971 717 989 b 42 483 254 989 42 789 b 239 79 42 308 113 167 l 178 0 l 303 0 l 326 32 b 607 -21 406 -3 500 -21 b 1174 483 960 -21 1174 176 b 978 888 1174 660 1104 800 z m 258 483 b 607 810 258 683 382 810 b 774 781 671 810 726 800 l 358 238 b 258 483 293 293 258 378 z m 607 158 b 444 186 544 158 490 168 l 857 729 b 954 483 921 672 954 588 b 607 158 954 285 832 158 z "},"Õ":{"ha":1217,"x_min":0,"x_max":0,"o":"m 693 1053 b 842 1251 785 1053 842 1122 l 732 1251 b 696 1163 732 1193 717 1163 b 525 1254 651 1163 619 1254 b 374 1065 432 1254 374 1182 l 478 1065 b 517 1143 478 1113 493 1143 b 693 1053 564 1143 588 1053 z m 607 -21 b 1174 483 960 -21 1174 176 b 607 989 1174 792 964 989 b 42 483 254 989 42 789 b 607 -21 42 178 254 -21 z m 607 158 b 258 483 383 158 258 283 b 607 810 258 683 382 810 b 954 483 832 810 954 683 b 607 158 954 285 832 158 z "},"Œ":{"ha":1811,"x_min":0,"x_max":0,"o":"m 1751 968 l 958 968 l 958 901 b 607 989 867 958 749 989 b 42 483 254 989 42 789 b 607 -21 42 178 254 -21 b 958 68 747 -21 867 11 l 958 0 l 1751 0 l 1751 158 l 1176 158 l 1176 407 l 1706 407 l 1706 568 l 1176 568 l 1176 810 l 1751 810 z m 607 158 b 258 483 383 158 258 283 b 607 810 258 683 382 810 b 954 483 832 810 954 683 b 607 158 954 285 832 158 z "},"P":{"ha":1008,"x_min":0,"x_max":0,"o":"m 297 0 l 297 368 l 583 368 b 974 672 788 368 974 418 b 583 968 974 917 797 968 l 81 968 l 81 0 z m 297 810 l 575 810 b 756 669 656 810 756 797 b 575 528 756 542 657 528 l 297 528 z "},"Þ":{"ha":1008,"x_min":0,"x_max":0,"o":"m 297 814 l 297 968 l 81 968 l 81 0 l 297 0 l 297 214 l 583 214 b 974 517 788 214 974 263 b 583 814 974 775 776 814 z m 297 375 l 297 654 l 575 654 b 756 517 656 654 756 642 b 575 375 756 386 657 375 z "},"Q":{"ha":1226,"x_min":0,"x_max":0,"o":"m 1169 74 l 1068 160 b 1174 483 1138 242 1174 357 b 607 989 1174 792 963 989 b 43 483 256 989 43 790 b 607 -21 43 176 256 -21 b 944 63 742 -21 856 8 l 1067 -36 z m 607 143 b 260 483 383 143 260 274 b 607 825 260 693 383 825 b 956 483 831 825 956 693 b 903 282 956 403 938 333 l 685 467 l 571 358 l 776 185 b 607 143 728 157 668 143 z "},"R":{"ha":1033,"x_min":0,"x_max":0,"o":"m 751 385 b 974 672 879 414 974 492 b 583 968 974 917 797 968 l 81 968 l 81 0 l 297 0 l 297 368 l 533 368 l 753 0 l 1000 0 z m 575 810 b 756 669 656 810 756 797 b 575 528 756 542 657 528 l 297 528 l 297 810 z "},"Ŕ":{"ha":1033,"x_min":0,"x_max":0,"o":"m 590 1251 l 435 1054 l 567 1054 l 785 1251 z m 751 385 b 974 672 879 414 974 492 b 583 968 974 917 797 968 l 81 968 l 81 0 l 297 0 l 297 368 l 533 368 l 753 0 l 1000 0 z m 575 810 b 756 669 656 810 756 797 b 575 528 756 542 657 528 l 297 528 l 297 810 z "},"Ř":{"ha":1033,"x_min":0,"x_max":0,"o":"m 581 1251 l 500 1167 l 422 1251 l 282 1251 l 500 1019 l 719 1251 z m 751 385 b 974 672 879 414 974 492 b 583 968 974 917 797 968 l 81 968 l 81 0 l 297 0 l 297 368 l 533 368 l 753 0 l 1000 0 z m 575 810 b 756 669 656 810 756 797 b 575 528 756 542 657 528 l 297 528 l 297 810 z "},"Ŗ":{"ha":1033,"x_min":0,"x_max":0,"o":"m 751 385 b 974 672 879 414 974 492 b 583 968 974 917 797 968 l 81 968 l 81 0 l 297 0 l 297 368 l 533 368 l 753 0 l 1000 0 z m 575 810 b 756 669 656 810 756 797 b 575 528 756 542 657 528 l 297 528 l 297 810 z m 424 -315 l 594 -72 l 406 -72 l 318 -315 z "},"S":{"ha":1026,"x_min":0,"x_max":0,"o":"m 558 -21 b 985 289 853 -21 985 107 b 565 596 985 519 740 564 b 318 719 386 628 318 651 b 486 825 318 788 378 825 b 794 707 608 825 721 782 l 938 825 b 501 989 821 939 688 989 b 100 699 257 989 100 882 b 511 401 100 475 301 435 b 768 268 696 371 768 346 b 560 143 768 185 697 143 b 239 318 407 143 288 200 l 25 275 b 558 -21 89 100 222 -21 z "},"Ś":{"ha":1026,"x_min":0,"x_max":0,"o":"m 578 1054 l 796 1251 l 601 1251 l 446 1054 z m 558 -21 b 985 289 853 -21 985 107 b 565 596 985 519 740 564 b 318 719 386 628 318 651 b 486 825 318 788 378 825 b 794 707 608 825 721 782 l 938 825 b 501 989 821 939 688 989 b 100 699 257 989 100 882 b 511 401 100 475 301 435 b 768 268 696 371 768 346 b 560 143 768 185 697 143 b 239 318 407 143 288 200 l 25 275 b 558 -21 89 100 222 -21 z "},"Š":{"ha":1026,"x_min":0,"x_max":0,"o":"m 732 1251 l 593 1251 l 513 1167 l 435 1251 l 294 1251 l 513 1019 z m 558 -21 b 985 289 853 -21 985 107 b 565 596 985 519 740 564 b 318 719 386 628 318 651 b 486 825 318 788 378 825 b 794 707 608 825 721 782 l 938 825 b 501 989 821 939 688 989 b 100 699 257 989 100 882 b 511 401 100 475 301 435 b 768 268 696 371 768 346 b 560 143 768 185 697 143 b 239 318 407 143 288 200 l 25 275 b 558 -21 89 100 222 -21 z "},"Ş":{"ha":1026,"x_min":0,"x_max":0,"o":"m 558 -21 b 985 289 853 -21 985 107 b 565 596 985 519 740 564 b 318 719 386 628 318 651 b 486 825 318 788 378 825 b 794 707 608 825 721 782 l 938 825 b 501 989 821 939 688 989 b 100 699 257 989 100 882 b 511 401 100 475 301 435 b 768 268 696 371 768 346 b 560 143 768 185 697 143 b 239 318 407 143 288 200 l 25 275 b 449 -15 82 121 192 8 l 374 -133 b 476 -143 413 -133 446 -135 b 532 -206 508 -153 532 -171 b 476 -257 532 -239 508 -257 b 415 -232 456 -257 433 -247 l 358 -319 b 471 -360 400 -351 446 -360 b 636 -197 571 -360 636 -289 b 585 -92 636 -154 621 -117 b 513 -64 565 -79 542 -69 l 549 -21 z "},"Ș":{"ha":1026,"x_min":0,"x_max":0,"o":"m 558 -21 b 985 289 853 -21 985 107 b 565 596 985 519 740 564 b 318 719 386 628 318 651 b 486 825 318 788 378 825 b 794 707 608 825 721 782 l 938 825 b 501 989 821 939 688 989 b 100 699 257 989 100 882 b 511 401 100 475 301 435 b 768 268 696 371 768 346 b 560 143 768 185 697 143 b 239 318 407 143 288 200 l 25 275 b 558 -21 89 100 222 -21 z m 436 -315 l 607 -72 l 418 -72 l 331 -315 z "},"ẞ":{"ha":1321,"x_min":0,"x_max":0,"o":"m 875 583 b 653 710 736 608 653 631 b 781 811 653 776 714 811 l 1136 811 l 1136 968 l 81 968 l 81 0 l 297 0 l 297 811 l 461 811 b 435 699 444 779 435 742 b 819 396 435 489 633 428 b 1064 265 960 371 1064 351 b 853 133 1064 185 996 133 b 572 293 721 133 604 186 l 371 214 b 836 -21 438 69 617 -21 b 1279 289 1104 -21 1279 106 b 875 583 1279 517 1044 553 z "},"T":{"ha":994,"x_min":0,"x_max":0,"o":"m 607 0 l 607 789 l 979 789 l 979 968 l 17 968 l 17 789 l 388 789 l 388 0 z "},"Ŧ":{"ha":994,"x_min":0,"x_max":0,"o":"m 979 968 l 17 968 l 17 789 l 388 789 l 388 546 l 228 546 l 228 425 l 388 425 l 388 0 l 607 0 l 607 425 l 764 425 l 764 546 l 607 546 l 607 789 l 979 789 z "},"Ť":{"ha":994,"x_min":0,"x_max":0,"o":"m 714 1251 l 575 1251 l 494 1167 l 417 1251 l 276 1251 l 494 1019 z m 607 0 l 607 789 l 979 789 l 979 968 l 17 968 l 17 789 l 388 789 l 388 0 z "},"Ţ":{"ha":994,"x_min":0,"x_max":0,"o":"m 607 789 l 979 789 l 979 968 l 17 968 l 17 789 l 388 789 l 388 0 l 442 0 l 357 -133 b 460 -143 396 -133 429 -135 b 515 -206 492 -153 515 -171 b 460 -257 515 -239 492 -257 b 399 -232 439 -257 417 -247 l 342 -319 b 454 -360 383 -351 429 -360 b 619 -197 554 -360 619 -289 b 568 -92 619 -154 604 -117 b 496 -64 549 -79 525 -69 l 549 0 l 607 0 z "},"Ț":{"ha":994,"x_min":0,"x_max":0,"o":"m 607 0 l 607 789 l 979 789 l 979 968 l 17 968 l 17 789 l 388 789 l 388 0 z m 419 -315 l 590 -72 l 401 -72 l 314 -315 z "},"U":{"ha":1085,"x_min":0,"x_max":0,"o":"m 542 -21 b 1014 357 851 -21 1014 108 l 1014 968 l 796 968 l 796 400 b 542 169 796 268 735 169 b 288 400 346 169 288 271 l 288 968 l 71 968 l 71 350 b 542 -21 71 106 232 -21 z "},"Ú":{"ha":1085,"x_min":0,"x_max":0,"o":"m 607 1054 l 825 1251 l 631 1251 l 475 1054 z m 542 -21 b 1014 357 851 -21 1014 108 l 1014 968 l 796 968 l 796 400 b 542 169 796 268 735 169 b 288 400 346 169 288 271 l 288 968 l 71 968 l 71 350 b 542 -21 71 106 232 -21 z "},"Ǔ":{"ha":1085,"x_min":0,"x_max":0,"o":"m 760 1251 l 621 1251 l 540 1167 l 463 1251 l 322 1251 l 540 1019 z m 542 -21 b 1014 357 851 -21 1014 108 l 1014 968 l 796 968 l 796 400 b 542 169 796 268 735 169 b 288 400 346 169 288 271 l 288 968 l 71 968 l 71 350 b 542 -21 71 106 232 -21 z "},"Û":{"ha":1085,"x_min":0,"x_max":0,"o":"m 461 1033 l 542 1125 l 621 1033 l 760 1033 l 542 1279 l 322 1033 z m 542 -21 b 1014 357 851 -21 1014 108 l 1014 968 l 796 968 l 796 400 b 542 169 796 268 735 169 b 288 400 346 169 288 271 l 288 968 l 71 968 l 71 350 b 542 -21 71 106 232 -21 z "},"Ü":{"ha":1085,"x_min":0,"x_max":0,"o":"m 497 1072 l 497 1251 l 299 1251 l 299 1072 z m 785 1072 l 785 1251 l 586 1251 l 586 1072 z m 542 -21 b 1014 357 851 -21 1014 108 l 1014 968 l 796 968 l 796 400 b 542 169 796 268 735 169 b 288 400 346 169 288 271 l 288 968 l 71 968 l 71 350 b 542 -21 71 106 232 -21 z "},"Ǘ":{"ha":1085,"x_min":0,"x_max":0,"o":"m 607 1338 l 825 1535 l 631 1535 l 475 1338 z m 497 1072 l 497 1251 l 299 1251 l 299 1072 z m 785 1072 l 785 1251 l 586 1251 l 586 1072 z m 542 -21 b 1014 357 851 -21 1014 108 l 1014 968 l 796 968 l 796 400 b 542 169 796 268 735 169 b 288 400 346 169 288 271 l 288 968 l 71 968 l 71 350 b 542 -21 71 106 232 -21 z "},"Ǚ":{"ha":1085,"x_min":0,"x_max":0,"o":"m 760 1535 l 621 1535 l 540 1450 l 463 1535 l 322 1535 l 540 1303 z m 497 1072 l 497 1251 l 299 1251 l 299 1072 z m 785 1072 l 785 1251 l 586 1251 l 586 1072 z m 542 -21 b 1014 357 851 -21 1014 108 l 1014 968 l 796 968 l 796 400 b 542 169 796 268 735 169 b 288 400 346 169 288 271 l 288 968 l 71 968 l 71 350 b 542 -21 71 106 232 -21 z "},"Ǜ":{"ha":1085,"x_min":0,"x_max":0,"o":"m 608 1338 l 464 1535 l 271 1535 l 474 1338 z m 497 1072 l 497 1251 l 299 1251 l 299 1072 z m 785 1072 l 785 1251 l 586 1251 l 586 1072 z m 542 -21 b 1014 357 851 -21 1014 108 l 1014 968 l 796 968 l 796 400 b 542 169 796 268 735 169 b 288 400 346 169 288 271 l 288 968 l 71 968 l 71 350 b 542 -21 71 106 232 -21 z "},"Ǖ":{"ha":1085,"x_min":0,"x_max":0,"o":"m 733 1343 l 733 1449 l 350 1449 l 350 1343 z m 497 1072 l 497 1251 l 299 1251 l 299 1072 z m 785 1072 l 785 1251 l 586 1251 l 586 1072 z m 542 -21 b 1014 357 851 -21 1014 108 l 1014 968 l 796 968 l 796 400 b 542 169 796 268 735 169 b 288 400 346 169 288 271 l 288 968 l 71 968 l 71 350 b 542 -21 71 106 232 -21 z "},"Ụ":{"ha":1085,"x_min":0,"x_max":0,"o":"m 542 -21 b 1014 357 851 -21 1014 108 l 1014 968 l 796 968 l 796 400 b 542 169 796 268 735 169 b 288 400 346 169 288 271 l 288 968 l 71 968 l 71 350 b 542 -21 71 106 232 -21 z m 663 -262 l 663 -83 l 421 -83 l 421 -262 z "},"Ù":{"ha":1085,"x_min":0,"x_max":0,"o":"m 608 1054 l 464 1251 l 271 1251 l 474 1054 z m 542 -21 b 1014 357 851 -21 1014 108 l 1014 968 l 796 968 l 796 400 b 542 169 796 268 735 169 b 288 400 346 169 288 271 l 288 968 l 71 968 l 71 350 b 542 -21 71 106 232 -21 z "},"Ủ":{"ha":1085,"x_min":0,"x_max":0,"o":"m 508 996 b 700 1135 588 1008 700 1026 b 465 1281 700 1229 606 1281 l 443 1281 l 443 1169 l 465 1169 b 572 1121 521 1169 572 1164 b 488 1071 572 1079 529 1078 z m 542 -21 b 1014 357 851 -21 1014 108 l 1014 968 l 796 968 l 796 400 b 542 169 796 268 735 169 b 288 400 346 169 288 271 l 288 968 l 71 968 l 71 350 b 542 -21 71 106 232 -21 z "},"Ư":{"ha":1085,"x_min":0,"x_max":0,"o":"m 1083 926 b 1014 806 1083 858 1065 815 l 1014 968 l 796 968 l 796 400 b 542 169 796 268 735 169 b 288 400 346 169 288 271 l 288 968 l 71 968 l 71 350 b 542 -21 71 106 232 -21 b 1014 357 851 -21 1014 108 l 1014 685 b 1208 917 1153 696 1208 799 l 1208 968 l 1083 968 z "},"Ứ":{"ha":1085,"x_min":0,"x_max":0,"o":"m 631 1251 l 475 1054 l 607 1054 l 825 1251 z m 1083 926 b 1014 806 1083 858 1065 815 l 1014 968 l 796 968 l 796 400 b 542 169 796 268 735 169 b 288 400 346 169 288 271 l 288 968 l 71 968 l 71 350 b 542 -21 71 106 232 -21 b 1014 357 851 -21 1014 108 l 1014 685 b 1208 917 1153 696 1208 799 l 1208 968 l 1083 968 z "},"Ự":{"ha":1085,"x_min":0,"x_max":0,"o":"m 1083 926 b 1014 806 1083 858 1065 815 l 1014 968 l 796 968 l 796 400 b 542 169 796 268 735 169 b 288 400 346 169 288 271 l 288 968 l 71 968 l 71 350 b 542 -21 71 106 232 -21 b 1014 357 851 -21 1014 108 l 1014 685 b 1208 917 1153 696 1208 799 l 1208 968 l 1083 968 z m 663 -262 l 663 -83 l 421 -83 l 421 -262 z "},"Ừ":{"ha":1085,"x_min":0,"x_max":0,"o":"m 464 1251 l 271 1251 l 474 1054 l 608 1054 z m 1083 926 b 1014 806 1083 858 1065 815 l 1014 968 l 796 968 l 796 400 b 542 169 796 268 735 169 b 288 400 346 169 288 271 l 288 968 l 71 968 l 71 350 b 542 -21 71 106 232 -21 b 1014 357 851 -21 1014 108 l 1014 685 b 1208 917 1153 696 1208 799 l 1208 968 l 1083 968 z "},"Ử":{"ha":1085,"x_min":0,"x_max":0,"o":"m 572 1121 b 488 1071 572 1079 529 1078 l 508 996 b 700 1135 588 1008 700 1026 b 465 1281 700 1229 606 1281 l 443 1281 l 443 1169 l 465 1169 b 572 1121 521 1169 572 1164 z m 1083 926 b 1014 806 1083 858 1065 815 l 1014 968 l 796 968 l 796 400 b 542 169 796 268 735 169 b 288 400 346 169 288 271 l 288 968 l 71 968 l 71 350 b 542 -21 71 106 232 -21 b 1014 357 851 -21 1014 108 l 1014 685 b 1208 917 1153 696 1208 799 l 1208 968 l 1083 968 z "},"Ữ":{"ha":1085,"x_min":0,"x_max":0,"o":"m 450 1143 b 626 1053 497 1143 521 1053 b 775 1251 718 1053 775 1122 l 665 1251 b 629 1163 665 1193 650 1163 b 458 1254 585 1163 553 1254 b 307 1065 365 1254 307 1182 l 411 1065 b 450 1143 411 1113 426 1143 z m 1083 926 b 1014 806 1083 858 1065 815 l 1014 968 l 796 968 l 796 400 b 542 169 796 268 735 169 b 288 400 346 169 288 271 l 288 968 l 71 968 l 71 350 b 542 -21 71 106 232 -21 b 1014 357 851 -21 1014 108 l 1014 685 b 1208 917 1153 696 1208 799 l 1208 968 l 1083 968 z "},"Ű":{"ha":1085,"x_min":0,"x_max":0,"o":"m 471 1021 l 657 1251 l 494 1251 l 339 1021 z m 743 1021 l 960 1251 l 767 1251 l 613 1021 z m 542 -21 b 1014 357 851 -21 1014 108 l 1014 968 l 796 968 l 796 400 b 542 169 796 268 735 169 b 288 400 346 169 288 271 l 288 968 l 71 968 l 71 350 b 542 -21 71 106 232 -21 z "},"Ū":{"ha":1085,"x_min":0,"x_max":0,"o":"m 733 1060 l 733 1165 l 350 1165 l 350 1060 z m 542 -21 b 1014 357 851 -21 1014 108 l 1014 968 l 796 968 l 796 400 b 542 169 796 268 735 169 b 288 400 346 169 288 271 l 288 968 l 71 968 l 71 350 b 542 -21 71 106 232 -21 z "},"Ų":{"ha":1085,"x_min":0,"x_max":0,"o":"m 796 400 b 542 169 796 268 735 169 b 288 400 346 169 288 271 l 288 968 l 71 968 l 71 350 b 542 -21 71 106 232 -21 l 549 -21 b 471 -167 511 -50 471 -97 b 633 -311 471 -253 540 -311 b 788 -224 710 -311 756 -271 l 694 -161 b 628 -200 679 -185 658 -200 b 579 -147 601 -200 579 -187 b 713 -6 579 -79 668 -25 b 1014 357 911 36 1014 158 l 1014 968 l 796 968 z "},"Ů":{"ha":1085,"x_min":0,"x_max":0,"o":"m 542 890 b 715 1064 638 890 715 967 b 542 1238 715 1161 635 1238 b 368 1064 446 1238 368 1158 b 542 890 368 972 444 890 z m 542 997 b 478 1065 504 997 478 1026 b 542 1129 478 1101 501 1129 b 608 1065 583 1129 608 1103 b 542 997 608 1026 582 997 z m 542 -21 b 1014 357 851 -21 1014 108 l 1014 968 l 796 968 l 796 400 b 542 169 796 268 735 169 b 288 400 346 169 288 271 l 288 968 l 71 968 l 71 350 b 542 -21 71 106 232 -21 z "},"Ũ":{"ha":1085,"x_min":0,"x_max":0,"o":"m 626 1053 b 775 1251 718 1053 775 1122 l 665 1251 b 629 1163 665 1193 650 1163 b 458 1254 585 1163 553 1254 b 307 1065 365 1254 307 1182 l 411 1065 b 450 1143 411 1113 426 1143 b 626 1053 497 1143 521 1053 z m 542 -21 b 1014 357 851 -21 1014 108 l 1014 968 l 796 968 l 796 400 b 542 169 796 268 735 169 b 288 400 346 169 288 271 l 288 968 l 71 968 l 71 350 b 542 -21 71 106 232 -21 z "},"V":{"ha":1071,"x_min":0,"x_max":0,"o":"m 535 221 l 242 968 l 6 968 l 419 0 l 650 0 l 1063 968 l 825 968 z "},"W":{"ha":1578,"x_min":0,"x_max":0,"o":"m 1100 294 l 883 911 l 693 911 l 478 296 l 247 968 l 8 968 l 364 0 l 567 0 l 788 614 l 1011 0 l 1213 0 l 1569 968 l 1328 968 z "},"Ẃ":{"ha":1578,"x_min":0,"x_max":0,"o":"m 878 1251 l 722 1054 l 854 1054 l 1072 1251 z m 1100 294 l 883 911 l 693 911 l 478 296 l 247 968 l 8 968 l 364 0 l 567 0 l 788 614 l 1011 0 l 1213 0 l 1569 968 l 1328 968 z "},"Ŵ":{"ha":1578,"x_min":0,"x_max":0,"o":"m 869 1033 l 1008 1033 l 790 1279 l 571 1033 l 710 1033 l 790 1125 z m 1100 294 l 883 911 l 693 911 l 478 296 l 247 968 l 8 968 l 364 0 l 567 0 l 788 614 l 1011 0 l 1213 0 l 1569 968 l 1328 968 z "},"Ẅ":{"ha":1578,"x_min":0,"x_max":0,"o":"m 546 1251 l 546 1072 l 744 1072 l 744 1251 z m 833 1251 l 833 1072 l 1032 1072 l 1032 1251 z m 1100 294 l 883 911 l 693 911 l 478 296 l 247 968 l 8 968 l 364 0 l 567 0 l 788 614 l 1011 0 l 1213 0 l 1569 968 l 1328 968 z "},"Ẁ":{"ha":1578,"x_min":0,"x_max":0,"o":"m 711 1251 l 518 1251 l 721 1054 l 856 1054 z m 1100 294 l 883 911 l 693 911 l 478 296 l 247 968 l 8 968 l 364 0 l 567 0 l 788 614 l 1011 0 l 1213 0 l 1569 968 l 1328 968 z "},"X":{"ha":1094,"x_min":0,"x_max":0,"o":"m 275 0 l 544 356 l 817 0 l 1085 0 l 681 482 l 1081 968 l 813 968 l 546 618 l 279 968 l 11 968 l 411 482 l 8 0 z "},"Y":{"ha":1099,"x_min":0,"x_max":0,"o":"m 660 0 l 660 392 l 1099 968 l 836 968 l 547 553 l 263 968 l -3 968 l 443 392 l 443 0 z "},"Ý":{"ha":1099,"x_min":0,"x_max":0,"o":"m 615 1054 l 833 1251 l 639 1251 l 483 1054 z m 660 0 l 660 392 l 1099 968 l 836 968 l 547 553 l 263 968 l -3 968 l 443 392 l 443 0 z "},"Ŷ":{"ha":1099,"x_min":0,"x_max":0,"o":"m 469 1033 l 550 1125 l 629 1033 l 768 1033 l 550 1279 l 331 1033 z m 660 0 l 660 392 l 1099 968 l 836 968 l 547 553 l 263 968 l -3 968 l 443 392 l 443 0 z "},"Ÿ":{"ha":1099,"x_min":0,"x_max":0,"o":"m 506 1072 l 506 1251 l 307 1251 l 307 1072 z m 793 1072 l 793 1251 l 594 1251 l 594 1072 z m 660 0 l 660 392 l 1099 968 l 836 968 l 547 553 l 263 968 l -3 968 l 443 392 l 443 0 z "},"Ỵ":{"ha":1099,"x_min":0,"x_max":0,"o":"m 660 0 l 660 392 l 1099 968 l 836 968 l 547 553 l 263 968 l -3 968 l 443 392 l 443 0 z m 669 -262 l 669 -83 l 428 -83 l 428 -262 z "},"Ỳ":{"ha":1099,"x_min":0,"x_max":0,"o":"m 617 1054 l 472 1251 l 279 1251 l 482 1054 z m 660 0 l 660 392 l 1099 968 l 836 968 l 547 553 l 263 968 l -3 968 l 443 392 l 443 0 z "},"Ỷ":{"ha":1099,"x_min":0,"x_max":0,"o":"m 517 996 b 708 1135 596 1008 708 1026 b 474 1281 708 1229 614 1281 l 451 1281 l 451 1169 l 474 1169 b 581 1121 529 1169 581 1164 b 496 1071 581 1079 538 1078 z m 660 0 l 660 392 l 1099 968 l 836 968 l 547 553 l 263 968 l -3 968 l 443 392 l 443 0 z "},"Ỹ":{"ha":1099,"x_min":0,"x_max":0,"o":"m 635 1053 b 783 1251 726 1053 783 1122 l 674 1251 b 638 1163 674 1193 658 1163 b 467 1254 593 1163 561 1254 b 315 1065 374 1254 315 1182 l 419 1065 b 458 1143 419 1113 435 1143 b 635 1053 506 1143 529 1053 z m 660 0 l 660 392 l 1099 968 l 836 968 l 547 553 l 263 968 l -3 968 l 443 392 l 443 0 z "},"Z":{"ha":1038,"x_min":0,"x_max":0,"o":"m 993 821 l 993 968 l 75 968 l 75 810 l 696 810 l 35 142 l 35 0 l 994 0 l 994 158 l 339 158 z "},"Ź":{"ha":1038,"x_min":0,"x_max":0,"o":"m 610 1251 l 454 1054 l 586 1054 l 804 1251 z m 993 821 l 993 968 l 75 968 l 75 810 l 696 810 l 35 142 l 35 0 l 994 0 l 994 158 l 339 158 z "},"Ž":{"ha":1038,"x_min":0,"x_max":0,"o":"m 601 1251 l 521 1167 l 443 1251 l 303 1251 l 521 1019 l 740 1251 z m 993 821 l 993 968 l 75 968 l 75 810 l 696 810 l 35 142 l 35 0 l 994 0 l 994 158 l 339 158 z "},"Ż":{"ha":1038,"x_min":0,"x_max":0,"o":"m 400 1251 l 400 1072 l 644 1072 l 644 1251 z m 993 821 l 993 968 l 75 968 l 75 810 l 696 810 l 35 142 l 35 0 l 994 0 l 994 158 l 339 158 z "},"a":{"ha":872,"x_min":0,"x_max":0,"o":"m 440 697 b 76 615 310 697 192 674 l 146 479 b 426 558 240 538 332 558 b 593 418 571 558 593 497 l 593 415 l 322 415 b 43 208 146 415 43 346 b 356 -12 43 67 157 -12 b 619 107 464 -12 563 24 l 646 0 l 806 0 l 806 422 b 440 697 806 607 683 697 z m 390 117 b 256 206 308 117 256 149 b 381 286 256 264 306 286 l 592 286 b 390 117 585 185 518 117 z "},"á":{"ha":872,"x_min":0,"x_max":0,"o":"m 532 968 l 376 771 l 508 771 l 726 968 z m 440 697 b 76 615 310 697 192 674 l 146 479 b 426 558 240 538 332 558 b 593 418 571 558 593 497 l 593 415 l 322 415 b 43 208 146 415 43 346 b 356 -12 43 67 157 -12 b 619 107 464 -12 563 24 l 646 0 l 806 0 l 806 422 b 440 697 806 607 683 697 z m 390 117 b 256 206 308 117 256 149 b 381 286 256 264 306 286 l 592 286 b 390 117 585 185 518 117 z "},"ă":{"ha":872,"x_min":0,"x_max":0,"o":"m 444 760 b 690 968 608 760 690 825 l 543 968 b 444 864 543 885 500 864 b 344 968 390 864 344 885 l 197 968 b 444 760 197 833 272 760 z m 440 697 b 76 615 310 697 192 674 l 146 479 b 426 558 240 538 332 558 b 593 418 571 558 593 497 l 593 415 l 322 415 b 43 208 146 415 43 346 b 356 -12 43 67 157 -12 b 619 107 464 -12 563 24 l 646 0 l 806 0 l 806 422 b 440 697 806 607 683 697 z m 390 117 b 256 206 308 117 256 149 b 381 286 256 264 306 286 l 592 286 b 390 117 585 185 518 117 z "},"ắ":{"ha":872,"x_min":0,"x_max":0,"o":"m 532 1251 l 376 1054 l 508 1054 l 726 1251 z m 444 760 b 690 968 608 760 690 825 l 543 968 b 444 864 543 885 500 864 b 344 968 390 864 344 885 l 197 968 b 444 760 197 833 272 760 z m 440 697 b 76 615 310 697 192 674 l 146 479 b 426 558 240 538 332 558 b 593 418 571 558 593 497 l 593 415 l 322 415 b 43 208 146 415 43 346 b 356 -12 43 67 157 -12 b 619 107 464 -12 563 24 l 646 0 l 806 0 l 806 422 b 440 697 806 607 683 697 z m 390 117 b 256 206 308 117 256 149 b 381 286 256 264 306 286 l 592 286 b 390 117 585 185 518 117 z "},"ặ":{"ha":872,"x_min":0,"x_max":0,"o":"m 444 760 b 690 968 608 760 690 825 l 543 968 b 444 864 543 885 500 864 b 344 968 390 864 344 885 l 197 968 b 444 760 197 833 272 760 z m 440 697 b 76 615 310 697 192 674 l 146 479 b 426 558 240 538 332 558 b 593 418 571 558 593 497 l 593 415 l 322 415 b 43 208 146 415 43 346 b 356 -12 43 67 157 -12 b 619 107 464 -12 563 24 l 646 0 l 806 0 l 806 422 b 440 697 806 607 683 697 z m 390 117 b 256 206 308 117 256 149 b 381 286 256 264 306 286 l 592 286 b 390 117 585 185 518 117 z m 564 -262 l 564 -83 l 322 -83 l 322 -262 z "},"ằ":{"ha":872,"x_min":0,"x_max":0,"o":"m 365 1251 l 172 1251 l 375 1054 l 510 1054 z m 197 968 b 444 760 197 833 272 760 b 690 968 608 760 690 825 l 543 968 b 444 864 543 885 500 864 b 344 968 390 864 344 885 z m 440 697 b 76 615 310 697 192 674 l 146 479 b 426 558 240 538 332 558 b 593 418 571 558 593 497 l 593 415 l 322 415 b 43 208 146 415 43 346 b 356 -12 43 67 157 -12 b 619 107 464 -12 563 24 l 646 0 l 806 0 l 806 422 b 440 697 806 607 683 697 z m 390 117 b 256 206 308 117 256 149 b 381 286 256 264 306 286 l 592 286 b 390 117 585 185 518 117 z "},"ẳ":{"ha":872,"x_min":0,"x_max":0,"o":"m 475 1121 b 390 1071 475 1079 432 1078 l 411 996 b 603 1135 490 1008 603 1026 b 368 1281 603 1229 508 1281 l 346 1281 l 346 1169 l 368 1169 b 475 1121 424 1169 475 1164 z m 444 760 b 690 968 608 760 690 825 l 543 968 b 444 864 543 885 500 864 b 344 968 390 864 344 885 l 197 968 b 444 760 197 833 272 760 z m 440 697 b 76 615 310 697 192 674 l 146 479 b 426 558 240 538 332 558 b 593 418 571 558 593 497 l 593 415 l 322 415 b 43 208 146 415 43 346 b 356 -12 43 67 157 -12 b 619 107 464 -12 563 24 l 646 0 l 806 0 l 806 422 b 440 697 806 607 683 697 z m 390 117 b 256 206 308 117 256 149 b 381 286 256 264 306 286 l 592 286 b 390 117 585 185 518 117 z "},"ẵ":{"ha":872,"x_min":0,"x_max":0,"o":"m 351 1143 b 528 1053 399 1143 422 1053 b 676 1251 619 1053 676 1122 l 567 1251 b 531 1163 567 1193 551 1163 b 360 1254 486 1163 454 1254 b 208 1065 267 1254 208 1182 l 313 1065 b 351 1143 313 1113 328 1143 z m 444 760 b 690 968 608 760 690 825 l 543 968 b 444 864 543 885 500 864 b 344 968 390 864 344 885 l 197 968 b 444 760 197 833 272 760 z m 440 697 b 76 615 310 697 192 674 l 146 479 b 426 558 240 538 332 558 b 593 418 571 558 593 497 l 593 415 l 322 415 b 43 208 146 415 43 346 b 356 -12 43 67 157 -12 b 619 107 464 -12 563 24 l 646 0 l 806 0 l 806 422 b 440 697 806 607 683 697 z m 390 117 b 256 206 308 117 256 149 b 381 286 256 264 306 286 l 592 286 b 390 117 585 185 518 117 z "},"ǎ":{"ha":872,"x_min":0,"x_max":0,"o":"m 524 968 l 443 883 l 365 968 l 225 968 l 443 736 l 663 968 z m 440 697 b 76 615 310 697 192 674 l 146 479 b 426 558 240 538 332 558 b 593 418 571 558 593 497 l 593 415 l 322 415 b 43 208 146 415 43 346 b 356 -12 43 67 157 -12 b 619 107 464 -12 563 24 l 646 0 l 806 0 l 806 422 b 440 697 806 607 683 697 z m 390 117 b 256 206 308 117 256 149 b 381 286 256 264 306 286 l 592 286 b 390 117 585 185 518 117 z "},"â":{"ha":872,"x_min":0,"x_max":0,"o":"m 524 750 l 663 750 l 444 996 l 225 750 l 364 750 l 444 842 z m 440 697 b 76 615 310 697 192 674 l 146 479 b 426 558 240 538 332 558 b 593 418 571 558 593 497 l 593 415 l 322 415 b 43 208 146 415 43 346 b 356 -12 43 67 157 -12 b 619 107 464 -12 563 24 l 646 0 l 806 0 l 806 422 b 440 697 806 607 683 697 z m 390 117 b 256 206 308 117 256 149 b 381 286 256 264 306 286 l 592 286 b 390 117 585 185 518 117 z "},"ấ":{"ha":872,"x_min":0,"x_max":0,"o":"m 532 1228 l 376 1031 l 508 1031 l 726 1228 z m 524 750 l 663 750 l 444 996 l 225 750 l 364 750 l 444 842 z m 440 697 b 76 615 310 697 192 674 l 146 479 b 426 558 240 538 332 558 b 593 418 571 558 593 497 l 593 415 l 322 415 b 43 208 146 415 43 346 b 356 -12 43 67 157 -12 b 619 107 464 -12 563 24 l 646 0 l 806 0 l 806 422 b 440 697 806 607 683 697 z m 390 117 b 256 206 308 117 256 149 b 381 286 256 264 306 286 l 592 286 b 390 117 585 185 518 117 z "},"ậ":{"ha":872,"x_min":0,"x_max":0,"o":"m 524 750 l 663 750 l 444 996 l 225 750 l 364 750 l 444 842 z m 440 697 b 76 615 310 697 192 674 l 146 479 b 426 558 240 538 332 558 b 593 418 571 558 593 497 l 593 415 l 322 415 b 43 208 146 415 43 346 b 356 -12 43 67 157 -12 b 619 107 464 -12 563 24 l 646 0 l 806 0 l 806 422 b 440 697 806 607 683 697 z m 390 117 b 256 206 308 117 256 149 b 381 286 256 264 306 286 l 592 286 b 390 117 585 185 518 117 z m 564 -262 l 564 -83 l 322 -83 l 322 -262 z "},"ầ":{"ha":872,"x_min":0,"x_max":0,"o":"m 365 1228 l 172 1228 l 375 1031 l 510 1031 z m 364 750 l 444 842 l 524 750 l 663 750 l 444 996 l 225 750 z m 440 697 b 76 615 310 697 192 674 l 146 479 b 426 558 240 538 332 558 b 593 418 571 558 593 497 l 593 415 l 322 415 b 43 208 146 415 43 346 b 356 -12 43 67 157 -12 b 619 107 464 -12 563 24 l 646 0 l 806 0 l 806 422 b 440 697 806 607 683 697 z m 390 117 b 256 206 308 117 256 149 b 381 286 256 264 306 286 l 592 286 b 390 117 585 185 518 117 z "},"ẩ":{"ha":872,"x_min":0,"x_max":0,"o":"m 444 842 l 524 750 l 663 750 l 458 981 b 603 1111 529 994 603 1024 b 368 1257 603 1206 508 1257 l 346 1257 l 346 1146 l 368 1146 b 475 1097 424 1146 475 1140 b 390 1047 475 1056 432 1054 l 411 972 b 425 975 415 974 421 974 l 225 750 l 364 750 z m 440 697 b 76 615 310 697 192 674 l 146 479 b 426 558 240 538 332 558 b 593 418 571 558 593 497 l 593 415 l 322 415 b 43 208 146 415 43 346 b 356 -12 43 67 157 -12 b 619 107 464 -12 563 24 l 646 0 l 806 0 l 806 422 b 440 697 806 607 683 697 z m 390 117 b 256 206 308 117 256 149 b 381 286 256 264 306 286 l 592 286 b 390 117 585 185 518 117 z "},"ẫ":{"ha":872,"x_min":0,"x_max":0,"o":"m 351 1119 b 528 1029 399 1119 422 1029 b 676 1228 619 1029 676 1099 l 567 1228 b 531 1139 567 1169 551 1139 b 360 1231 486 1139 454 1231 b 208 1042 267 1231 208 1158 l 313 1042 b 351 1119 313 1089 328 1119 z m 364 750 l 444 842 l 524 750 l 663 750 l 444 996 l 225 750 z m 440 697 b 76 615 310 697 192 674 l 146 479 b 426 558 240 538 332 558 b 593 418 571 558 593 497 l 593 415 l 322 415 b 43 208 146 415 43 346 b 356 -12 43 67 157 -12 b 619 107 464 -12 563 24 l 646 0 l 806 0 l 806 422 b 440 697 806 607 683 697 z m 390 117 b 256 206 308 117 256 149 b 381 286 256 264 306 286 l 592 286 b 390 117 585 185 518 117 z "},"ä":{"ha":872,"x_min":0,"x_max":0,"o":"m 200 968 l 200 789 l 399 789 l 399 968 z m 488 968 l 488 789 l 686 789 l 686 968 z m 440 697 b 76 615 310 697 192 674 l 146 479 b 426 558 240 538 332 558 b 593 418 571 558 593 497 l 593 415 l 322 415 b 43 208 146 415 43 346 b 356 -12 43 67 157 -12 b 619 107 464 -12 563 24 l 646 0 l 806 0 l 806 422 b 440 697 806 607 683 697 z m 390 117 b 256 206 308 117 256 149 b 381 286 256 264 306 286 l 592 286 b 390 117 585 185 518 117 z "},"ạ":{"ha":872,"x_min":0,"x_max":0,"o":"m 440 697 b 76 615 310 697 192 674 l 146 479 b 426 558 240 538 332 558 b 593 418 571 558 593 497 l 593 415 l 322 415 b 43 208 146 415 43 346 b 356 -12 43 67 157 -12 b 619 107 464 -12 563 24 l 646 0 l 806 0 l 806 422 b 440 697 806 607 683 697 z m 390 117 b 256 206 308 117 256 149 b 381 286 256 264 306 286 l 592 286 b 390 117 585 185 518 117 z m 564 -262 l 564 -83 l 322 -83 l 322 -262 z "},"à":{"ha":872,"x_min":0,"x_max":0,"o":"m 365 968 l 172 968 l 375 771 l 510 771 z m 440 697 b 76 615 310 697 192 674 l 146 479 b 426 558 240 538 332 558 b 593 418 571 558 593 497 l 593 415 l 322 415 b 43 208 146 415 43 346 b 356 -12 43 67 157 -12 b 619 107 464 -12 563 24 l 646 0 l 806 0 l 806 422 b 440 697 806 607 683 697 z m 390 117 b 256 206 308 117 256 149 b 381 286 256 264 306 286 l 592 286 b 390 117 585 185 518 117 z "},"ả":{"ha":872,"x_min":0,"x_max":0,"o":"m 475 838 b 390 788 475 796 432 794 l 411 713 b 603 851 490 725 603 743 b 368 997 603 946 508 997 l 346 997 l 346 886 l 368 886 b 475 838 424 886 475 881 z m 440 697 b 76 615 310 697 192 674 l 146 479 b 426 558 240 538 332 558 b 593 418 571 558 593 497 l 593 415 l 322 415 b 43 208 146 415 43 346 b 356 -12 43 67 157 -12 b 619 107 464 -12 563 24 l 646 0 l 806 0 l 806 422 b 440 697 806 607 683 697 z m 390 117 b 256 206 308 117 256 149 b 381 286 256 264 306 286 l 592 286 b 390 117 585 185 518 117 z "},"ā":{"ha":872,"x_min":0,"x_max":0,"o":"m 251 882 l 251 776 l 635 776 l 635 882 z m 440 697 b 76 615 310 697 192 674 l 146 479 b 426 558 240 538 332 558 b 593 418 571 558 593 497 l 593 415 l 322 415 b 43 208 146 415 43 346 b 356 -12 43 67 157 -12 b 619 107 464 -12 563 24 l 646 0 l 806 0 l 806 422 b 440 697 806 607 683 697 z m 390 117 b 256 206 308 117 256 149 b 381 286 256 264 306 286 l 592 286 b 390 117 585 185 518 117 z "},"ą":{"ha":872,"x_min":0,"x_max":0,"o":"m 776 -161 b 710 -200 761 -185 740 -200 b 661 -147 683 -200 661 -187 b 806 0 661 -72 769 -14 l 806 422 b 440 697 806 607 683 697 b 76 615 310 697 192 674 l 146 479 b 426 558 240 538 332 558 b 593 418 571 558 593 497 l 593 415 l 322 415 b 43 208 146 415 43 346 b 356 -12 43 67 157 -12 b 619 107 464 -12 563 24 l 646 0 l 661 0 b 553 -167 619 -24 553 -76 b 715 -311 553 -253 622 -311 b 869 -224 792 -311 838 -271 z m 390 117 b 256 206 308 117 256 149 b 381 286 256 264 306 286 l 592 286 b 390 117 585 185 518 117 z "},"å":{"ha":872,"x_min":0,"x_max":0,"o":"m 444 729 b 607 892 533 729 607 801 b 444 1054 607 983 531 1054 b 281 892 353 1054 281 981 b 444 729 281 806 351 729 z m 444 957 b 510 894 486 957 510 932 b 444 826 510 854 483 826 b 379 894 407 826 379 854 b 444 957 379 931 403 957 z m 440 697 b 76 615 310 697 192 674 l 146 479 b 426 558 240 538 332 558 b 593 418 571 558 593 497 l 593 415 l 322 415 b 43 208 146 415 43 346 b 356 -12 43 67 157 -12 b 619 107 464 -12 563 24 l 646 0 l 806 0 l 806 422 b 440 697 806 607 683 697 z m 390 117 b 256 206 308 117 256 149 b 381 286 256 264 306 286 l 592 286 b 390 117 585 185 518 117 z "},"ã":{"ha":872,"x_min":0,"x_max":0,"o":"m 351 860 b 528 769 399 860 422 769 b 676 968 619 769 676 839 l 567 968 b 531 879 567 910 551 879 b 360 971 486 879 454 971 b 208 782 267 971 208 899 l 313 782 b 351 860 313 829 328 860 z m 440 697 b 76 615 310 697 192 674 l 146 479 b 426 558 240 538 332 558 b 593 418 571 558 593 497 l 593 415 l 322 415 b 43 208 146 415 43 346 b 356 -12 43 67 157 -12 b 619 107 464 -12 563 24 l 646 0 l 806 0 l 806 422 b 440 697 806 607 683 697 z m 390 117 b 256 206 308 117 256 149 b 381 286 256 264 306 286 l 592 286 b 390 117 585 185 518 117 z "},"æ":{"ha":1433,"x_min":0,"x_max":0,"o":"m 1388 349 b 1000 697 1388 551 1250 697 b 733 614 893 697 801 667 b 440 697 672 669 575 697 b 76 615 310 697 192 674 l 146 479 b 426 558 240 538 332 558 b 593 418 571 558 593 497 l 593 415 l 322 415 b 43 208 146 415 43 346 b 379 -12 43 67 157 -12 b 676 125 504 -12 610 29 b 1026 -12 749 38 871 -12 b 1353 60 1143 -12 1244 10 l 1279 201 b 1026 149 1210 167 1114 149 b 808 283 896 149 819 200 l 1383 283 b 1388 349 1386 310 1388 332 z m 806 413 b 1004 558 819 503 900 558 b 1188 417 1124 558 1188 494 l 1188 413 z m 390 117 b 256 206 308 117 256 149 b 381 286 256 264 306 286 l 592 286 b 390 117 585 185 518 117 z "},"b":{"ha":964,"x_min":0,"x_max":0,"o":"m 526 697 b 269 592 411 697 317 656 l 269 968 l 75 968 l 75 0 l 269 0 l 269 89 b 518 -12 331 24 419 -12 b 918 346 757 -12 918 126 b 526 697 918 558 757 697 z m 497 136 b 269 344 364 136 269 218 b 497 551 269 469 364 551 b 724 344 629 551 724 468 b 497 136 724 221 629 136 z "},"c":{"ha":889,"x_min":0,"x_max":0,"o":"m 465 -12 b 846 189 651 -12 788 60 l 669 257 b 464 149 643 188 567 149 b 236 340 319 149 236 231 b 464 536 236 450 317 536 b 674 429 568 536 639 492 l 854 497 b 464 697 779 628 660 697 b 42 340 196 697 42 543 b 465 -12 42 133 204 -12 z "},"ć":{"ha":889,"x_min":0,"x_max":0,"o":"m 483 771 l 701 968 l 507 968 l 351 771 z m 465 -12 b 846 189 651 -12 788 60 l 669 257 b 464 149 643 188 567 149 b 236 340 319 149 236 231 b 464 536 236 450 317 536 b 674 429 568 536 639 492 l 854 497 b 464 697 779 628 660 697 b 42 340 196 697 42 543 b 465 -12 42 133 204 -12 z "},"č":{"ha":889,"x_min":0,"x_max":0,"o":"m 636 968 l 497 968 l 417 883 l 339 968 l 199 968 l 417 736 z m 465 -12 b 846 189 651 -12 788 60 l 669 257 b 464 149 643 188 567 149 b 236 340 319 149 236 231 b 464 536 236 450 317 536 b 674 429 568 536 639 492 l 854 497 b 464 697 779 628 660 697 b 42 340 196 697 42 543 b 465 -12 42 133 204 -12 z "},"ç":{"ha":889,"x_min":0,"x_max":0,"o":"m 464 149 b 236 340 319 149 236 231 b 464 536 236 450 317 536 b 674 429 568 536 639 492 l 854 497 b 464 697 779 628 660 697 b 42 340 196 697 42 543 b 361 -4 42 163 161 29 l 279 -133 b 382 -143 318 -133 351 -135 b 438 -206 414 -153 438 -171 b 382 -257 438 -239 414 -257 b 321 -232 361 -257 339 -247 l 264 -319 b 376 -360 306 -351 351 -360 b 542 -197 476 -360 542 -289 b 490 -92 542 -154 526 -117 b 418 -64 471 -79 447 -69 l 461 -12 l 465 -12 b 846 189 651 -12 788 60 l 669 257 b 464 149 643 188 567 149 z "},"ċ":{"ha":889,"x_min":0,"x_max":0,"o":"m 540 789 l 540 968 l 296 968 l 296 789 z m 465 -12 b 846 189 651 -12 788 60 l 669 257 b 464 149 643 188 567 149 b 236 340 319 149 236 231 b 464 536 236 450 317 536 b 674 429 568 536 639 492 l 854 497 b 464 697 779 628 660 697 b 42 340 196 697 42 543 b 465 -12 42 133 204 -12 z "},"d":{"ha":964,"x_min":0,"x_max":0,"o":"m 692 593 b 435 697 643 656 550 697 b 43 346 204 697 43 558 b 443 -12 43 126 206 -12 b 692 89 542 -12 629 22 l 692 0 l 886 0 l 886 968 l 692 968 z m 465 136 b 238 344 333 136 238 221 b 465 551 238 468 333 551 b 692 344 597 551 692 469 b 465 136 692 218 597 136 z "},"ð":{"ha":1008,"x_min":0,"x_max":0,"o":"m 946 935 l 779 900 b 354 1024 688 969 551 1011 l 338 907 b 586 860 440 904 522 889 l 347 811 l 369 739 l 674 804 b 760 599 729 753 757 683 b 517 688 697 657 614 688 b 43 307 258 688 43 533 b 436 -8 43 126 192 -8 b 938 522 751 -8 938 197 b 843 839 938 650 911 757 l 965 865 z m 729 358 b 458 132 724 239 646 132 b 239 317 304 132 239 211 b 514 556 239 446 336 556 b 729 358 663 556 735 458 z "},"ď":{"ha":1071,"x_min":0,"x_max":0,"o":"m 692 593 b 435 697 643 656 550 697 b 43 346 204 697 43 558 b 443 -12 43 126 206 -12 b 692 89 542 -12 629 22 l 692 0 l 886 0 l 886 968 l 692 968 z m 950 651 l 1056 651 l 1218 968 l 1028 968 z m 465 136 b 238 344 333 136 238 221 b 465 551 238 468 333 551 b 692 344 597 551 692 469 b 465 136 692 218 597 136 z "},"đ":{"ha":964,"x_min":0,"x_max":0,"o":"m 886 890 l 886 968 l 692 968 l 692 890 l 522 890 l 522 769 l 692 769 l 692 593 b 435 697 643 656 550 697 b 43 346 204 697 43 558 b 443 -12 43 126 206 -12 b 692 89 542 -12 629 22 l 692 0 l 886 0 l 886 769 l 1058 769 l 1058 890 z m 465 136 b 238 344 333 136 238 221 b 465 551 238 468 333 551 b 692 344 597 551 692 469 b 465 136 692 218 597 136 z "},"e":{"ha":874,"x_min":0,"x_max":0,"o":"m 828 349 b 440 697 828 551 690 697 b 42 339 207 697 42 550 b 468 -12 42 126 210 -12 b 793 60 585 -12 685 10 l 721 201 b 468 149 650 167 554 149 b 249 283 338 149 261 200 l 824 283 b 828 349 826 310 828 332 z m 247 413 b 446 542 261 492 343 542 b 628 414 564 542 628 483 l 628 413 z "},"é":{"ha":874,"x_min":0,"x_max":0,"o":"m 531 968 l 375 771 l 507 771 l 725 968 z m 828 349 b 440 697 828 551 690 697 b 42 339 207 697 42 550 b 468 -12 42 126 210 -12 b 793 60 585 -12 685 10 l 721 201 b 468 149 650 167 554 149 b 249 283 338 149 261 200 l 824 283 b 828 349 826 310 828 332 z m 247 413 b 446 542 261 492 343 542 b 628 414 564 542 628 483 l 628 413 z "},"ě":{"ha":874,"x_min":0,"x_max":0,"o":"m 521 968 l 440 883 l 363 968 l 222 968 l 440 736 l 660 968 z m 828 349 b 440 697 828 551 690 697 b 42 339 207 697 42 550 b 468 -12 42 126 210 -12 b 793 60 585 -12 685 10 l 721 201 b 468 149 650 167 554 149 b 249 283 338 149 261 200 l 824 283 b 828 349 826 310 828 332 z m 247 413 b 446 542 261 492 343 542 b 628 414 564 542 628 483 l 628 413 z "},"ê":{"ha":874,"x_min":0,"x_max":0,"o":"m 521 750 l 660 750 l 442 996 l 222 750 l 361 750 l 442 842 z m 828 349 b 440 697 828 551 690 697 b 42 339 207 697 42 550 b 468 -12 42 126 210 -12 b 793 60 585 -12 685 10 l 721 201 b 468 149 650 167 554 149 b 249 283 338 149 261 200 l 824 283 b 828 349 826 310 828 332 z m 247 413 b 446 542 261 492 343 542 b 628 414 564 542 628 483 l 628 413 z "},"ế":{"ha":874,"x_min":0,"x_max":0,"o":"m 531 1228 l 375 1031 l 507 1031 l 725 1228 z m 521 750 l 660 750 l 442 996 l 222 750 l 361 750 l 442 842 z m 828 349 b 440 697 828 551 690 697 b 42 339 207 697 42 550 b 468 -12 42 126 210 -12 b 793 60 585 -12 685 10 l 721 201 b 468 149 650 167 554 149 b 249 283 338 149 261 200 l 824 283 b 828 349 826 310 828 332 z m 247 413 b 446 542 261 492 343 542 b 628 414 564 542 628 483 l 628 413 z "},"ệ":{"ha":874,"x_min":0,"x_max":0,"o":"m 521 750 l 660 750 l 442 996 l 222 750 l 361 750 l 442 842 z m 828 349 b 440 697 828 551 690 697 b 42 339 207 697 42 550 b 468 -12 42 126 210 -12 b 793 60 585 -12 685 10 l 721 201 b 468 149 650 167 554 149 b 249 283 338 149 261 200 l 824 283 b 828 349 826 310 828 332 z m 247 413 b 446 542 261 492 343 542 b 628 414 564 542 628 483 l 628 413 z m 575 -262 l 575 -83 l 333 -83 l 333 -262 z "},"ề":{"ha":874,"x_min":0,"x_max":0,"o":"m 364 1228 l 171 1228 l 374 1031 l 508 1031 z m 361 750 l 442 842 l 521 750 l 660 750 l 442 996 l 222 750 z m 828 349 b 440 697 828 551 690 697 b 42 339 207 697 42 550 b 468 -12 42 126 210 -12 b 793 60 585 -12 685 10 l 721 201 b 468 149 650 167 554 149 b 249 283 338 149 261 200 l 824 283 b 828 349 826 310 828 332 z m 247 413 b 446 542 261 492 343 542 b 628 414 564 542 628 483 l 628 413 z "},"ể":{"ha":874,"x_min":0,"x_max":0,"o":"m 442 842 l 521 750 l 660 750 l 456 981 b 600 1111 526 994 600 1024 b 365 1257 600 1206 506 1257 l 343 1257 l 343 1146 l 365 1146 b 472 1097 421 1146 472 1140 b 388 1047 472 1056 429 1054 l 408 972 b 422 975 413 974 418 974 l 222 750 l 361 750 z m 828 349 b 440 697 828 551 690 697 b 42 339 207 697 42 550 b 468 -12 42 126 210 -12 b 793 60 585 -12 685 10 l 721 201 b 468 149 650 167 554 149 b 249 283 338 149 261 200 l 824 283 b 828 349 826 310 828 332 z m 247 413 b 446 542 261 492 343 542 b 628 414 564 542 628 483 l 628 413 z "},"ễ":{"ha":874,"x_min":0,"x_max":0,"o":"m 350 1119 b 526 1029 397 1119 421 1029 b 675 1228 618 1029 675 1099 l 565 1228 b 529 1139 565 1169 550 1139 b 358 1231 485 1139 453 1231 b 207 1042 265 1231 207 1158 l 311 1042 b 350 1119 311 1089 326 1119 z m 361 750 l 442 842 l 521 750 l 660 750 l 442 996 l 222 750 z m 828 349 b 440 697 828 551 690 697 b 42 339 207 697 42 550 b 468 -12 42 126 210 -12 b 793 60 585 -12 685 10 l 721 201 b 468 149 650 167 554 149 b 249 283 338 149 261 200 l 824 283 b 828 349 826 310 828 332 z m 247 413 b 446 542 261 492 343 542 b 628 414 564 542 628 483 l 628 413 z "},"ë":{"ha":874,"x_min":0,"x_max":0,"o":"m 199 968 l 199 789 l 397 789 l 397 968 z m 486 968 l 486 789 l 685 789 l 685 968 z m 828 349 b 440 697 828 551 690 697 b 42 339 207 697 42 550 b 468 -12 42 126 210 -12 b 793 60 585 -12 685 10 l 721 201 b 468 149 650 167 554 149 b 249 283 338 149 261 200 l 824 283 b 828 349 826 310 828 332 z m 247 413 b 446 542 261 492 343 542 b 628 414 564 542 628 483 l 628 413 z "},"ė":{"ha":874,"x_min":0,"x_max":0,"o":"m 319 968 l 319 789 l 564 789 l 564 968 z m 828 349 b 440 697 828 551 690 697 b 42 339 207 697 42 550 b 468 -12 42 126 210 -12 b 793 60 585 -12 685 10 l 721 201 b 468 149 650 167 554 149 b 249 283 338 149 261 200 l 824 283 b 828 349 826 310 828 332 z m 247 413 b 446 542 261 492 343 542 b 628 414 564 542 628 483 l 628 413 z "},"ẹ":{"ha":874,"x_min":0,"x_max":0,"o":"m 828 349 b 440 697 828 551 690 697 b 42 339 207 697 42 550 b 468 -12 42 126 210 -12 b 793 60 585 -12 685 10 l 721 201 b 468 149 650 167 554 149 b 249 283 338 149 261 200 l 824 283 b 828 349 826 310 828 332 z m 247 413 b 446 542 261 492 343 542 b 628 414 564 542 628 483 l 628 413 z m 575 -262 l 575 -83 l 333 -83 l 333 -262 z "},"è":{"ha":874,"x_min":0,"x_max":0,"o":"m 364 968 l 171 968 l 374 771 l 508 771 z m 828 349 b 440 697 828 551 690 697 b 42 339 207 697 42 550 b 468 -12 42 126 210 -12 b 793 60 585 -12 685 10 l 721 201 b 468 149 650 167 554 149 b 249 283 338 149 261 200 l 824 283 b 828 349 826 310 828 332 z m 247 413 b 446 542 261 492 343 542 b 628 414 564 542 628 483 l 628 413 z "},"ẻ":{"ha":874,"x_min":0,"x_max":0,"o":"m 472 838 b 388 788 472 796 429 794 l 408 713 b 600 851 488 725 600 743 b 365 997 600 946 506 997 l 343 997 l 343 886 l 365 886 b 472 838 421 886 472 881 z m 828 349 b 440 697 828 551 690 697 b 42 339 207 697 42 550 b 468 -12 42 126 210 -12 b 793 60 585 -12 685 10 l 721 201 b 468 149 650 167 554 149 b 249 283 338 149 261 200 l 824 283 b 828 349 826 310 828 332 z m 247 413 b 446 542 261 492 343 542 b 628 414 564 542 628 483 l 628 413 z "},"ē":{"ha":874,"x_min":0,"x_max":0,"o":"m 250 882 l 250 776 l 633 776 l 633 882 z m 828 349 b 440 697 828 551 690 697 b 42 339 207 697 42 550 b 468 -12 42 126 210 -12 b 793 60 585 -12 685 10 l 721 201 b 468 149 650 167 554 149 b 249 283 338 149 261 200 l 824 283 b 828 349 826 310 828 332 z m 247 413 b 446 542 261 492 343 542 b 628 414 564 542 628 483 l 628 413 z "},"ę":{"ha":874,"x_min":0,"x_max":0,"o":"m 828 349 b 440 697 828 551 690 697 b 42 339 207 697 42 550 b 446 -12 42 132 200 -4 b 357 -167 406 -40 357 -90 b 519 -311 357 -253 426 -311 b 674 -224 596 -311 642 -271 l 581 -161 b 514 -200 565 -185 544 -200 b 465 -147 488 -200 465 -187 b 610 0 465 -72 574 -14 b 793 60 671 11 731 31 l 721 201 b 468 149 650 167 554 149 b 249 283 338 149 261 200 l 824 283 b 828 349 826 310 828 332 z m 247 413 b 446 542 261 492 343 542 b 628 414 564 542 628 483 l 628 413 z "},"ẽ":{"ha":874,"x_min":0,"x_max":0,"o":"m 350 860 b 526 769 397 860 421 769 b 675 968 618 769 675 839 l 565 968 b 529 879 565 910 550 879 b 358 971 485 879 453 971 b 207 782 265 971 207 899 l 311 782 b 350 860 311 829 326 860 z m 828 349 b 440 697 828 551 690 697 b 42 339 207 697 42 550 b 468 -12 42 126 210 -12 b 793 60 585 -12 685 10 l 721 201 b 468 149 650 167 554 149 b 249 283 338 149 261 200 l 824 283 b 828 349 826 310 828 332 z m 247 413 b 446 542 261 492 343 542 b 628 414 564 542 628 483 l 628 413 z "},"f":{"ha":611,"x_min":0,"x_max":0,"o":"m 385 0 l 385 549 l 588 549 l 588 685 l 385 685 l 385 742 b 469 838 385 806 415 838 b 549 819 486 838 517 832 l 611 953 b 447 981 554 972 508 981 b 192 746 250 981 192 881 l 192 685 l 26 685 l 26 549 l 190 549 l 190 0 z "},"g":{"ha":844,"x_min":0,"x_max":0,"o":"m 529 88 b 208 178 263 110 208 125 b 235 221 208 194 218 210 b 414 190 286 201 347 190 b 751 438 615 190 751 289 b 717 557 751 482 739 522 l 815 625 l 732 749 l 603 654 b 406 697 547 682 481 697 b 64 442 211 697 64 592 b 128 289 64 382 88 329 b 51 150 76 250 51 204 b 135 18 51 90 81 49 l 33 -51 b 28 -92 33 -54 28 -79 b 431 -310 28 -224 190 -310 b 811 -89 665 -310 811 -228 b 529 88 811 29 706 72 z m 408 564 b 558 446 497 564 558 518 b 410 324 558 372 496 324 b 260 446 319 324 260 372 b 408 564 260 518 321 564 z m 438 -179 b 215 -92 329 -179 215 -156 b 217 -82 215 -90 215 -85 l 267 -24 b 369 -39 297 -31 332 -35 b 617 -114 549 -58 617 -67 b 438 -179 617 -160 556 -179 z "},"ğ":{"ha":844,"x_min":0,"x_max":0,"o":"m 413 760 b 658 968 576 760 658 825 l 511 968 b 413 864 511 885 468 864 b 313 968 358 864 313 885 l 165 968 b 413 760 165 833 240 760 z m 529 88 b 208 178 263 110 208 125 b 235 221 208 194 218 210 b 414 190 286 201 347 190 b 751 438 615 190 751 289 b 717 557 751 482 739 522 l 815 625 l 732 749 l 603 654 b 406 697 547 682 481 697 b 64 442 211 697 64 592 b 128 289 64 382 88 329 b 51 150 76 250 51 204 b 135 18 51 90 81 49 l 33 -51 b 28 -92 33 -54 28 -79 b 431 -310 28 -224 190 -310 b 811 -89 665 -310 811 -228 b 529 88 811 29 706 72 z m 408 564 b 558 446 497 564 558 518 b 410 324 558 372 496 324 b 260 446 319 324 260 372 b 408 564 260 518 321 564 z m 438 -179 b 215 -92 329 -179 215 -156 b 217 -82 215 -90 215 -85 l 267 -24 b 369 -39 297 -31 332 -35 b 617 -114 549 -58 617 -67 b 438 -179 617 -160 556 -179 z "},"ģ":{"ha":844,"x_min":0,"x_max":0,"o":"m 446 983 l 275 765 l 463 765 l 551 983 z m 529 88 b 208 178 263 110 208 125 b 235 221 208 194 218 210 b 414 190 286 201 347 190 b 751 438 615 190 751 289 b 717 557 751 482 739 522 l 815 625 l 732 749 l 603 654 b 406 697 547 682 481 697 b 64 442 211 697 64 592 b 128 289 64 382 88 329 b 51 150 76 250 51 204 b 135 18 51 90 81 49 l 33 -51 b 28 -92 33 -54 28 -79 b 431 -310 28 -224 190 -310 b 811 -89 665 -310 811 -228 b 529 88 811 29 706 72 z m 408 564 b 558 446 497 564 558 518 b 410 324 558 372 496 324 b 260 446 319 324 260 372 b 408 564 260 518 321 564 z m 438 -179 b 215 -92 329 -179 215 -156 b 217 -82 215 -90 215 -85 l 267 -24 b 369 -39 297 -31 332 -35 b 617 -114 549 -58 617 -67 b 438 -179 617 -160 556 -179 z "},"ġ":{"ha":844,"x_min":0,"x_max":0,"o":"m 290 968 l 290 789 l 535 789 l 535 968 z m 529 88 b 208 178 263 110 208 125 b 235 221 208 194 218 210 b 414 190 286 201 347 190 b 751 438 615 190 751 289 b 717 557 751 482 739 522 l 815 625 l 732 749 l 603 654 b 406 697 547 682 481 697 b 64 442 211 697 64 592 b 128 289 64 382 88 329 b 51 150 76 250 51 204 b 135 18 51 90 81 49 l 33 -51 b 28 -92 33 -54 28 -79 b 431 -310 28 -224 190 -310 b 811 -89 665 -310 811 -228 b 529 88 811 29 706 72 z m 408 564 b 558 446 497 564 558 518 b 410 324 558 372 496 324 b 260 446 319 324 260 372 b 408 564 260 518 321 564 z m 438 -179 b 215 -92 329 -179 215 -156 b 217 -82 215 -90 215 -85 l 267 -24 b 369 -39 297 -31 332 -35 b 617 -114 549 -58 617 -67 b 438 -179 617 -160 556 -179 z "},"h":{"ha":893,"x_min":0,"x_max":0,"o":"m 522 697 b 271 583 407 697 322 657 l 271 968 l 75 968 l 75 0 l 271 0 l 271 328 b 465 549 271 474 342 549 b 629 371 574 549 629 490 l 629 0 l 825 0 l 825 447 b 522 697 825 607 706 697 z "},"ħ":{"ha":893,"x_min":0,"x_max":0,"o":"m 522 697 b 271 583 407 697 322 657 l 271 763 l 533 763 l 533 883 l 271 883 l 271 968 l 75 968 l 75 883 l -3 883 l -3 763 l 75 763 l 75 0 l 271 0 l 271 328 b 465 549 271 474 342 549 b 629 371 574 549 629 490 l 629 0 l 825 0 l 825 447 b 522 697 825 607 706 697 z "},"i":{"ha":349,"x_min":0,"x_max":0,"o":"m 296 789 l 296 968 l 51 968 l 51 789 z m 272 0 l 272 685 l 75 685 l 75 0 z "},"ı":{"ha":349,"x_min":0,"x_max":0,"o":"m 272 0 l 272 685 l 75 685 l 75 0 z "},"í":{"ha":349,"x_min":0,"x_max":0,"o":"m 239 771 l 457 968 l 263 968 l 107 771 z m 272 0 l 272 685 l 75 685 l 75 0 z "},"ǐ":{"ha":349,"x_min":0,"x_max":0,"o":"m 393 968 l 254 968 l 174 883 l 96 968 l -44 968 l 174 736 z m 272 0 l 272 685 l 75 685 l 75 0 z "},"î":{"ha":349,"x_min":0,"x_max":0,"o":"m 94 750 l 175 842 l 254 750 l 393 750 l 175 996 l -44 750 z m 272 0 l 272 685 l 75 685 l 75 0 z "},"ï":{"ha":349,"x_min":0,"x_max":0,"o":"m 129 789 l 129 968 l -69 968 l -69 789 z m 417 789 l 417 968 l 218 968 l 218 789 z m 272 0 l 272 685 l 75 685 l 75 0 z "},"ị":{"ha":349,"x_min":0,"x_max":0,"o":"m 296 789 l 296 968 l 51 968 l 51 789 z m 272 0 l 272 685 l 75 685 l 75 0 z m 294 -262 l 294 -83 l 53 -83 l 53 -262 z "},"ì":{"ha":349,"x_min":0,"x_max":0,"o":"m 242 771 l 97 968 l -96 968 l 107 771 z m 272 0 l 272 685 l 75 685 l 75 0 z "},"ỉ":{"ha":349,"x_min":0,"x_max":0,"o":"m 142 713 b 333 851 221 725 333 743 b 99 997 333 946 239 997 l 76 997 l 76 886 l 99 886 b 206 838 154 886 206 881 b 121 788 206 796 163 794 z m 272 0 l 272 685 l 75 685 l 75 0 z "},"ī":{"ha":349,"x_min":0,"x_max":0,"o":"m 365 776 l 365 882 l -18 882 l -18 776 z m 272 0 l 272 685 l 75 685 l 75 0 z "},"į":{"ha":349,"x_min":0,"x_max":0,"o":"m 51 968 l 51 789 l 296 789 l 296 968 z m 243 -161 b 176 -200 228 -185 207 -200 b 128 -147 150 -200 128 -187 b 272 0 128 -72 236 -14 l 272 685 l 75 685 l 75 0 l 128 0 b 19 -167 86 -24 19 -76 b 182 -311 19 -253 89 -311 b 336 -224 258 -311 304 -271 z "},"ĩ":{"ha":349,"x_min":0,"x_max":0,"o":"m 258 769 b 407 968 350 769 407 839 l 297 968 b 261 879 297 910 282 879 b 90 971 217 879 185 971 b -61 782 -3 971 -61 899 l 43 782 b 82 860 43 829 58 860 b 258 769 129 860 153 769 z m 272 0 l 272 685 l 75 685 l 75 0 z "},"j":{"ha":354,"x_min":0,"x_max":0,"o":"m 301 789 l 301 968 l 57 968 l 57 789 z m 94 -297 b 278 -114 221 -297 278 -229 l 278 685 l 82 685 l 82 -67 b 24 -135 82 -111 63 -135 b -37 -126 7 -135 -15 -132 l -39 -276 b 94 -297 0 -289 51 -297 z "},"ȷ":{"ha":354,"x_min":0,"x_max":0,"o":"m 94 -297 b 278 -114 221 -297 278 -229 l 278 685 l 82 685 l 82 -67 b 24 -135 82 -111 63 -135 b -37 -126 7 -135 -15 -132 l -39 -276 b 94 -297 0 -289 51 -297 z "},"k":{"ha":913,"x_min":0,"x_max":0,"o":"m 271 0 l 271 201 l 404 319 l 653 0 l 893 0 l 544 426 l 857 685 l 583 685 l 271 394 l 271 968 l 75 968 l 75 0 z "},"ķ":{"ha":913,"x_min":0,"x_max":0,"o":"m 271 0 l 271 201 l 404 319 l 653 0 l 893 0 l 544 426 l 857 685 l 583 685 l 271 394 l 271 968 l 75 968 l 75 0 z m 390 -315 l 561 -72 l 372 -72 l 285 -315 z "},"ĸ":{"ha":913,"x_min":0,"x_max":0,"o":"m 271 0 l 271 201 l 404 319 l 653 0 l 893 0 l 544 426 l 857 685 l 583 685 l 271 394 l 271 685 l 75 685 l 75 0 z "},"l":{"ha":422,"x_min":0,"x_max":0,"o":"m 256 -14 b 390 7 300 -14 353 -6 l 390 157 b 326 149 367 151 344 149 b 267 217 285 149 267 174 l 267 968 l 69 968 l 69 169 b 256 -14 69 56 128 -14 z "},"ĺ":{"ha":422,"x_min":0,"x_max":0,"o":"m 228 1054 l 446 1251 l 251 1251 l 96 1054 z m 256 -14 b 390 7 300 -14 353 -6 l 390 157 b 326 149 367 151 344 149 b 267 217 285 149 267 174 l 267 968 l 69 968 l 69 169 b 256 -14 69 56 128 -14 z "},"ľ":{"ha":483,"x_min":0,"x_max":0,"o":"m 256 -14 b 390 7 300 -14 353 -6 l 390 157 b 326 149 367 151 344 149 b 267 217 285 149 267 174 l 267 968 l 69 968 l 69 169 b 256 -14 69 56 128 -14 z m 461 651 l 624 968 l 433 968 l 356 651 z "},"ļ":{"ha":422,"x_min":0,"x_max":0,"o":"m 256 -14 b 390 7 300 -14 353 -6 l 390 157 b 326 149 367 151 344 149 b 267 217 285 149 267 174 l 267 968 l 69 968 l 69 169 b 256 -14 69 56 128 -14 z m 115 -315 l 286 -72 l 97 -72 l 10 -315 z "},"ł":{"ha":422,"x_min":0,"x_max":0,"o":"m 326 149 b 267 217 285 149 267 174 l 267 478 l 347 542 l 347 726 l 267 663 l 267 968 l 69 968 l 69 507 l -6 447 l -6 261 l 69 321 l 69 169 b 256 -14 69 56 128 -14 b 390 7 300 -14 353 -6 l 390 157 b 326 149 367 151 344 149 z "},"m":{"ha":1372,"x_min":0,"x_max":0,"o":"m 1015 697 b 743 553 917 697 811 671 b 494 697 696 663 600 697 b 261 579 407 697 314 671 l 261 685 l 75 685 l 75 0 l 271 0 l 271 336 b 446 549 271 418 286 549 b 593 386 538 549 593 490 l 593 0 l 788 0 l 788 336 b 957 549 788 422 797 549 b 1107 378 1061 549 1107 476 l 1107 0 l 1306 0 l 1306 433 b 1015 697 1306 561 1217 697 z "},"n":{"ha":893,"x_min":0,"x_max":0,"o":"m 522 697 b 271 583 407 697 322 657 l 271 685 l 75 685 l 75 0 l 271 0 l 271 328 b 465 549 271 474 342 549 b 629 371 574 549 629 490 l 629 0 l 825 0 l 825 447 b 522 697 825 607 706 697 z "},"ń":{"ha":893,"x_min":0,"x_max":0,"o":"m 525 968 l 369 771 l 501 771 l 719 968 z m 522 697 b 271 583 407 697 322 657 l 271 685 l 75 685 l 75 0 l 271 0 l 271 328 b 465 549 271 474 342 549 b 629 371 574 549 629 490 l 629 0 l 825 0 l 825 447 b 522 697 825 607 706 697 z "},"ŉ":{"ha":1100,"x_min":0,"x_max":0,"o":"m 31 582 l 144 582 l 319 968 l 118 968 z m 731 697 b 478 582 614 697 529 657 l 478 685 l 283 685 l 283 0 l 478 0 l 478 328 b 674 549 478 474 550 549 b 838 371 782 549 838 490 l 838 0 l 1033 0 l 1033 447 b 731 697 1033 607 914 697 z "},"ň":{"ha":893,"x_min":0,"x_max":0,"o":"m 515 968 l 435 883 l 357 968 l 217 968 l 435 736 l 654 968 z m 522 697 b 271 583 407 697 322 657 l 271 685 l 75 685 l 75 0 l 271 0 l 271 328 b 465 549 271 474 342 549 b 629 371 574 549 629 490 l 629 0 l 825 0 l 825 447 b 522 697 825 607 706 697 z "},"ņ":{"ha":893,"x_min":0,"x_max":0,"o":"m 522 697 b 271 583 407 697 322 657 l 271 685 l 75 685 l 75 0 l 271 0 l 271 328 b 465 549 271 474 342 549 b 629 371 574 549 629 490 l 629 0 l 825 0 l 825 447 b 522 697 825 607 706 697 z m 358 -315 l 529 -72 l 340 -72 l 253 -315 z "},"ŋ":{"ha":894,"x_min":0,"x_max":0,"o":"m 525 697 b 272 597 407 697 325 665 l 272 685 l 75 685 l 75 0 l 272 0 l 272 346 b 460 549 272 467 335 549 b 629 394 581 549 629 490 l 629 -78 b 569 -147 629 -115 619 -147 b 503 -137 550 -147 526 -143 l 501 -276 b 635 -296 554 -290 594 -296 b 826 -117 760 -296 826 -229 l 826 456 b 525 697 826 608 713 697 z "},"ñ":{"ha":893,"x_min":0,"x_max":0,"o":"m 344 860 b 521 769 392 860 415 769 b 669 968 613 769 669 839 l 560 968 b 524 879 560 910 544 879 b 353 971 479 879 447 971 b 201 782 260 971 201 899 l 306 782 b 344 860 306 829 321 860 z m 522 697 b 271 583 407 697 322 657 l 271 685 l 75 685 l 75 0 l 271 0 l 271 328 b 465 549 271 474 342 549 b 629 371 574 549 629 490 l 629 0 l 825 0 l 825 447 b 522 697 825 607 706 697 z "},"o":{"ha":926,"x_min":0,"x_max":0,"o":"m 463 -12 b 885 343 714 -12 885 128 b 463 697 885 560 718 697 b 42 343 210 697 42 558 b 463 -12 42 126 213 -12 z m 463 149 b 236 343 328 149 236 224 b 463 536 236 463 326 536 b 692 343 600 536 692 463 b 463 149 692 224 599 149 z "},"ó":{"ha":926,"x_min":0,"x_max":0,"o":"m 528 771 l 746 968 l 551 968 l 396 771 z m 463 -12 b 885 343 714 -12 885 128 b 463 697 885 560 718 697 b 42 343 210 697 42 558 b 463 -12 42 126 213 -12 z m 463 149 b 236 343 328 149 236 224 b 463 536 236 463 326 536 b 692 343 600 536 692 463 b 463 149 692 224 599 149 z "},"ǒ":{"ha":926,"x_min":0,"x_max":0,"o":"m 682 968 l 543 968 l 463 883 l 385 968 l 244 968 l 463 736 z m 463 -12 b 885 343 714 -12 885 128 b 463 697 885 560 718 697 b 42 343 210 697 42 558 b 463 -12 42 126 213 -12 z m 463 149 b 236 343 328 149 236 224 b 463 536 236 463 326 536 b 692 343 600 536 692 463 b 463 149 692 224 599 149 z "},"ô":{"ha":926,"x_min":0,"x_max":0,"o":"m 383 750 l 464 842 l 543 750 l 682 750 l 464 996 l 244 750 z m 463 -12 b 885 343 714 -12 885 128 b 463 697 885 560 718 697 b 42 343 210 697 42 558 b 463 -12 42 126 213 -12 z m 463 149 b 236 343 328 149 236 224 b 463 536 236 463 326 536 b 692 343 600 536 692 463 b 463 149 692 224 599 149 z "},"ố":{"ha":926,"x_min":0,"x_max":0,"o":"m 528 1031 l 746 1228 l 551 1228 l 396 1031 z m 383 750 l 464 842 l 543 750 l 682 750 l 464 996 l 244 750 z m 463 -12 b 885 343 714 -12 885 128 b 463 697 885 560 718 697 b 42 343 210 697 42 558 b 463 -12 42 126 213 -12 z m 463 149 b 236 343 328 149 236 224 b 463 536 236 463 326 536 b 692 343 600 536 692 463 b 463 149 692 224 599 149 z "},"ộ":{"ha":926,"x_min":0,"x_max":0,"o":"m 383 750 l 464 842 l 543 750 l 682 750 l 464 996 l 244 750 z m 463 -12 b 885 343 714 -12 885 128 b 463 697 885 560 718 697 b 42 343 210 697 42 558 b 463 -12 42 126 213 -12 z m 463 149 b 236 343 328 149 236 224 b 463 536 236 463 326 536 b 692 343 600 536 692 463 b 463 149 692 224 599 149 z m 583 -262 l 583 -83 l 342 -83 l 342 -262 z "},"ồ":{"ha":926,"x_min":0,"x_max":0,"o":"m 531 1031 l 386 1228 l 193 1228 l 396 1031 z m 383 750 l 464 842 l 543 750 l 682 750 l 464 996 l 244 750 z m 463 -12 b 885 343 714 -12 885 128 b 463 697 885 560 718 697 b 42 343 210 697 42 558 b 463 -12 42 126 213 -12 z m 463 149 b 236 343 328 149 236 224 b 463 536 236 463 326 536 b 692 343 600 536 692 463 b 463 149 692 224 599 149 z "},"ổ":{"ha":926,"x_min":0,"x_max":0,"o":"m 464 842 l 543 750 l 682 750 l 478 981 b 622 1111 549 994 622 1024 b 388 1257 622 1206 528 1257 l 365 1257 l 365 1146 l 388 1146 b 494 1097 443 1146 494 1140 b 410 1047 494 1056 451 1054 l 431 972 b 444 975 435 974 440 974 l 244 750 l 383 750 z m 463 697 b 42 343 210 697 42 558 b 463 -12 42 126 213 -12 b 885 343 714 -12 885 128 b 463 697 885 560 718 697 z m 463 149 b 236 343 328 149 236 224 b 463 536 236 463 326 536 b 692 343 600 536 692 463 b 463 149 692 224 599 149 z "},"ỗ":{"ha":926,"x_min":0,"x_max":0,"o":"m 549 1029 b 697 1228 640 1029 697 1099 l 588 1228 b 551 1139 588 1169 572 1139 b 381 1231 507 1139 475 1231 b 229 1042 288 1231 229 1158 l 333 1042 b 372 1119 333 1089 349 1119 b 549 1029 419 1119 443 1029 z m 383 750 l 464 842 l 543 750 l 682 750 l 464 996 l 244 750 z m 463 -12 b 885 343 714 -12 885 128 b 463 697 885 560 718 697 b 42 343 210 697 42 558 b 463 -12 42 126 213 -12 z m 463 149 b 236 343 328 149 236 224 b 463 536 236 463 326 536 b 692 343 600 536 692 463 b 463 149 692 224 599 149 z "},"ö":{"ha":926,"x_min":0,"x_max":0,"o":"m 418 789 l 418 968 l 219 968 l 219 789 z m 706 789 l 706 968 l 507 968 l 507 789 z m 463 -12 b 885 343 714 -12 885 128 b 463 697 885 560 718 697 b 42 343 210 697 42 558 b 463 -12 42 126 213 -12 z m 463 149 b 236 343 328 149 236 224 b 463 536 236 463 326 536 b 692 343 600 536 692 463 b 463 149 692 224 599 149 z "},"ọ":{"ha":926,"x_min":0,"x_max":0,"o":"m 463 -12 b 885 343 714 -12 885 128 b 463 697 885 560 718 697 b 42 343 210 697 42 558 b 463 -12 42 126 213 -12 z m 463 149 b 236 343 328 149 236 224 b 463 536 236 463 326 536 b 692 343 600 536 692 463 b 463 149 692 224 599 149 z m 583 -262 l 583 -83 l 342 -83 l 342 -262 z "},"ò":{"ha":926,"x_min":0,"x_max":0,"o":"m 531 771 l 386 968 l 193 968 l 396 771 z m 463 -12 b 885 343 714 -12 885 128 b 463 697 885 560 718 697 b 42 343 210 697 42 558 b 463 -12 42 126 213 -12 z m 463 149 b 236 343 328 149 236 224 b 463 536 236 463 326 536 b 692 343 600 536 692 463 b 463 149 692 224 599 149 z "},"ỏ":{"ha":926,"x_min":0,"x_max":0,"o":"m 431 713 b 622 851 510 725 622 743 b 388 997 622 946 528 997 l 365 997 l 365 886 l 388 886 b 494 838 443 886 494 881 b 410 788 494 796 451 794 z m 463 -12 b 885 343 714 -12 885 128 b 463 697 885 560 718 697 b 42 343 210 697 42 558 b 463 -12 42 126 213 -12 z m 463 149 b 236 343 328 149 236 224 b 463 536 236 463 326 536 b 692 343 600 536 692 463 b 463 149 692 224 599 149 z "},"ơ":{"ha":926,"x_min":0,"x_max":0,"o":"m 889 710 b 792 586 889 631 865 586 l 792 581 b 463 697 718 656 604 697 b 42 343 210 697 42 558 b 463 -12 42 126 213 -12 b 885 343 714 -12 885 128 b 861 475 885 392 876 435 b 1014 700 969 501 1014 594 l 1014 751 l 889 751 z m 463 149 b 236 343 328 149 236 224 b 463 536 236 463 326 536 b 692 343 600 536 692 463 b 463 149 692 224 599 149 z "},"ớ":{"ha":926,"x_min":0,"x_max":0,"o":"m 551 968 l 396 771 l 528 771 l 746 968 z m 889 710 b 792 586 889 631 865 586 l 792 581 b 463 697 718 656 604 697 b 42 343 210 697 42 558 b 463 -12 42 126 213 -12 b 885 343 714 -12 885 128 b 861 475 885 392 876 435 b 1014 700 969 501 1014 594 l 1014 751 l 889 751 z m 463 149 b 236 343 328 149 236 224 b 463 536 236 463 326 536 b 692 343 600 536 692 463 b 463 149 692 224 599 149 z "},"ợ":{"ha":926,"x_min":0,"x_max":0,"o":"m 889 710 b 792 586 889 631 865 586 l 792 581 b 463 697 718 656 604 697 b 42 343 210 697 42 558 b 463 -12 42 126 213 -12 b 885 343 714 -12 885 128 b 861 475 885 392 876 435 b 1014 700 969 501 1014 594 l 1014 751 l 889 751 z m 463 149 b 236 343 328 149 236 224 b 463 536 236 463 326 536 b 692 343 600 536 692 463 b 463 149 692 224 599 149 z m 583 -262 l 583 -83 l 342 -83 l 342 -262 z "},"ờ":{"ha":926,"x_min":0,"x_max":0,"o":"m 386 968 l 193 968 l 396 771 l 531 771 z m 889 710 b 792 586 889 631 865 586 l 792 581 b 463 697 718 656 604 697 b 42 343 210 697 42 558 b 463 -12 42 126 213 -12 b 885 343 714 -12 885 128 b 861 475 885 392 876 435 b 1014 700 969 501 1014 594 l 1014 751 l 889 751 z m 463 149 b 236 343 328 149 236 224 b 463 536 236 463 326 536 b 692 343 600 536 692 463 b 463 149 692 224 599 149 z "},"ở":{"ha":926,"x_min":0,"x_max":0,"o":"m 494 838 b 410 788 494 796 451 794 l 431 713 b 622 851 510 725 622 743 b 388 997 622 946 528 997 l 365 997 l 365 886 l 388 886 b 494 838 443 886 494 881 z m 889 710 b 792 586 889 631 865 586 l 792 581 b 463 697 718 656 604 697 b 42 343 210 697 42 558 b 463 -12 42 126 213 -12 b 885 343 714 -12 885 128 b 861 475 885 392 876 435 b 1014 700 969 501 1014 594 l 1014 751 l 889 751 z m 463 149 b 236 343 328 149 236 224 b 463 536 236 463 326 536 b 692 343 600 536 692 463 b 463 149 692 224 599 149 z "},"ỡ":{"ha":926,"x_min":0,"x_max":0,"o":"m 372 860 b 549 769 419 860 443 769 b 697 968 640 769 697 839 l 588 968 b 551 879 588 910 572 879 b 381 971 507 879 475 971 b 229 782 288 971 229 899 l 333 782 b 372 860 333 829 349 860 z m 889 710 b 792 586 889 631 865 586 l 792 581 b 463 697 718 656 604 697 b 42 343 210 697 42 558 b 463 -12 42 126 213 -12 b 885 343 714 -12 885 128 b 861 475 885 392 876 435 b 1014 700 969 501 1014 594 l 1014 751 l 889 751 z m 463 149 b 236 343 328 149 236 224 b 463 536 236 463 326 536 b 692 343 600 536 692 463 b 463 149 692 224 599 149 z "},"ő":{"ha":926,"x_min":0,"x_max":0,"o":"m 393 738 l 579 968 l 417 968 l 261 738 z m 665 738 l 882 968 l 689 968 l 535 738 z m 463 -12 b 885 343 714 -12 885 128 b 463 697 885 560 718 697 b 42 343 210 697 42 558 b 463 -12 42 126 213 -12 z m 463 149 b 236 343 328 149 236 224 b 463 536 236 463 326 536 b 692 343 600 536 692 463 b 463 149 692 224 599 149 z "},"ō":{"ha":926,"x_min":0,"x_max":0,"o":"m 654 776 l 654 882 l 271 882 l 271 776 z m 463 -12 b 885 343 714 -12 885 128 b 463 697 885 560 718 697 b 42 343 210 697 42 558 b 463 -12 42 126 213 -12 z m 463 149 b 236 343 328 149 236 224 b 463 536 236 463 326 536 b 692 343 600 536 692 463 b 463 149 692 224 599 149 z "},"ø":{"ha":926,"x_min":0,"x_max":0,"o":"m 749 744 l 660 744 l 619 678 b 463 697 572 690 519 697 b 42 343 210 697 42 558 b 232 36 42 203 114 94 l 176 -57 l 264 -57 l 304 8 b 463 -12 351 -6 406 -12 b 885 343 714 -12 885 128 b 692 650 885 485 813 593 z m 236 343 b 463 536 236 463 326 536 b 531 529 486 536 510 533 l 322 185 b 236 343 268 218 236 272 z m 463 149 b 393 156 438 149 414 151 l 603 503 b 692 343 658 469 692 415 b 463 149 692 224 599 149 z "},"õ":{"ha":926,"x_min":0,"x_max":0,"o":"m 549 769 b 697 968 640 769 697 839 l 588 968 b 551 879 588 910 572 879 b 381 971 507 879 475 971 b 229 782 288 971 229 899 l 333 782 b 372 860 333 829 349 860 b 549 769 419 860 443 769 z m 463 -12 b 885 343 714 -12 885 128 b 463 697 885 560 718 697 b 42 343 210 697 42 558 b 463 -12 42 126 213 -12 z m 463 149 b 236 343 328 149 236 224 b 463 536 236 463 326 536 b 692 343 600 536 692 463 b 463 149 692 224 599 149 z "},"œ":{"ha":1524,"x_min":0,"x_max":0,"o":"m 1478 349 b 1090 697 1478 551 1340 697 b 789 583 965 697 860 656 b 463 697 715 656 603 697 b 42 343 210 697 42 558 b 463 -12 42 126 213 -12 b 788 103 600 -12 713 29 b 1118 -12 863 29 976 -12 b 1443 60 1235 -12 1335 10 l 1371 201 b 1118 149 1300 167 1204 149 b 899 283 988 149 911 200 l 1474 283 b 1478 349 1476 310 1478 332 z m 897 413 b 1096 542 911 492 993 542 b 1278 414 1214 542 1278 483 l 1278 413 z m 463 149 b 236 343 328 149 236 224 b 463 536 236 463 326 536 b 692 343 600 536 692 463 b 463 149 692 224 599 149 z "},"p":{"ha":964,"x_min":0,"x_max":0,"o":"m 518 697 b 269 596 419 697 331 661 l 269 685 l 75 685 l 75 -283 l 269 -283 l 269 93 b 526 -12 317 29 411 -12 b 918 339 757 -12 918 126 b 518 697 918 558 757 697 z m 497 133 b 269 340 364 133 269 215 b 497 549 269 467 364 549 b 724 340 629 549 724 464 b 497 133 724 217 629 133 z "},"þ":{"ha":956,"x_min":0,"x_max":0,"o":"m 551 697 b 304 594 451 697 364 658 l 304 968 l 108 968 l 108 -283 l 304 -283 l 304 110 b 561 -12 349 39 457 -12 b 913 339 767 -12 913 138 b 551 697 913 547 764 697 z m 513 133 b 304 340 396 133 304 222 b 513 549 304 458 394 549 b 717 340 632 549 717 458 b 513 133 717 222 632 133 z "},"q":{"ha":964,"x_min":0,"x_max":0,"o":"m 694 596 b 446 697 633 661 544 697 b 46 339 207 697 46 558 b 438 -12 46 126 207 -12 b 694 93 553 -12 647 29 l 694 -283 l 889 -283 l 889 685 l 694 685 z m 467 133 b 240 340 335 133 240 217 b 467 549 240 464 335 549 b 694 340 600 549 694 467 b 467 133 694 215 600 133 z "},"r":{"ha":679,"x_min":0,"x_max":0,"o":"m 494 697 b 272 592 406 697 319 657 l 272 685 l 75 685 l 75 0 l 271 0 l 271 344 b 460 529 271 472 354 529 b 567 506 492 529 539 521 l 661 658 b 494 697 607 688 557 697 z "},"ŕ":{"ha":679,"x_min":0,"x_max":0,"o":"m 389 968 l 233 771 l 365 771 l 583 968 z m 494 697 b 272 592 406 697 319 657 l 272 685 l 75 685 l 75 0 l 271 0 l 271 344 b 460 529 271 472 354 529 b 567 506 492 529 539 521 l 661 658 b 494 697 607 688 557 697 z "},"ř":{"ha":679,"x_min":0,"x_max":0,"o":"m 379 968 l 299 883 l 221 968 l 81 968 l 299 736 l 518 968 z m 494 697 b 272 592 406 697 319 657 l 272 685 l 75 685 l 75 0 l 271 0 l 271 344 b 460 529 271 472 354 529 b 567 506 492 529 539 521 l 661 658 b 494 697 607 688 557 697 z "},"ŗ":{"ha":679,"x_min":0,"x_max":0,"o":"m 494 697 b 272 592 406 697 319 657 l 272 685 l 75 685 l 75 0 l 271 0 l 271 344 b 460 529 271 472 354 529 b 567 506 492 529 539 521 l 661 658 b 494 697 607 688 557 697 z m 96 -315 l 267 -72 l 78 -72 l -10 -315 z "},"s":{"ha":799,"x_min":0,"x_max":0,"o":"m 408 -12 b 764 229 625 -12 764 88 b 260 494 764 522 260 399 b 388 551 260 533 315 551 b 631 479 479 551 556 524 l 742 588 b 401 697 676 639 561 697 b 76 475 238 697 76 628 b 571 201 76 182 571 313 b 418 133 571 163 525 133 b 151 231 303 133 214 172 l 21 132 b 408 -12 89 54 226 -12 z "},"ś":{"ha":799,"x_min":0,"x_max":0,"o":"m 476 771 l 694 968 l 500 968 l 344 771 z m 408 -12 b 764 229 625 -12 764 88 b 260 494 764 522 260 399 b 388 551 260 533 315 551 b 631 479 479 551 556 524 l 742 588 b 401 697 676 639 561 697 b 76 475 238 697 76 628 b 571 201 76 182 571 313 b 418 133 571 163 525 133 b 151 231 303 133 214 172 l 21 132 b 408 -12 89 54 226 -12 z "},"š":{"ha":799,"x_min":0,"x_max":0,"o":"m 629 968 l 490 968 l 410 883 l 332 968 l 192 968 l 410 736 z m 408 -12 b 764 229 625 -12 764 88 b 260 494 764 522 260 399 b 388 551 260 533 315 551 b 631 479 479 551 556 524 l 742 588 b 401 697 676 639 561 697 b 76 475 238 697 76 628 b 571 201 76 182 571 313 b 418 133 571 163 525 133 b 151 231 303 133 214 172 l 21 132 b 408 -12 89 54 226 -12 z "},"ş":{"ha":799,"x_min":0,"x_max":0,"o":"m 764 229 b 260 494 764 522 260 399 b 388 551 260 533 315 551 b 631 479 479 551 556 524 l 742 588 b 401 697 676 639 561 697 b 76 475 238 697 76 628 b 571 201 76 182 571 313 b 418 133 571 163 525 133 b 151 231 303 133 214 172 l 21 132 b 350 -10 82 63 197 3 l 272 -133 b 375 -143 311 -133 344 -135 b 431 -206 407 -153 431 -171 b 375 -257 431 -239 407 -257 b 314 -232 354 -257 332 -247 l 257 -319 b 369 -360 299 -351 344 -360 b 535 -197 469 -360 535 -289 b 483 -92 535 -154 519 -117 b 411 -64 464 -79 440 -69 l 456 -11 b 764 229 644 3 764 99 z "},"ș":{"ha":799,"x_min":0,"x_max":0,"o":"m 408 -12 b 764 229 625 -12 764 88 b 260 494 764 522 260 399 b 388 551 260 533 315 551 b 631 479 479 551 556 524 l 742 588 b 401 697 676 639 561 697 b 76 475 238 697 76 628 b 571 201 76 182 571 313 b 418 133 571 163 525 133 b 151 231 303 133 214 172 l 21 132 b 408 -12 89 54 226 -12 z m 333 -315 l 504 -72 l 315 -72 l 228 -315 z "},"ß":{"ha":1099,"x_min":0,"x_max":0,"o":"m 710 -12 b 1064 229 928 -12 1064 81 b 735 425 1064 396 871 411 b 567 500 643 436 567 446 b 683 572 567 554 617 568 b 932 758 867 579 932 675 b 531 982 932 907 769 982 b 69 603 128 982 69 771 l 69 0 l 275 0 l 275 603 b 544 831 275 700 292 831 b 739 750 653 831 739 799 b 663 701 739 717 714 706 b 382 500 503 694 382 644 b 707 288 382 326 571 304 b 874 206 797 275 874 263 b 721 126 874 158 824 126 b 479 240 569 126 508 190 l 325 179 b 710 -12 369 79 514 -12 z "},"t":{"ha":624,"x_min":0,"x_max":0,"o":"m 464 128 b 358 228 389 128 358 163 l 358 549 l 571 549 l 571 685 l 358 685 l 358 938 l 164 850 l 164 685 l 26 685 l 26 549 l 164 549 l 164 201 b 418 -12 164 64 253 -12 b 572 7 483 -12 522 -4 l 572 143 b 464 128 529 132 492 128 z "},"ŧ":{"ha":624,"x_min":0,"x_max":0,"o":"m 464 128 b 358 228 389 128 358 163 l 358 283 l 568 283 l 568 404 l 358 404 l 358 549 l 571 549 l 571 685 l 358 685 l 358 938 l 164 850 l 164 685 l 26 685 l 26 549 l 164 549 l 164 404 l 32 404 l 32 283 l 164 283 l 164 201 b 418 -12 164 64 253 -12 b 572 7 483 -12 522 -4 l 572 143 b 464 128 529 132 492 128 z "},"ť":{"ha":624,"x_min":0,"x_max":0,"o":"m 536 1092 l 458 775 l 564 775 l 726 1092 z m 358 549 l 571 549 l 571 685 l 358 685 l 358 938 l 164 850 l 164 685 l 26 685 l 26 549 l 164 549 l 164 201 b 418 -12 164 64 253 -12 b 572 7 483 -12 522 -4 l 572 143 b 464 128 529 132 492 128 b 358 228 389 128 358 163 z "},"ţ":{"ha":624,"x_min":0,"x_max":0,"o":"m 572 143 b 464 128 529 132 492 128 b 358 228 389 128 358 163 l 358 549 l 571 549 l 571 685 l 358 685 l 358 938 l 164 850 l 164 685 l 26 685 l 26 549 l 164 549 l 164 201 b 324 -3 164 93 219 22 l 240 -133 b 343 -143 279 -133 313 -135 b 399 -206 375 -153 399 -171 b 343 -257 399 -239 375 -257 b 282 -232 322 -257 300 -247 l 225 -319 b 338 -360 267 -351 313 -360 b 503 -197 438 -360 503 -289 b 451 -92 503 -154 488 -117 b 379 -64 432 -79 408 -69 l 422 -12 b 572 7 485 -12 524 -4 z "},"ț":{"ha":624,"x_min":0,"x_max":0,"o":"m 464 128 b 358 228 389 128 358 163 l 358 549 l 571 549 l 571 685 l 358 685 l 358 938 l 164 850 l 164 685 l 26 685 l 26 549 l 164 549 l 164 201 b 418 -12 164 64 253 -12 b 572 7 483 -12 522 -4 l 572 143 b 464 128 529 132 492 128 z m 303 -315 l 474 -72 l 285 -72 l 197 -315 z "},"u":{"ha":890,"x_min":0,"x_max":0,"o":"m 618 363 b 428 136 618 233 576 136 b 260 299 319 136 260 192 l 260 685 l 65 685 l 65 264 b 372 -12 65 83 179 -12 b 618 86 475 -12 561 17 l 618 0 l 814 0 l 814 685 l 618 685 z "},"ú":{"ha":890,"x_min":0,"x_max":0,"o":"m 526 968 l 371 771 l 503 771 l 721 968 z m 618 363 b 428 136 618 233 576 136 b 260 299 319 136 260 192 l 260 685 l 65 685 l 65 264 b 372 -12 65 83 179 -12 b 618 86 475 -12 561 17 l 618 0 l 814 0 l 814 685 l 618 685 z "},"ǔ":{"ha":890,"x_min":0,"x_max":0,"o":"m 518 968 l 438 883 l 360 968 l 219 968 l 438 736 l 657 968 z m 618 363 b 428 136 618 233 576 136 b 260 299 319 136 260 192 l 260 685 l 65 685 l 65 264 b 372 -12 65 83 179 -12 b 618 86 475 -12 561 17 l 618 0 l 814 0 l 814 685 l 618 685 z "},"û":{"ha":890,"x_min":0,"x_max":0,"o":"m 518 750 l 657 750 l 439 996 l 219 750 l 358 750 l 439 842 z m 618 363 b 428 136 618 233 576 136 b 260 299 319 136 260 192 l 260 685 l 65 685 l 65 264 b 372 -12 65 83 179 -12 b 618 86 475 -12 561 17 l 618 0 l 814 0 l 814 685 l 618 685 z "},"ü":{"ha":890,"x_min":0,"x_max":0,"o":"m 194 968 l 194 789 l 393 789 l 393 968 z m 482 968 l 482 789 l 681 789 l 681 968 z m 618 363 b 428 136 618 233 576 136 b 260 299 319 136 260 192 l 260 685 l 65 685 l 65 264 b 372 -12 65 83 179 -12 b 618 86 475 -12 561 17 l 618 0 l 814 0 l 814 685 l 618 685 z "},"ǘ":{"ha":890,"x_min":0,"x_max":0,"o":"m 526 1251 l 371 1054 l 503 1054 l 721 1251 z m 194 968 l 194 789 l 393 789 l 393 968 z m 681 789 l 681 968 l 482 968 l 482 789 z m 618 363 b 428 136 618 233 576 136 b 260 299 319 136 260 192 l 260 685 l 65 685 l 65 264 b 372 -12 65 83 179 -12 b 618 86 475 -12 561 17 l 618 0 l 814 0 l 814 685 l 618 685 z "},"ǚ":{"ha":890,"x_min":0,"x_max":0,"o":"m 518 1251 l 438 1167 l 360 1251 l 219 1251 l 438 1019 l 657 1251 z m 194 968 l 194 789 l 393 789 l 393 968 z m 681 789 l 681 968 l 482 968 l 482 789 z m 618 363 b 428 136 618 233 576 136 b 260 299 319 136 260 192 l 260 685 l 65 685 l 65 264 b 372 -12 65 83 179 -12 b 618 86 475 -12 561 17 l 618 0 l 814 0 l 814 685 l 618 685 z "},"ǜ":{"ha":890,"x_min":0,"x_max":0,"o":"m 360 1251 l 167 1251 l 369 1054 l 504 1054 z m 393 789 l 393 968 l 194 968 l 194 789 z m 681 789 l 681 968 l 482 968 l 482 789 z m 618 363 b 428 136 618 233 576 136 b 260 299 319 136 260 192 l 260 685 l 65 685 l 65 264 b 372 -12 65 83 179 -12 b 618 86 475 -12 561 17 l 618 0 l 814 0 l 814 685 l 618 685 z "},"ǖ":{"ha":890,"x_min":0,"x_max":0,"o":"m 246 1165 l 246 1060 l 629 1060 l 629 1165 z m 194 968 l 194 789 l 393 789 l 393 968 z m 681 789 l 681 968 l 482 968 l 482 789 z m 618 363 b 428 136 618 233 576 136 b 260 299 319 136 260 192 l 260 685 l 65 685 l 65 264 b 372 -12 65 83 179 -12 b 618 86 475 -12 561 17 l 618 0 l 814 0 l 814 685 l 618 685 z "},"ụ":{"ha":890,"x_min":0,"x_max":0,"o":"m 618 363 b 428 136 618 233 576 136 b 260 299 319 136 260 192 l 260 685 l 65 685 l 65 264 b 372 -12 65 83 179 -12 b 618 86 475 -12 561 17 l 618 0 l 814 0 l 814 685 l 618 685 z m 568 -262 l 568 -83 l 326 -83 l 326 -262 z "},"ù":{"ha":890,"x_min":0,"x_max":0,"o":"m 360 968 l 167 968 l 369 771 l 504 771 z m 618 363 b 428 136 618 233 576 136 b 260 299 319 136 260 192 l 260 685 l 65 685 l 65 264 b 372 -12 65 83 179 -12 b 618 86 475 -12 561 17 l 618 0 l 814 0 l 814 685 l 618 685 z "},"ủ":{"ha":890,"x_min":0,"x_max":0,"o":"m 468 838 b 383 788 468 796 425 794 l 404 713 b 596 851 483 725 596 743 b 361 997 596 946 501 997 l 339 997 l 339 886 l 361 886 b 468 838 417 886 468 881 z m 618 363 b 428 136 618 233 576 136 b 260 299 319 136 260 192 l 260 685 l 65 685 l 65 264 b 372 -12 65 83 179 -12 b 618 86 475 -12 561 17 l 618 0 l 814 0 l 814 685 l 618 685 z "},"ư":{"ha":890,"x_min":0,"x_max":0,"o":"m 868 808 b 771 685 868 729 844 685 l 618 685 l 618 363 b 428 136 618 233 576 136 b 260 299 319 136 260 192 l 260 685 l 65 685 l 65 264 b 372 -12 65 83 179 -12 b 618 86 475 -12 561 17 l 618 0 l 814 0 l 814 568 b 993 799 942 586 993 686 l 993 850 l 868 850 z "},"ứ":{"ha":890,"x_min":0,"x_max":0,"o":"m 526 968 l 371 771 l 503 771 l 721 968 z m 868 808 b 771 685 868 729 844 685 l 618 685 l 618 363 b 428 136 618 233 576 136 b 260 299 319 136 260 192 l 260 685 l 65 685 l 65 264 b 372 -12 65 83 179 -12 b 618 86 475 -12 561 17 l 618 0 l 814 0 l 814 568 b 993 799 942 586 993 686 l 993 850 l 868 850 z "},"ự":{"ha":890,"x_min":0,"x_max":0,"o":"m 868 808 b 771 685 868 729 844 685 l 618 685 l 618 363 b 428 136 618 233 576 136 b 260 299 319 136 260 192 l 260 685 l 65 685 l 65 264 b 372 -12 65 83 179 -12 b 618 86 475 -12 561 17 l 618 0 l 814 0 l 814 568 b 993 799 942 586 993 686 l 993 850 l 868 850 z m 568 -262 l 568 -83 l 326 -83 l 326 -262 z "},"ừ":{"ha":890,"x_min":0,"x_max":0,"o":"m 360 968 l 167 968 l 369 771 l 504 771 z m 868 808 b 771 685 868 729 844 685 l 618 685 l 618 363 b 428 136 618 233 576 136 b 260 299 319 136 260 192 l 260 685 l 65 685 l 65 264 b 372 -12 65 83 179 -12 b 618 86 475 -12 561 17 l 618 0 l 814 0 l 814 568 b 993 799 942 586 993 686 l 993 850 l 868 850 z "},"ử":{"ha":890,"x_min":0,"x_max":0,"o":"m 468 838 b 383 788 468 796 425 794 l 404 713 b 596 851 483 725 596 743 b 361 997 596 946 501 997 l 339 997 l 339 886 l 361 886 b 468 838 417 886 468 881 z m 868 808 b 771 685 868 729 844 685 l 618 685 l 618 363 b 428 136 618 233 576 136 b 260 299 319 136 260 192 l 260 685 l 65 685 l 65 264 b 372 -12 65 83 179 -12 b 618 86 475 -12 561 17 l 618 0 l 814 0 l 814 568 b 993 799 942 586 993 686 l 993 850 l 868 850 z "},"ữ":{"ha":890,"x_min":0,"x_max":0,"o":"m 346 860 b 522 769 393 860 417 769 b 671 968 614 769 671 839 l 561 968 b 525 879 561 910 546 879 b 354 971 481 879 449 971 b 203 782 261 971 203 899 l 307 782 b 346 860 307 829 322 860 z m 868 808 b 771 685 868 729 844 685 l 618 685 l 618 363 b 428 136 618 233 576 136 b 260 299 319 136 260 192 l 260 685 l 65 685 l 65 264 b 372 -12 65 83 179 -12 b 618 86 475 -12 561 17 l 618 0 l 814 0 l 814 568 b 993 799 942 586 993 686 l 993 850 l 868 850 z "},"ű":{"ha":890,"x_min":0,"x_max":0,"o":"m 390 968 l 235 738 l 367 738 l 553 968 z m 856 968 l 663 968 l 508 738 l 639 738 z m 618 363 b 428 136 618 233 576 136 b 260 299 319 136 260 192 l 260 685 l 65 685 l 65 264 b 372 -12 65 83 179 -12 b 618 86 475 -12 561 17 l 618 0 l 814 0 l 814 685 l 618 685 z "},"ū":{"ha":890,"x_min":0,"x_max":0,"o":"m 246 882 l 246 776 l 629 776 l 629 882 z m 618 363 b 428 136 618 233 576 136 b 260 299 319 136 260 192 l 260 685 l 65 685 l 65 264 b 372 -12 65 83 179 -12 b 618 86 475 -12 561 17 l 618 0 l 814 0 l 814 685 l 618 685 z "},"ų":{"ha":890,"x_min":0,"x_max":0,"o":"m 785 -161 b 718 -200 769 -185 749 -200 b 669 -147 692 -200 669 -187 b 814 0 669 -72 778 -14 l 814 685 l 618 685 l 618 363 b 428 136 618 233 576 136 b 260 299 319 136 260 192 l 260 685 l 65 685 l 65 264 b 372 -12 65 83 179 -12 b 618 86 475 -12 561 17 l 618 0 l 669 0 b 561 -167 628 -24 561 -76 b 724 -311 561 -253 631 -311 b 878 -224 800 -311 846 -271 z "},"ů":{"ha":890,"x_min":0,"x_max":0,"o":"m 439 729 b 601 892 528 729 601 801 b 439 1054 601 983 525 1054 b 275 892 347 1054 275 981 b 439 729 275 806 346 729 z m 439 957 b 504 894 481 957 504 932 b 439 826 504 854 478 826 b 374 894 401 826 374 854 b 439 957 374 931 397 957 z m 618 363 b 428 136 618 233 576 136 b 260 299 319 136 260 192 l 260 685 l 65 685 l 65 264 b 372 -12 65 83 179 -12 b 618 86 475 -12 561 17 l 618 0 l 814 0 l 814 685 l 618 685 z "},"ũ":{"ha":890,"x_min":0,"x_max":0,"o":"m 346 860 b 522 769 393 860 417 769 b 671 968 614 769 671 839 l 561 968 b 525 879 561 910 546 879 b 354 971 481 879 449 971 b 203 782 261 971 203 899 l 307 782 b 346 860 307 829 322 860 z m 618 363 b 428 136 618 233 576 136 b 260 299 319 136 260 192 l 260 685 l 65 685 l 65 264 b 372 -12 65 83 179 -12 b 618 86 475 -12 561 17 l 618 0 l 814 0 l 814 685 l 618 685 z "},"v":{"ha":879,"x_min":0,"x_max":0,"o":"m 522 0 l 865 685 l 642 685 l 440 225 l 240 685 l 13 685 l 358 0 z "},"w":{"ha":1251,"x_min":0,"x_max":0,"o":"m 456 0 l 625 450 l 801 0 l 975 0 l 1235 685 l 1025 685 l 876 258 l 710 685 l 540 685 l 375 257 l 226 685 l 17 685 l 276 0 z "},"ẃ":{"ha":1251,"x_min":0,"x_max":0,"o":"m 692 771 l 910 968 l 715 968 l 560 771 z m 456 0 l 625 450 l 801 0 l 975 0 l 1235 685 l 1025 685 l 876 258 l 710 685 l 540 685 l 375 257 l 226 685 l 17 685 l 276 0 z "},"ŵ":{"ha":1251,"x_min":0,"x_max":0,"o":"m 546 750 l 626 842 l 706 750 l 844 750 l 626 996 l 407 750 z m 456 0 l 625 450 l 801 0 l 975 0 l 1235 685 l 1025 685 l 876 258 l 710 685 l 540 685 l 375 257 l 226 685 l 17 685 l 276 0 z "},"ẅ":{"ha":1251,"x_min":0,"x_max":0,"o":"m 582 789 l 582 968 l 383 968 l 383 789 z m 869 789 l 869 968 l 671 968 l 671 789 z m 456 0 l 625 450 l 801 0 l 975 0 l 1235 685 l 1025 685 l 876 258 l 710 685 l 540 685 l 375 257 l 226 685 l 17 685 l 276 0 z "},"ẁ":{"ha":1251,"x_min":0,"x_max":0,"o":"m 693 771 l 549 968 l 356 968 l 558 771 z m 456 0 l 625 450 l 801 0 l 975 0 l 1235 685 l 1025 685 l 876 258 l 710 685 l 540 685 l 375 257 l 226 685 l 17 685 l 276 0 z "},"x":{"ha":888,"x_min":0,"x_max":0,"o":"m 263 0 l 442 228 l 624 0 l 867 0 l 572 346 l 865 685 l 624 685 l 442 463 l 263 685 l 19 685 l 311 346 l 19 0 z "},"y":{"ha":903,"x_min":0,"x_max":0,"o":"m 410 -283 l 889 685 l 663 685 l 456 217 l 243 685 l 14 685 l 349 19 l 200 -283 z "},"ý":{"ha":903,"x_min":0,"x_max":0,"o":"m 518 771 l 736 968 l 542 968 l 386 771 z m 410 -283 l 889 685 l 663 685 l 456 217 l 243 685 l 14 685 l 349 19 l 200 -283 z "},"ŷ":{"ha":903,"x_min":0,"x_max":0,"o":"m 374 750 l 454 842 l 533 750 l 672 750 l 454 996 l 235 750 z m 410 -283 l 889 685 l 663 685 l 456 217 l 243 685 l 14 685 l 349 19 l 200 -283 z "},"ÿ":{"ha":903,"x_min":0,"x_max":0,"o":"m 408 789 l 408 968 l 210 968 l 210 789 z m 696 789 l 696 968 l 497 968 l 497 789 z m 410 -283 l 889 685 l 663 685 l 456 217 l 243 685 l 14 685 l 349 19 l 200 -283 z "},"ỵ":{"ha":903,"x_min":0,"x_max":0,"o":"m 410 -283 l 889 685 l 663 685 l 456 217 l 243 685 l 14 685 l 349 19 l 200 -283 z m 840 -262 l 840 -83 l 599 -83 l 599 -262 z "},"ỳ":{"ha":903,"x_min":0,"x_max":0,"o":"m 521 771 l 376 968 l 183 968 l 386 771 z m 410 -283 l 889 685 l 663 685 l 456 217 l 243 685 l 14 685 l 349 19 l 200 -283 z "},"ỷ":{"ha":903,"x_min":0,"x_max":0,"o":"m 421 713 b 613 851 500 725 613 743 b 378 997 613 946 518 997 l 356 997 l 356 886 l 378 886 b 485 838 433 886 485 881 b 400 788 485 796 442 794 z m 410 -283 l 889 685 l 663 685 l 456 217 l 243 685 l 14 685 l 349 19 l 200 -283 z "},"ỹ":{"ha":903,"x_min":0,"x_max":0,"o":"m 539 769 b 688 968 631 769 688 839 l 578 968 b 542 879 578 910 563 879 b 371 971 497 879 465 971 b 219 782 278 971 219 899 l 324 782 b 363 860 324 829 339 860 b 539 769 410 860 433 769 z m 410 -283 l 889 685 l 663 685 l 456 217 l 243 685 l 14 685 l 349 19 l 200 -283 z "},"z":{"ha":832,"x_min":0,"x_max":0,"o":"m 775 550 l 775 685 l 65 685 l 65 539 l 507 539 l 46 125 l 46 0 l 778 0 l 778 146 l 331 146 z "},"ź":{"ha":832,"x_min":0,"x_max":0,"o":"m 504 968 l 349 771 l 481 771 l 699 968 z m 775 550 l 775 685 l 65 685 l 65 539 l 507 539 l 46 125 l 46 0 l 778 0 l 778 146 l 331 146 z "},"ž":{"ha":832,"x_min":0,"x_max":0,"o":"m 496 968 l 415 883 l 338 968 l 197 968 l 415 736 l 635 968 z m 775 550 l 775 685 l 65 685 l 65 539 l 507 539 l 46 125 l 46 0 l 778 0 l 778 146 l 331 146 z "},"ż":{"ha":832,"x_min":0,"x_max":0,"o":"m 293 968 l 293 789 l 538 789 l 538 968 z m 775 550 l 775 685 l 65 685 l 65 539 l 507 539 l 46 125 l 46 0 l 778 0 l 778 146 l 331 146 z "},"ﬁ":{"ha":893,"x_min":0,"x_max":0,"o":"m 363 685 l 363 719 b 529 842 363 792 417 842 b 749 788 617 842 686 822 l 839 913 b 519 981 753 956 660 981 b 165 732 335 981 165 889 l 165 685 l 26 685 l 26 549 l 165 549 l 165 0 l 363 0 l 363 549 l 640 549 l 640 0 l 835 0 l 835 685 z "},"ﬂ":{"ha":1063,"x_min":0,"x_max":0,"o":"m 896 -14 b 1032 7 940 -14 993 -6 l 1031 157 b 967 149 1008 151 982 149 b 907 217 928 149 907 171 l 907 911 b 529 982 749 975 657 982 b 167 731 339 982 167 886 l 167 685 l 26 685 l 26 536 l 167 536 l 167 0 l 379 0 l 379 536 l 550 536 l 550 685 l 379 685 l 379 717 b 540 842 379 792 432 842 b 694 822 594 842 647 833 l 694 169 b 896 -14 694 53 769 -14 z "},"ª":{"ha":581,"x_min":0,"x_max":0,"o":"m 239 483 b 394 557 299 483 353 508 l 397 496 l 483 496 l 483 788 b 282 981 483 904 410 981 b 79 871 197 981 135 950 l 154 821 b 285 894 183 863 222 894 b 386 819 343 894 378 867 b 392 783 390 808 392 799 l 257 783 b 65 638 147 783 65 738 b 239 483 65 544 139 483 z m 260 572 b 168 635 199 572 168 600 b 264 699 168 674 200 699 l 392 699 b 375 635 389 674 382 650 b 260 572 350 592 314 572 z "},"º":{"ha":610,"x_min":0,"x_max":0,"o":"m 304 489 b 547 735 447 489 547 599 b 304 981 547 869 447 981 b 61 735 163 981 61 869 b 304 489 61 601 160 489 z m 304 581 b 171 735 210 581 171 650 b 304 889 171 821 211 889 b 439 735 400 889 439 819 b 304 581 439 650 399 581 z "},"Δ":{"ha":810,"x_min":0,"x_max":0,"o":"m 811 0 l 421 968 l 381 968 l -8 0 z m 401 686 l 611 136 l 194 136 z "},"Ω":{"ha":1101,"x_min":0,"x_max":0,"o":"m 869 157 b 1031 514 975 235 1031 363 b 535 999 1031 792 819 999 b 39 517 251 999 39 792 b 201 157 39 368 93 240 l 21 157 l 21 0 l 458 0 l 458 138 b 211 496 315 189 211 297 b 535 832 211 699 342 832 b 857 493 726 832 857 699 b 610 138 857 289 747 181 l 610 0 l 1047 0 l 1047 157 z "},"μ":{"ha":872,"x_min":0,"x_max":0,"o":"m 228 -224 l 228 42 b 392 -12 261 6 318 -12 b 614 78 485 -12 568 21 l 614 0 l 778 0 l 778 685 l 614 685 l 614 313 b 429 147 614 267 579 147 b 258 296 311 147 258 213 l 258 685 l 93 685 l 93 -224 z "},"π":{"ha":894,"x_min":0,"x_max":0,"o":"m 736 -12 b 871 24 785 -12 824 -4 l 826 138 b 768 118 810 126 783 118 b 704 167 717 118 704 138 l 704 529 l 813 529 l 813 685 l 36 685 l 36 529 l 128 529 l 128 0 l 276 0 l 276 529 l 557 529 l 557 156 b 736 -12 557 104 569 -12 z "},"⁄":{"ha":221,"x_min":0,"x_max":0,"o":"m -124 0 l 456 968 l 343 968 l -235 0 z "},".":{"ha":368,"x_min":0,"x_max":0,"o":"m 294 0 l 294 199 l 74 199 l 74 0 z "},",":{"ha":378,"x_min":0,"x_max":0,"o":"m 189 -201 l 360 228 l 122 228 l 51 -201 z "},":":{"ha":369,"x_min":0,"x_max":0,"o":"m 296 453 l 296 654 l 74 654 l 74 453 z m 296 0 l 296 199 l 74 199 l 74 0 z "},";":{"ha":393,"x_min":0,"x_max":0,"o":"m 332 453 l 332 654 l 113 654 l 113 453 z m 188 -201 l 358 228 l 121 228 l 50 -201 z "},"…":{"ha":1028,"x_min":0,"x_max":0,"o":"m 271 0 l 271 199 l 74 199 l 74 0 z m 613 0 l 613 199 l 417 199 l 417 0 z m 954 0 l 954 199 l 758 199 l 758 0 z "},"!":{"ha":369,"x_min":0,"x_max":0,"o":"m 264 306 l 289 968 l 78 968 l 104 306 z m 296 0 l 296 199 l 74 199 l 74 0 z "},"¡":{"ha":369,"x_min":0,"x_max":0,"o":"m 74 685 l 74 486 l 296 486 l 296 685 z m 106 379 l 79 -283 l 290 -283 l 264 379 z "},"?":{"ha":765,"x_min":0,"x_max":0,"o":"m 469 303 l 469 343 b 747 715 469 500 747 447 b 393 982 747 910 583 982 b 11 661 168 982 11 867 l 200 661 b 390 818 200 754 260 818 b 564 707 496 818 564 778 b 290 349 564 551 290 599 l 290 303 z m 493 0 l 493 199 l 272 199 l 272 0 z "},"¿":{"ha":776,"x_min":0,"x_max":0,"o":"m 311 685 l 311 486 l 532 486 l 532 685 z m 335 382 l 335 342 b 57 -31 335 185 57 238 b 411 -297 57 -225 221 -297 b 793 24 636 -297 793 -182 l 604 24 b 414 -133 604 -69 544 -133 b 240 -22 308 -133 240 -93 b 514 336 240 133 514 86 l 514 382 z "},"·":{"ha":358,"x_min":0,"x_max":0,"o":"m 178 369 b 315 510 256 369 315 433 b 178 642 315 585 253 642 b 42 510 104 642 42 582 b 178 369 42 432 101 369 z "},"•":{"ha":543,"x_min":0,"x_max":0,"o":"m 272 90 b 510 329 404 90 510 204 b 272 569 510 461 399 569 b 33 329 140 569 33 460 b 272 90 33 200 140 90 z "},"*":{"ha":525,"x_min":0,"x_max":0,"o":"m 299 503 l 299 671 l 446 588 l 482 650 l 336 736 l 482 821 l 446 883 l 299 800 l 299 968 l 225 968 l 225 800 l 79 883 l 42 821 l 189 736 l 42 650 l 79 588 l 225 671 l 225 503 z "},"#":{"ha":874,"x_min":0,"x_max":0,"o":"m 250 0 l 308 283 l 475 283 l 413 0 l 547 0 l 608 283 l 800 283 l 800 406 l 636 406 l 674 576 l 857 576 l 857 700 l 699 700 l 761 968 l 624 968 l 565 700 l 401 700 l 464 968 l 325 968 l 263 706 l 72 706 l 72 576 l 236 576 l 201 406 l 17 406 l 17 283 l 175 283 l 114 0 z m 371 576 l 536 576 l 503 406 l 339 406 z "},"/":{"ha":599,"x_min":0,"x_max":0,"o":"m 114 -294 l 615 968 l 485 968 l -18 -294 z "},"\\":{"ha":617,"x_min":0,"x_max":0,"o":"m 131 968 l 0 968 l 503 -294 l 633 -294 z "},"‣":{"ha":538,"x_min":0,"x_max":0,"o":"m 528 365 l 75 628 l 75 100 z "},"‥":{"ha":690,"x_min":0,"x_max":0,"o":"m 274 0 l 274 194 l 74 194 l 74 0 z m 617 0 l 617 194 l 417 194 l 417 0 z "},"(":{"ha":347,"x_min":0,"x_max":0,"o":"m 350 -94 b 164 481 222 65 164 258 b 351 1056 164 715 225 899 l 193 1056 b 26 481 96 947 26 751 b 194 -94 26 207 99 10 z "},")":{"ha":347,"x_min":0,"x_max":0,"o":"m 153 -94 b 321 481 249 10 321 207 b 154 1056 321 751 251 947 l -4 1056 b 183 481 124 899 183 715 b -3 -94 183 258 126 65 z "},"{":{"ha":364,"x_min":0,"x_max":0,"o":"m 354 -108 l 354 6 l 303 6 b 239 90 246 6 239 58 l 239 292 b 140 458 239 382 200 431 l 140 465 b 239 632 210 501 239 547 l 239 832 b 301 918 239 893 260 918 l 354 918 l 354 1028 l 243 1028 b 90 833 146 1028 90 957 l 90 635 b -1 521 90 543 33 535 l -1 407 b 90 289 36 392 90 381 l 90 89 b 246 -108 90 -29 140 -108 z "},"}":{"ha":364,"x_min":0,"x_max":0,"o":"m 119 -108 b 272 89 222 -108 272 -31 l 272 289 b 364 407 272 374 321 390 l 364 521 b 272 635 322 536 272 551 l 272 833 b 119 1028 272 956 218 1028 l 8 1028 l 8 918 l 61 918 b 126 832 108 918 126 882 l 126 632 b 225 465 126 547 156 499 l 225 458 b 126 292 144 422 126 361 l 126 90 b 60 6 126 25 99 6 l 8 6 l 8 -108 z "},"[":{"ha":372,"x_min":0,"x_max":0,"o":"m 365 -115 l 365 1 l 207 1 l 207 965 l 365 965 l 365 1081 l 67 1081 l 67 -115 z "},"]":{"ha":372,"x_min":0,"x_max":0,"o":"m 306 -115 l 306 1081 l 7 1081 l 7 965 l 167 965 l 167 1 l 7 1 l 7 -115 z "},"-":{"ha":504,"x_min":0,"x_max":0,"o":"m 454 344 l 454 475 l 50 475 l 50 344 z "},"­":{"ha":600,"x_min":0,"x_max":0,"o":"m 550 344 l 550 475 l 50 475 l 50 344 z "},"–":{"ha":689,"x_min":0,"x_max":0,"o":"m 692 344 l 692 475 l -3 475 l -3 344 z "},"—":{"ha":1397,"x_min":0,"x_max":0,"o":"m 1400 344 l 1400 475 l -3 475 l -3 344 z "},"―":{"ha":961,"x_min":0,"x_max":0,"o":"m 913 350 l 913 474 l 50 474 l 50 350 z "},"_":{"ha":685,"x_min":0,"x_max":0,"o":"m 635 -133 l 635 0 l 50 0 l 50 -133 z "},"‚":{"ha":326,"x_min":0,"x_max":0,"o":"m 144 -206 l 319 182 l 118 182 l 31 -206 z "},"„":{"ha":631,"x_min":0,"x_max":0,"o":"m 144 -206 l 319 182 l 118 182 l 31 -206 z m 449 -206 l 624 182 l 421 182 l 335 -206 z "},"“":{"ha":618,"x_min":0,"x_max":0,"o":"m 210 581 l 297 968 l 182 968 l 7 581 z m 500 581 l 585 968 l 469 968 l 299 581 z "},"”":{"ha":615,"x_min":0,"x_max":0,"o":"m 144 582 l 319 968 l 118 968 l 31 582 z m 435 582 l 608 968 l 408 968 l 321 582 z "},"‘":{"ha":328,"x_min":0,"x_max":0,"o":"m 210 581 l 297 968 l 182 968 l 7 581 z "},"’":{"ha":326,"x_min":0,"x_max":0,"o":"m 144 582 l 319 968 l 118 968 l 31 582 z "},"«":{"ha":708,"x_min":0,"x_max":0,"o":"m 349 204 l 181 350 l 349 496 l 349 682 l -4 350 l 349 18 z m 669 204 l 501 350 l 669 496 l 669 682 l 317 350 l 669 18 z "},"»":{"ha":742,"x_min":0,"x_max":0,"o":"m 426 350 l 72 682 l 72 496 l 240 350 l 72 204 l 72 18 z m 746 350 l 393 682 l 393 496 l 561 350 l 393 204 l 393 18 z "},"‹":{"ha":388,"x_min":0,"x_max":0,"o":"m 349 204 l 182 350 l 349 496 l 349 682 l -4 350 l 349 18 z "},"›":{"ha":388,"x_min":0,"x_max":0,"o":"m 392 350 l 39 682 l 39 496 l 207 350 l 39 204 l 39 18 z "},"\"":{"ha":547,"x_min":0,"x_max":0,"o":"m 210 508 l 210 968 l 65 968 l 65 508 z m 483 508 l 483 968 l 338 968 l 338 508 z "},"'":{"ha":275,"x_min":0,"x_max":0,"o":"m 211 508 l 211 968 l 65 968 l 65 508 z "}," ":{"ha":386,"x_min":0,"x_max":0,"o":""},"¢":{"ha":889,"x_min":0,"x_max":0,"o":"m 464 149 b 236 340 319 149 236 231 b 464 536 236 450 317 536 b 674 429 568 536 639 492 l 854 497 b 539 693 789 610 692 678 l 539 835 l 392 835 l 392 693 b 42 340 168 668 42 524 b 392 -8 42 154 174 17 l 392 -157 l 539 -157 l 539 -8 b 846 189 688 8 796 78 l 669 257 b 464 149 643 188 567 149 z "},"¤":{"ha":788,"x_min":0,"x_max":0,"o":"m 214 160 b 572 160 321 89 464 88 l 647 85 l 740 182 l 667 253 b 667 610 739 360 739 501 l 740 683 l 646 776 l 572 703 b 217 701 471 774 328 776 l 142 778 l 50 681 l 122 610 b 122 254 54 510 50 364 l 50 182 l 140 85 z m 253 294 b 256 568 182 367 182 494 b 531 568 332 644 451 646 b 531 294 610 490 608 374 b 253 294 458 218 332 217 z "},"$":{"ha":997,"x_min":0,"x_max":0,"o":"m 985 289 b 565 596 985 519 740 564 b 318 719 386 628 318 651 b 486 825 318 788 378 825 b 794 707 608 825 721 782 l 938 825 b 581 986 838 922 726 972 l 581 1122 l 433 1122 l 433 986 b 100 699 228 968 100 864 b 511 401 100 475 301 435 b 768 268 696 371 768 346 b 560 143 768 185 697 143 b 239 318 407 143 288 200 l 25 275 b 435 -15 81 124 188 13 l 435 -162 l 582 -162 l 582 -21 b 985 289 860 -14 985 113 z "},"€":{"ha":888,"x_min":0,"x_max":0,"o":"m 571 158 b 307 328 442 158 351 225 l 676 328 l 676 444 l 279 444 b 278 483 278 457 278 469 b 281 535 278 501 279 518 l 676 535 l 676 653 l 313 653 b 571 810 358 749 446 810 b 768 742 657 810 721 783 l 863 893 b 571 981 792 950 696 981 b 122 653 340 981 179 851 l 38 653 l 38 535 l 101 535 b 100 483 100 518 100 501 b 101 444 100 471 100 457 l 38 444 l 38 328 l 119 328 b 571 -12 172 124 336 -12 b 861 75 693 -12 790 18 l 768 225 b 571 158 724 189 664 158 z "},"ƒ":{"ha":611,"x_min":0,"x_max":0,"o":"m 203 -297 b 385 -114 329 -297 385 -229 l 385 549 l 588 549 l 588 685 l 385 685 l 385 742 b 469 838 385 806 415 838 b 549 819 486 838 517 832 l 611 953 b 447 981 554 972 508 981 b 192 746 250 981 192 881 l 192 685 l 26 685 l 26 549 l 190 549 l 190 -67 b 133 -135 190 -111 171 -135 b 71 -126 115 -135 93 -132 l 71 -276 b 203 -297 108 -289 160 -297 z "},"£":{"ha":761,"x_min":0,"x_max":0,"o":"m 358 292 b 350 399 363 325 357 357 l 590 399 l 590 557 l 325 557 b 292 683 304 600 292 647 b 428 818 292 761 339 818 b 578 707 492 818 543 783 l 735 774 b 435 978 686 910 581 978 b 132 707 247 978 132 867 b 160 557 132 661 142 611 l 42 557 l 42 399 l 194 399 b 197 303 200 364 206 333 b 39 158 172 229 94 181 l 39 0 l 715 0 l 715 158 l 260 158 b 358 292 307 185 346 229 z "},"₸":{"ha":864,"x_min":0,"x_max":0,"o":"m 821 831 l 821 968 l 43 968 l 43 831 z m 518 0 l 518 589 l 821 589 l 821 728 l 43 728 l 43 589 l 347 589 l 347 0 z "},"¥":{"ha":1053,"x_min":0,"x_max":0,"o":"m 640 0 l 640 143 l 940 143 l 940 285 l 640 285 l 640 371 l 940 371 l 940 513 l 738 513 l 1053 968 l 789 968 l 525 553 l 260 968 l -3 968 l 314 513 l 113 513 l 113 371 l 414 371 l 414 285 l 113 285 l 113 143 l 414 143 l 414 0 z "},"+":{"ha":794,"x_min":0,"x_max":0,"o":"m 469 72 l 469 356 l 751 356 l 751 503 l 469 503 l 469 782 l 325 782 l 325 503 l 42 503 l 42 356 l 325 356 l 325 72 z "},"−":{"ha":733,"x_min":0,"x_max":0,"o":"m 656 358 l 656 504 l 78 504 l 78 358 z "},"×":{"ha":647,"x_min":0,"x_max":0,"o":"m 322 306 l 525 107 l 626 206 l 425 410 l 626 608 l 525 710 l 322 510 l 122 711 l 22 610 l 222 410 l 22 206 l 124 107 z "},"÷":{"ha":669,"x_min":0,"x_max":0,"o":"m 425 624 l 425 807 l 238 807 l 238 624 z m 629 358 l 629 504 l 35 504 l 35 358 z m 425 58 l 425 243 l 238 243 l 238 58 z "},"=":{"ha":706,"x_min":0,"x_max":0,"o":"m 639 546 l 639 690 l 67 690 l 67 546 z m 639 235 l 639 379 l 67 379 l 67 235 z "},"≠":{"ha":786,"x_min":0,"x_max":0,"o":"m 160 0 l 301 235 l 735 235 l 735 379 l 389 379 l 490 546 l 735 546 l 735 690 l 576 690 l 747 968 l 624 968 l 456 690 l 49 690 l 49 546 l 367 546 l 267 379 l 49 379 l 49 235 l 179 235 l 36 0 z "},">":{"ha":875,"x_min":0,"x_max":0,"o":"m 857 404 l 106 833 l 40 718 l 592 404 l 40 92 l 106 -25 z "},"<":{"ha":875,"x_min":0,"x_max":0,"o":"m 835 92 l 286 404 l 835 718 l 771 833 l 18 404 l 771 -25 z "},"≥":{"ha":876,"x_min":0,"x_max":0,"o":"m 857 531 l 106 960 l 40 844 l 590 531 l 40 218 l 106 101 z m 829 -133 l 829 0 l 42 0 l 42 -133 z "},"≤":{"ha":875,"x_min":0,"x_max":0,"o":"m 835 218 l 286 531 l 835 844 l 771 960 l 19 531 l 771 101 z m 835 -133 l 835 0 l 49 0 l 49 -133 z "},"±":{"ha":828,"x_min":0,"x_max":0,"o":"m 478 129 l 478 418 l 790 418 l 790 550 l 478 550 l 478 839 l 347 839 l 347 550 l 35 550 l 35 418 l 347 418 l 347 129 z m 790 -133 l 790 0 l 35 0 l 35 -133 z "},"≈":{"ha":718,"x_min":0,"x_max":0,"o":"m 479 479 b 672 729 596 479 672 583 l 540 729 b 479 597 540 656 515 597 b 235 753 394 597 406 753 b 44 521 121 753 44 660 l 178 521 b 235 636 178 590 197 636 b 479 479 326 636 313 479 z m 479 139 b 672 388 596 139 672 243 l 540 388 b 479 257 540 314 515 257 b 235 411 394 257 406 411 b 44 179 119 411 44 315 l 178 179 b 235 293 178 249 197 293 b 479 139 326 293 313 139 z "},"~":{"ha":725,"x_min":0,"x_max":0,"o":"m 483 225 b 676 472 600 225 676 328 l 544 472 b 483 342 544 399 518 342 b 239 499 399 342 410 499 b 49 264 124 499 49 403 l 181 264 b 239 381 181 333 201 381 b 483 225 331 381 317 225 z "},"¬":{"ha":779,"x_min":0,"x_max":0,"o":"m 697 199 l 697 546 l 46 546 l 46 390 l 531 390 l 531 199 z "},"^":{"ha":817,"x_min":0,"x_max":0,"o":"m 197 285 l 406 700 l 619 285 l 804 285 l 406 1026 l 13 285 z "},"∞":{"ha":1178,"x_min":0,"x_max":0,"o":"m 314 242 b 590 386 403 242 511 290 b 864 242 665 290 772 242 b 1138 503 1036 242 1138 353 b 864 767 1138 656 1036 767 b 590 622 771 767 665 718 b 314 767 511 718 404 767 b 40 503 142 767 40 657 b 314 242 40 351 142 242 z m 336 383 b 196 503 250 383 196 425 b 336 626 196 582 249 626 b 511 503 386 626 461 585 b 336 383 461 421 382 383 z m 840 383 b 667 503 790 383 717 421 b 840 626 717 586 792 626 b 982 503 926 626 982 582 b 840 383 982 425 925 383 z "},"∫":{"ha":558,"x_min":0,"x_max":0,"o":"m 144 -297 b 326 -114 271 -297 326 -229 l 326 742 b 411 838 326 806 356 838 b 490 819 428 838 458 832 l 551 953 b 388 981 496 972 450 981 b 132 746 192 981 132 881 l 132 -67 b 75 -135 132 -111 113 -135 b 13 -126 57 -135 35 -132 l 13 -276 b 144 -297 50 -289 101 -297 z "},"Ω":{"ha":1110,"x_min":0,"x_max":0,"o":"m 890 157 b 1051 514 996 235 1051 363 b 556 999 1051 792 840 999 b 60 517 272 999 60 792 b 222 157 60 368 114 240 l 42 157 l 42 0 l 481 0 l 481 138 b 233 496 338 189 233 297 b 556 832 233 699 363 832 b 878 493 747 832 878 699 b 631 138 878 289 768 181 l 631 0 l 1068 0 l 1068 157 z "},"∆":{"ha":844,"x_min":0,"x_max":0,"o":"m 832 0 l 442 968 l 401 968 l 13 0 z m 422 686 l 632 136 l 215 136 z "},"∏":{"ha":790,"x_min":0,"x_max":0,"o":"m 240 0 l 240 822 l 550 822 l 550 0 l 697 0 l 697 822 l 753 822 l 753 968 l 39 968 l 39 822 l 93 822 l 93 0 z "},"∑":{"ha":818,"x_min":0,"x_max":0,"o":"m 26 968 l 26 889 l 413 483 l 26 79 l 26 0 l 779 0 l 779 165 l 328 165 l 649 483 l 326 803 l 779 803 l 779 968 z "},"√":{"ha":789,"x_min":0,"x_max":0,"o":"m 778 968 l 621 968 l 328 203 l 232 517 l 17 517 l 17 369 l 125 369 l 318 -171 z "},"µ":{"ha":769,"x_min":0,"x_max":0,"o":"m 224 -224 l 224 36 b 356 -12 250 3 294 -12 b 532 78 429 -12 478 11 l 532 0 l 706 0 l 706 685 l 532 685 l 532 313 b 389 147 532 271 518 147 b 256 296 296 147 256 213 l 256 685 l 82 685 l 82 -224 z "},"∂":{"ha":793,"x_min":0,"x_max":0,"o":"m 344 -8 b 756 519 603 -8 756 213 b 411 979 756 813 628 979 b 110 786 275 979 160 913 l 239 746 b 407 851 274 832 351 851 b 590 671 503 851 565 789 b 608 568 600 639 606 606 b 399 688 572 633 499 688 b 26 308 203 688 26 535 b 344 -8 26 126 147 -8 z m 358 142 b 190 308 267 142 190 199 b 417 544 190 415 257 544 b 586 381 522 544 583 469 b 358 142 585 268 503 142 z "},"%":{"ha":965,"x_min":0,"x_max":0,"o":"m 251 533 b 449 757 364 533 449 633 b 247 981 449 885 363 981 b 49 757 133 981 49 888 b 251 533 49 628 133 533 z m 251 0 l 839 968 l 715 968 l 129 0 z m 251 651 b 167 757 200 651 167 692 b 247 865 167 826 199 865 b 331 757 296 865 331 822 b 251 651 331 697 296 651 z m 718 -12 b 917 208 832 -12 917 86 b 714 435 917 336 829 435 b 517 210 599 435 517 340 b 718 -12 517 81 601 -12 z m 718 103 b 635 210 668 103 635 143 b 714 317 635 275 667 317 b 800 208 765 317 800 274 b 718 103 800 149 765 103 z "},"‱":{"ha":1801,"x_min":0,"x_max":0,"o":"m 224 535 b 417 757 336 535 417 635 b 219 981 417 885 332 981 b 22 757 103 981 22 886 b 224 535 22 631 104 535 z m 224 0 l 806 968 l 689 968 l 108 0 z m 224 646 b 133 757 167 646 133 690 b 219 871 133 826 165 871 b 307 757 271 871 307 824 b 224 646 307 693 271 646 z m 693 -12 b 889 208 806 -12 889 85 b 689 433 889 336 803 433 b 494 210 572 433 494 338 b 693 -12 494 82 575 -12 z m 1139 -12 b 1333 208 1250 -12 1333 83 b 1135 433 1333 335 1249 433 b 940 210 1021 433 940 338 b 1139 -12 940 82 1021 -12 z m 1586 -12 b 1779 208 1696 -12 1779 85 b 1582 433 1779 335 1693 433 b 1385 210 1464 433 1385 338 b 1586 -12 1385 82 1465 -12 z m 693 97 b 604 210 640 97 604 142 b 689 322 604 278 638 322 b 779 208 743 322 779 275 b 693 97 779 143 743 97 z m 1139 97 b 1050 210 1085 97 1050 142 b 1135 322 1050 278 1083 322 b 1224 208 1188 322 1224 276 b 1139 97 1224 143 1188 97 z m 1586 97 b 1496 210 1531 97 1496 142 b 1582 322 1496 278 1528 322 b 1669 208 1633 322 1669 276 b 1586 97 1669 144 1633 97 z "},"‰":{"ha":1360,"x_min":0,"x_max":0,"o":"m 228 533 b 424 757 340 533 424 633 b 224 981 424 885 338 981 b 24 757 108 981 24 888 b 228 533 24 628 110 533 z m 226 0 l 814 968 l 690 968 l 104 0 z m 228 651 b 142 757 175 651 142 692 b 224 865 142 826 174 865 b 306 757 271 865 306 822 b 228 651 306 697 271 651 z m 693 -12 b 892 208 807 -12 892 86 b 689 435 892 336 804 435 b 492 210 574 435 492 340 b 693 -12 492 81 576 -12 z m 1140 -12 b 1339 208 1253 -12 1339 83 b 1136 435 1339 335 1253 435 b 940 210 1024 435 940 340 b 1140 -12 940 81 1024 -12 z m 693 103 b 610 210 643 103 610 143 b 689 317 610 275 642 317 b 775 208 740 317 775 274 b 693 103 775 149 740 103 z m 1140 103 b 1057 210 1092 103 1057 143 b 1136 317 1057 278 1090 317 b 1222 208 1186 317 1222 275 b 1140 103 1222 147 1188 103 z "},"→":{"ha":1507,"x_min":0,"x_max":0,"o":"m 1500 410 l 760 824 l 704 714 l 1139 475 l 0 475 l 0 344 l 1139 344 l 704 104 l 760 -4 z "},"←":{"ha":1507,"x_min":0,"x_max":0,"o":"m 803 104 l 368 344 l 1507 344 l 1507 475 l 368 475 l 803 714 l 747 824 l 7 410 l 747 -4 z "},"◊":{"ha":782,"x_min":0,"x_max":0,"o":"m 507 0 l 768 483 l 507 968 l 276 968 l 14 483 l 276 0 z m 185 483 l 383 876 l 399 876 l 596 483 l 399 92 l 383 92 z "},"":{"ha":1135,"x_min":0,"x_max":0,"o":"m 567 -14 b 1092 511 857 -14 1092 222 b 567 1036 1092 800 857 1036 b 42 511 276 1036 42 800 b 567 -14 42 222 276 -14 z m 567 36 b 92 511 306 36 92 250 b 567 986 92 772 304 986 b 1042 511 829 986 1042 772 b 567 36 1042 251 829 36 z m 267 301 b 292 326 281 301 292 313 l 292 694 b 267 719 292 708 279 719 b 242 694 254 719 242 708 l 242 326 b 267 301 242 313 254 301 z m 567 301 b 592 326 579 301 592 313 l 592 694 b 567 719 592 708 581 719 b 542 694 553 719 542 708 l 542 326 b 567 301 542 313 553 301 z m 869 301 b 892 325 882 301 892 317 b 885 342 892 332 889 338 l 701 511 l 885 679 b 892 696 890 685 892 690 b 868 719 892 713 875 719 b 849 710 863 719 854 715 l 650 528 b 643 511 646 524 643 517 b 650 494 643 504 646 499 l 851 308 b 869 301 854 306 864 301 z m 467 486 b 492 511 479 486 492 497 b 467 536 492 524 481 536 l 367 536 b 342 511 354 536 342 525 b 367 486 342 497 353 486 z "},"@":{"ha":1360,"x_min":0,"x_max":0,"o":"m 674 -240 b 889 -200 754 -240 822 -226 l 840 -72 b 668 -110 788 -99 736 -110 b 194 351 417 -110 194 44 b 689 847 194 639 389 847 b 1169 386 986 847 1169 653 b 996 110 1169 222 1114 110 b 911 224 929 110 907 153 b 1004 693 917 313 947 457 l 889 694 l 853 592 b 707 728 853 689 783 728 b 364 307 486 728 364 497 b 603 28 364 154 443 28 b 824 186 708 28 781 89 b 815 131 819 169 817 153 b 965 -18 810 36 871 -18 b 1306 399 1189 -18 1306 161 b 688 982 1306 713 1069 982 b 58 350 311 982 58 715 b 674 -240 58 -32 338 -240 z m 619 168 b 497 326 543 168 497 228 b 692 588 497 454 574 588 b 806 433 764 588 806 529 b 619 168 806 304 732 168 z "},"&":{"ha":951,"x_min":0,"x_max":0,"o":"m 774 211 b 885 494 821 286 857 381 l 731 519 b 667 332 714 447 693 385 l 518 497 b 686 746 608 560 686 633 b 431 979 686 883 567 979 b 158 747 297 979 158 893 b 271 525 158 647 232 565 b 49 231 158 458 49 375 b 374 -17 49 68 190 -17 b 667 85 489 -17 586 17 l 788 -53 l 911 58 z m 325 749 b 426 842 325 804 368 842 b 525 750 483 842 525 806 b 404 603 525 689 474 646 b 325 749 372 638 325 697 z m 385 122 b 235 239 279 122 235 174 b 381 411 235 310 300 360 l 569 194 b 385 122 518 147 456 122 z "},"¶":{"ha":763,"x_min":0,"x_max":0,"o":"m 426 -168 l 426 968 l 331 968 b 19 697 169 968 19 868 b 331 426 19 526 169 426 l 331 -168 z m 679 -168 l 679 968 l 578 968 l 578 -168 z "},"§":{"ha":749,"x_min":0,"x_max":0,"o":"m 365 -301 b 669 -32 531 -301 669 -203 b 644 82 669 15 658 53 b 728 283 697 131 728 204 b 447 576 728 467 575 528 b 261 722 350 613 261 647 b 379 821 261 781 311 821 b 531 719 438 821 499 783 l 682 813 b 386 981 619 924 513 981 b 81 714 222 981 81 886 b 106 600 81 668 90 633 b 22 399 54 549 22 483 b 299 107 22 215 179 153 b 488 -40 392 71 488 40 b 369 -140 488 -100 438 -140 b 219 -37 310 -140 253 -103 l 68 -131 b 365 -301 133 -249 249 -301 z m 522 199 b 393 254 472 228 426 240 b 204 415 299 293 204 328 b 226 482 204 436 211 464 b 358 428 279 456 322 442 b 546 268 458 388 546 353 b 522 199 546 244 539 221 z "},"©":{"ha":1158,"x_min":0,"x_max":0,"o":"m 581 -19 b 1101 483 867 -19 1101 182 b 581 988 1101 785 868 988 b 56 483 292 988 56 785 b 581 -19 56 182 292 -19 z m 581 89 b 165 483 350 89 165 244 b 581 879 165 724 350 879 b 994 483 808 879 994 724 b 581 89 994 244 808 89 z m 594 193 b 831 361 707 193 793 256 l 704 407 b 593 324 686 358 644 324 b 468 482 504 324 468 401 b 593 644 468 561 504 644 b 704 560 650 644 688 607 l 838 607 b 593 774 794 718 707 774 b 322 482 410 774 322 628 b 594 193 322 338 411 193 z "},"®":{"ha":1158,"x_min":0,"x_max":0,"o":"m 581 988 b 56 483 278 988 56 774 b 581 -19 56 193 278 -19 b 1101 483 881 -19 1101 193 b 581 988 1101 774 881 988 z m 581 89 b 165 483 339 89 165 256 b 581 879 165 713 339 879 b 994 483 821 879 994 711 b 581 89 994 256 819 89 z m 793 599 b 592 769 793 703 713 769 l 404 769 l 404 199 l 518 199 l 518 439 l 572 439 l 713 199 l 843 199 l 686 450 b 793 599 749 475 793 532 z m 518 532 l 518 667 l 597 667 b 675 599 646 667 675 642 b 599 532 675 558 646 532 z "},"™":{"ha":861,"x_min":0,"x_max":0,"o":"m 228 600 l 228 888 l 329 888 l 329 968 l 38 968 l 38 888 l 140 888 l 140 600 z m 474 600 l 474 878 l 565 613 l 622 613 l 710 876 l 710 600 l 797 600 l 797 968 l 658 968 l 593 736 l 528 968 l 386 968 l 386 600 z "},"°":{"ha":488,"x_min":0,"x_max":0,"o":"m 242 582 b 444 782 353 582 444 671 b 242 981 444 892 353 981 b 42 782 133 981 42 892 b 242 582 42 671 133 582 z m 242 697 b 160 782 197 697 160 735 b 242 865 160 828 196 865 b 326 782 290 865 326 828 b 242 697 326 735 290 697 z "},"|":{"ha":296,"x_min":0,"x_max":0,"o":"m 213 -353 l 213 1036 l 83 1036 l 83 -353 z "},"¦":{"ha":311,"x_min":0,"x_max":0,"o":"m 226 458 l 226 1036 l 83 1036 l 83 458 z m 226 -353 l 226 215 l 83 215 l 83 -353 z "},"†":{"ha":496,"x_min":0,"x_max":0,"o":"m 325 -140 l 325 549 l 478 549 l 478 707 l 325 707 l 325 968 l 167 968 l 167 707 l 18 707 l 18 549 l 167 549 l 167 -140 z "},"‡":{"ha":526,"x_min":0,"x_max":0,"o":"m 342 -140 l 342 121 l 492 121 l 492 279 l 342 279 l 342 549 l 492 549 l 492 707 l 342 707 l 342 968 l 183 968 l 183 707 l 35 707 l 35 549 l 183 549 l 183 279 l 35 279 l 35 121 l 183 121 l 183 -140 z "},"˶":{"ha":694,"x_min":0,"x_max":0,"o":"m 161 451 l 378 685 l 176 685 l 24 451 z m 456 451 l 675 685 l 472 685 l 318 451 z "},"˵":{"ha":694,"x_min":0,"x_max":0,"o":"m 378 451 l 222 685 l 19 685 l 240 451 z m 671 451 l 519 685 l 318 685 l 535 451 z "},"̈":{"ha":0,"x_min":0,"x_max":0,"o":"m -369 789 l -369 968 l -568 968 l -568 789 z m -82 789 l -82 968 l -281 968 l -281 789 z "},"̇":{"ha":0,"x_min":0,"x_max":0,"o":"m -82 789 l -82 968 l -326 968 l -326 789 z "},"̀":{"ha":0,"x_min":0,"x_max":0,"o":"m -82 771 l -226 968 l -419 968 l -217 771 z "},"́":{"ha":0,"x_min":0,"x_max":0,"o":"m -300 771 l -82 968 l -276 968 l -432 771 z "},"̋":{"ha":0,"x_min":0,"x_max":0,"o":"m -571 738 l -385 968 l -547 968 l -703 738 z m -299 738 l -82 968 l -275 968 l -429 738 z "},"̂":{"ha":0,"x_min":0,"x_max":0,"o":"m -381 750 l -300 842 l -221 750 l -82 750 l -300 996 l -519 750 z "},"̌":{"ha":0,"x_min":0,"x_max":0,"o":"m -82 968 l -221 968 l -301 883 l -379 968 l -519 968 l -301 736 z "},"̆":{"ha":0,"x_min":0,"x_max":0,"o":"m -328 760 b -82 968 -164 760 -82 825 l -229 968 b -328 864 -229 885 -272 864 b -428 968 -382 864 -428 885 l -575 968 b -328 760 -575 833 -500 760 z "},"̊":{"ha":0,"x_min":0,"x_max":0,"o":"m -244 729 b -82 892 -156 729 -82 801 b -244 1054 -82 983 -158 1054 b -408 892 -336 1054 -408 981 b -244 729 -408 806 -337 729 z m -244 826 b -310 894 -282 826 -310 854 b -244 957 -310 931 -286 957 b -179 894 -203 957 -179 932 b -244 826 -179 854 -206 826 z "},"̃":{"ha":0,"x_min":0,"x_max":0,"o":"m -231 769 b -82 968 -139 769 -82 839 l -192 968 b -228 879 -192 910 -207 879 b -399 971 -272 879 -304 971 b -550 782 -492 971 -550 899 l -446 782 b -407 860 -446 829 -431 860 b -231 769 -360 860 -336 769 z "},"̄":{"ha":0,"x_min":0,"x_max":0,"o":"m -83 776 l -83 882 l -467 882 l -467 776 z "},"̉":{"ha":0,"x_min":0,"x_max":0,"o":"m -274 713 b -82 851 -194 725 -82 743 b -317 997 -82 946 -176 997 l -339 997 l -339 886 l -317 886 b -210 838 -261 886 -210 881 b -294 788 -210 796 -253 794 z "},"̏":{"ha":0,"x_min":0,"x_max":0,"o":"m -356 738 l -510 968 l -703 968 l -486 738 z m -82 738 l -236 968 l -399 968 l -214 738 z "},"̒":{"ha":0,"x_min":0,"x_max":0,"o":"m -171 765 l -82 983 l -187 983 l -358 765 z "},"̛":{"ha":0,"x_min":0,"x_max":0,"o":"m -304 683 b -82 917 -144 683 -82 792 l -82 968 l -207 968 l -207 926 b -304 803 -207 847 -231 803 z "},"̣":{"ha":0,"x_min":0,"x_max":0,"o":"m -83 -262 l -83 -83 l -325 -83 l -325 -262 z "},"̦":{"ha":0,"x_min":0,"x_max":0,"o":"m -253 -315 l -82 -72 l -271 -72 l -358 -315 z "},"̧":{"ha":0,"x_min":0,"x_max":0,"o":"m -249 -360 b -83 -197 -149 -360 -83 -289 b -135 -92 -83 -154 -99 -117 b -207 -64 -154 -79 -178 -69 l -154 0 l -261 0 l -346 -133 b -243 -143 -307 -133 -274 -135 b -187 -206 -211 -153 -187 -171 b -243 -257 -187 -239 -211 -257 b -304 -232 -264 -257 -286 -247 l -361 -319 b -249 -360 -319 -351 -274 -360 z "},"̨":{"ha":0,"x_min":0,"x_max":0,"o":"m -236 -311 b -82 -224 -160 -311 -114 -271 l -175 -161 b -242 -200 -190 -185 -211 -200 b -290 -147 -268 -200 -290 -187 b -146 0 -290 -72 -182 -14 l -287 1 b -399 -167 -329 -22 -399 -75 b -236 -311 -399 -253 -329 -311 z "},"̵":{"ha":0,"x_min":0,"x_max":0,"o":"m -82 344 l -82 465 l -618 465 l -618 344 z "},"̶":{"ha":0,"x_min":0,"x_max":0,"o":"m -82 336 l -82 443 l -1157 443 l -1157 336 z "},"̷":{"ha":0,"x_min":0,"x_max":0,"o":"m -82 535 l -82 719 l -435 440 l -435 254 z "},"̸":{"ha":0,"x_min":0,"x_max":0,"o":"m -567 0 l -82 801 l -171 801 l -654 0 z "},"¨":{"ha":649,"x_min":0,"x_max":0,"o":"m 279 789 l 279 968 l 81 968 l 81 789 z m 567 789 l 567 968 l 368 968 l 368 789 z "},"˙":{"ha":407,"x_min":0,"x_max":0,"o":"m 325 789 l 325 968 l 81 968 l 81 789 z "},"`":{"ha":500,"x_min":0,"x_max":0,"o":"m 418 771 l 274 968 l 81 968 l 283 771 z "},"´":{"ha":513,"x_min":0,"x_max":0,"o":"m 213 771 l 431 968 l 236 968 l 81 771 z "},"˝":{"ha":783,"x_min":0,"x_max":0,"o":"m 213 738 l 399 968 l 236 968 l 81 738 z m 485 738 l 701 968 l 508 968 l 354 738 z "},"ˆ":{"ha":600,"x_min":0,"x_max":0,"o":"m 219 750 l 300 842 l 379 750 l 518 750 l 300 996 l 81 750 z "},"ˇ":{"ha":600,"x_min":0,"x_max":0,"o":"m 518 968 l 379 968 l 299 883 l 221 968 l 81 968 l 299 736 z "},"˘":{"ha":656,"x_min":0,"x_max":0,"o":"m 328 760 b 574 968 492 760 574 825 l 426 968 b 328 864 426 885 383 864 b 228 968 274 864 228 885 l 81 968 b 328 760 81 833 156 760 z "},"˚":{"ha":489,"x_min":0,"x_max":0,"o":"m 244 729 b 407 892 333 729 407 801 b 244 1054 407 983 331 1054 b 81 892 153 1054 81 981 b 244 729 81 806 151 729 z m 244 826 b 179 894 207 826 179 854 b 244 957 179 931 203 957 b 310 894 286 957 310 932 b 244 826 310 854 283 826 z "},"˜":{"ha":631,"x_min":0,"x_max":0,"o":"m 400 769 b 549 968 492 769 549 839 l 439 968 b 403 879 439 910 424 879 b 232 971 358 879 326 971 b 81 782 139 971 81 899 l 185 782 b 224 860 185 829 200 860 b 400 769 271 860 294 769 z "},"¯":{"ha":547,"x_min":0,"x_max":0,"o":"m 464 776 l 464 882 l 81 882 l 81 776 z "},"¸":{"ha":442,"x_min":0,"x_max":0,"o":"m 193 -360 b 358 -197 293 -360 358 -289 b 307 -92 358 -154 343 -117 b 235 -64 288 -79 264 -69 l 288 0 l 181 0 l 96 -133 b 199 -143 135 -133 168 -135 b 254 -206 231 -153 254 -171 b 199 -257 254 -239 231 -257 b 138 -232 178 -257 156 -247 l 81 -319 b 193 -360 122 -351 168 -360 z "},"˛":{"ha":479,"x_min":0,"x_max":0,"o":"m 243 -311 b 397 -224 319 -311 365 -271 l 304 -161 b 238 -200 289 -185 268 -200 b 189 -147 211 -200 189 -187 b 333 0 189 -72 297 -14 l 192 1 b 81 -167 150 -22 81 -75 b 243 -311 81 -253 150 -311 z "},"΄":{"ha":429,"x_min":0,"x_max":0,"o":"m 213 771 l 347 968 l 176 968 l 81 771 z "},"΅":{"ha":711,"x_min":0,"x_max":0,"o":"m 485 1097 l 344 1126 l 292 821 l 382 801 z m 218 789 l 218 968 l 81 968 l 81 789 z m 628 789 l 628 968 l 490 968 l 490 789 z "}}}
